<?xml version="1.0" encoding="UTF-8" standalone="no"?><svg xmlns="http://www.w3.org/2000/svg" xmlns:xlink="http://www.w3.org/1999/xlink" contentScriptType="application/ecmascript" contentStyleType="text/css" height="99px" preserveAspectRatio="none" style="width:292px;height:99px;" version="1.1" viewBox="0 0 292 99" width="292px" zoomAndPan="magnify"><defs><filter height="300%" id="fcrtoq8zb6bsh" width="300%" x="-1" y="-1"><feGaussianBlur result="blurOut" stdDeviation="2.0"/><feColorMatrix in="blurOut" result="blurOut2" type="matrix" values="0 0 0 0 0 0 0 0 0 0 0 0 0 0 0 0 0 0 .4 0"/><feOffset dx="4.0" dy="4.0" in="blurOut2" result="blurOut3"/><feBlend in="SourceGraphic" in2="blurOut3" mode="normal"/></filter></defs><g><!--MD5=[40d66937e74e4112c1988045a6a24487]
class RestaurantSim.SimulationSystem.IEvaluationService--><a href="IEvaluationService.html" target="_top" title="IEvaluationService.html" xlink:actuate="onRequest" xlink:href="IEvaluationService.html" xlink:show="new" xlink:title="IEvaluationService.html" xlink:type="simple"><rect codeLine="5" fill="#FEFECE" filter="url(#fcrtoq8zb6bsh)" height="62.0234" id="RestaurantSim.SimulationSystem.IEvaluationService" style="stroke: #A80036; stroke-width: 1.5;" width="266" x="7" y="7"/><ellipse cx="58.75" cy="27.0938" fill="#B4A7E5" rx="11" ry="11" style="stroke: #A80036; stroke-width: 1.0;"/><path d="M59.7031,23.7344 L59.7031,30.3906 L61.4219,30.3906 Q62.0313,30.3906 62.2969,30.625 Q62.5625,30.8594 62.5625,31.25 Q62.5625,31.625 62.2969,31.8594 Q62.0313,32.0938 61.4219,32.0938 L56.2813,32.0938 Q55.6719,32.0938 55.4063,31.8594 Q55.1406,31.625 55.1406,31.2344 Q55.1406,30.8594 55.4063,30.625 Q55.6719,30.3906 56.2813,30.3906 L58,30.3906 L58,23.7344 L56.2813,23.7344 Q55.6719,23.7344 55.4063,23.5 Q55.1406,23.2656 55.1406,22.875 Q55.1406,22.5 55.4063,22.2656 Q55.6719,22.0313 56.2813,22.0313 L61.4219,22.0313 Q62.0313,22.0313 62.2969,22.2656 Q62.5625,22.5 62.5625,22.875 Q62.5625,23.2656 62.2969,23.5 Q62.0313,23.7344 61.4219,23.7344 L59.7031,23.7344 Z "/><text fill="#000000" font-family="sans-serif" font-size="14" font-style="italic" lengthAdjust="spacingAndGlyphs" textLength="115" x="98.75" y="26.5332">IEvaluationService</text><text fill="#000000" font-family="sans-serif" font-size="10" font-style="italic" lengthAdjust="spacingAndGlyphs" textLength="154" x="79.25" y="39.9902">RestaurantSim.SimulationSystem</text><line style="stroke: #A80036; stroke-width: 1.5;" x1="8" x2="272" y1="47.1875" y2="47.1875"/><ellipse cx="18" cy="58.1875" fill="#84BE84" rx="3" ry="3" style="stroke: #038048; stroke-width: 1.0;"/><text fill="#000000" font-family="sans-serif" font-size="11" font-style="italic" lengthAdjust="spacingAndGlyphs" textLength="240" x="27" y="62.6064">restaurantShouldBeClosed(Restaurant): boolean</text></a><text fill="#888888" font-family="sans-serif" font-size="10" lengthAdjust="spacingAndGlyphs" textLength="190" x="45" y="86.4043">UMLDoclet 2.0.12, PlantUML 1.2020.16</text><!--MD5=[2af3a085022c9a85dbe5f773b1ce7a1d]
@startuml
    set namespaceSeparator none
    hide empty fields
    hide empty methods

    interface "<size:14>IEvaluationService\n<size:10>RestaurantSim.SimulationSystem" as RestaurantSim.SimulationSystem.IEvaluationService [[IEvaluationService.html]] {
        {abstract} +restaurantShouldBeClosed(Restaurant): boolean
    }

    center footer UMLDoclet 2.0.12, PlantUML 1.2020.16
@enduml

PlantUML version 1.2020.16(Sun Aug 23 22:20:43 CEST 2020)
(APACHE source distribution)
Java Runtime: OpenJDK Runtime Environment
JVM: OpenJDK 64-Bit Server VM
Default Encoding: Cp1250
Language: pl
Country: PL
--></g></svg>