<?xml version="1.0" encoding="UTF-8" standalone="no"?><svg xmlns="http://www.w3.org/2000/svg" xmlns:xlink="http://www.w3.org/1999/xlink" contentScriptType="application/ecmascript" contentStyleType="text/css" height="99px" preserveAspectRatio="none" style="width:349px;height:99px;" version="1.1" viewBox="0 0 349 99" width="349px" zoomAndPan="magnify"><defs><filter height="300%" id="f1gzdxv3fut90i" width="300%" x="-1" y="-1"><feGaussianBlur result="blurOut" stdDeviation="2.0"/><feColorMatrix in="blurOut" result="blurOut2" type="matrix" values="0 0 0 0 0 0 0 0 0 0 0 0 0 0 0 0 0 0 .4 0"/><feOffset dx="4.0" dy="4.0" in="blurOut2" result="blurOut3"/><feBlend in="SourceGraphic" in2="blurOut3" mode="normal"/></filter></defs><g><!--MD5=[1bc529189f128eb66ad2884d682f977e]
class RestaurantSim.SimulationSystem.IOrderQualityDeterminer--><a href="IOrderQualityDeterminer.html" target="_top" title="IOrderQualityDeterminer.html" xlink:actuate="onRequest" xlink:href="IOrderQualityDeterminer.html" xlink:show="new" xlink:title="IOrderQualityDeterminer.html" xlink:type="simple"><rect codeLine="5" fill="#FEFECE" filter="url(#f1gzdxv3fut90i)" height="62.0234" id="RestaurantSim.SimulationSystem.IOrderQualityDeterminer" style="stroke: #A80036; stroke-width: 1.5;" width="323" x="7" y="7"/><ellipse cx="86.75" cy="27.0938" fill="#B4A7E5" rx="11" ry="11" style="stroke: #A80036; stroke-width: 1.0;"/><path d="M87.7031,23.7344 L87.7031,30.3906 L89.4219,30.3906 Q90.0313,30.3906 90.2969,30.625 Q90.5625,30.8594 90.5625,31.25 Q90.5625,31.625 90.2969,31.8594 Q90.0313,32.0938 89.4219,32.0938 L84.2813,32.0938 Q83.6719,32.0938 83.4063,31.8594 Q83.1406,31.625 83.1406,31.2344 Q83.1406,30.8594 83.4063,30.625 Q83.6719,30.3906 84.2813,30.3906 L86,30.3906 L86,23.7344 L84.2813,23.7344 Q83.6719,23.7344 83.4063,23.5 Q83.1406,23.2656 83.1406,22.875 Q83.1406,22.5 83.4063,22.2656 Q83.6719,22.0313 84.2813,22.0313 L89.4219,22.0313 Q90.0313,22.0313 90.2969,22.2656 Q90.5625,22.5 90.5625,22.875 Q90.5625,23.2656 90.2969,23.5 Q90.0313,23.7344 89.4219,23.7344 L87.7031,23.7344 Z "/><text fill="#000000" font-family="sans-serif" font-size="14" font-style="italic" lengthAdjust="spacingAndGlyphs" textLength="155" x="107.25" y="26.5332">IOrderQualityDeterminer</text><text fill="#000000" font-family="sans-serif" font-size="10" font-style="italic" lengthAdjust="spacingAndGlyphs" textLength="154" x="107.75" y="39.9902">RestaurantSim.SimulationSystem</text><line style="stroke: #A80036; stroke-width: 1.5;" x1="8" x2="329" y1="47.1875" y2="47.1875"/><ellipse cx="18" cy="58.1875" fill="#84BE84" rx="3" ry="3" style="stroke: #038048; stroke-width: 1.0;"/><text fill="#000000" font-family="sans-serif" font-size="11" font-style="italic" lengthAdjust="spacingAndGlyphs" textLength="297" x="27" y="62.6064">determineOrderQuality(Order, Cook): PreparedOrderQuality</text></a><text fill="#888888" font-family="sans-serif" font-size="10" lengthAdjust="spacingAndGlyphs" textLength="190" x="73.5" y="86.4043">UMLDoclet 2.0.12, PlantUML 1.2020.16</text><!--MD5=[96e84f50a6aa21bf1f757faed5746cac]
@startuml
    set namespaceSeparator none
    hide empty fields
    hide empty methods

    interface "<size:14>IOrderQualityDeterminer\n<size:10>RestaurantSim.SimulationSystem" as RestaurantSim.SimulationSystem.IOrderQualityDeterminer [[IOrderQualityDeterminer.html]] {
        {abstract} +determineOrderQuality(Order, Cook): PreparedOrderQuality
    }

    center footer UMLDoclet 2.0.12, PlantUML 1.2020.16
@enduml

PlantUML version 1.2020.16(Sun Aug 23 22:20:43 CEST 2020)
(APACHE source distribution)
Java Runtime: OpenJDK Runtime Environment
JVM: OpenJDK 64-Bit Server VM
Default Encoding: Cp1250
Language: pl
Country: PL
--></g></svg>