<?xml version="1.0" encoding="UTF-8" standalone="no"?><svg xmlns="http://www.w3.org/2000/svg" xmlns:xlink="http://www.w3.org/1999/xlink" contentScriptType="application/ecmascript" contentStyleType="text/css" height="113px" preserveAspectRatio="none" style="width:267px;height:113px;" version="1.1" viewBox="0 0 267 113" width="267px" zoomAndPan="magnify"><defs><filter height="300%" id="f164xj632a63bv" width="300%" x="-1" y="-1"><feGaussianBlur result="blurOut" stdDeviation="2.0"/><feColorMatrix in="blurOut" result="blurOut2" type="matrix" values="0 0 0 0 0 0 0 0 0 0 0 0 0 0 0 0 0 0 .4 0"/><feOffset dx="4.0" dy="4.0" in="blurOut2" result="blurOut3"/><feBlend in="SourceGraphic" in2="blurOut3" mode="normal"/></filter></defs><g><!--MD5=[a39922f3f2d1cc3aed2dd395f1f2b9cc]
class RestaurantSim.SimulationSystem.ITickableActionObject--><a href="ITickableActionObject.html" target="_top" title="ITickableActionObject.html" xlink:actuate="onRequest" xlink:href="ITickableActionObject.html" xlink:show="new" xlink:title="ITickableActionObject.html" xlink:type="simple"><rect codeLine="5" fill="#FEFECE" filter="url(#f164xj632a63bv)" height="75.8594" id="RestaurantSim.SimulationSystem.ITickableActionObject" style="stroke: #A80036; stroke-width: 1.5;" width="241" x="7" y="7"/><ellipse cx="46.75" cy="27.0938" fill="#B4A7E5" rx="11" ry="11" style="stroke: #A80036; stroke-width: 1.0;"/><path d="M47.7031,23.7344 L47.7031,30.3906 L49.4219,30.3906 Q50.0313,30.3906 50.2969,30.625 Q50.5625,30.8594 50.5625,31.25 Q50.5625,31.625 50.2969,31.8594 Q50.0313,32.0938 49.4219,32.0938 L44.2813,32.0938 Q43.6719,32.0938 43.4063,31.8594 Q43.1406,31.625 43.1406,31.2344 Q43.1406,30.8594 43.4063,30.625 Q43.6719,30.3906 44.2813,30.3906 L46,30.3906 L46,23.7344 L44.2813,23.7344 Q43.6719,23.7344 43.4063,23.5 Q43.1406,23.2656 43.1406,22.875 Q43.1406,22.5 43.4063,22.2656 Q43.6719,22.0313 44.2813,22.0313 L49.4219,22.0313 Q50.0313,22.0313 50.2969,22.2656 Q50.5625,22.5 50.5625,22.875 Q50.5625,23.2656 50.2969,23.5 Q50.0313,23.7344 49.4219,23.7344 L47.7031,23.7344 Z "/><text fill="#000000" font-family="sans-serif" font-size="14" font-style="italic" lengthAdjust="spacingAndGlyphs" textLength="138" x="74.25" y="26.5332">ITickableActionObject</text><text fill="#000000" font-family="sans-serif" font-size="10" font-style="italic" lengthAdjust="spacingAndGlyphs" textLength="154" x="66.25" y="39.9902">RestaurantSim.SimulationSystem</text><line style="stroke: #A80036; stroke-width: 1.5;" x1="8" x2="247" y1="47.1875" y2="47.1875"/><ellipse cx="18" cy="58.1875" fill="#84BE84" rx="3" ry="3" style="stroke: #038048; stroke-width: 1.0;"/><text fill="#000000" font-family="sans-serif" font-size="11" font-style="italic" lengthAdjust="spacingAndGlyphs" textLength="215" x="27" y="62.6064">getTickableActions(): List&lt;TickableAction&gt;</text><ellipse cx="18" cy="72.0234" fill="#84BE84" rx="3" ry="3" style="stroke: #038048; stroke-width: 1.0;"/><text fill="#000000" font-family="sans-serif" font-size="11" font-style="italic" lengthAdjust="spacingAndGlyphs" textLength="163" x="27" y="76.4424">shouldBeUnregistered(): boolean</text></a><text fill="#888888" font-family="sans-serif" font-size="10" lengthAdjust="spacingAndGlyphs" textLength="190" x="32.5" y="100.2402">UMLDoclet 2.0.12, PlantUML 1.2020.16</text><!--MD5=[aac712ed9b4e45aee50e61bfa900e167]
@startuml
    set namespaceSeparator none
    hide empty fields
    hide empty methods

    interface "<size:14>ITickableActionObject\n<size:10>RestaurantSim.SimulationSystem" as RestaurantSim.SimulationSystem.ITickableActionObject [[ITickableActionObject.html]] {
        {abstract} +getTickableActions(): List<TickableAction>
        {abstract} +shouldBeUnregistered(): boolean
    }

    center footer UMLDoclet 2.0.12, PlantUML 1.2020.16
@enduml

PlantUML version 1.2020.16(Sun Aug 23 22:20:43 CEST 2020)
(APACHE source distribution)
Java Runtime: OpenJDK Runtime Environment
JVM: OpenJDK 64-Bit Server VM
Default Encoding: Cp1250
Language: pl
Country: PL
--></g></svg>