<?xml version="1.0" encoding="UTF-8" standalone="no"?><svg xmlns="http://www.w3.org/2000/svg" xmlns:xlink="http://www.w3.org/1999/xlink" contentScriptType="application/ecmascript" contentStyleType="text/css" height="449px" preserveAspectRatio="none" style="width:249px;height:449px;" version="1.1" viewBox="0 0 249 449" width="249px" zoomAndPan="magnify"><defs><filter height="300%" id="fj3vgw140bns" width="300%" x="-1" y="-1"><feGaussianBlur result="blurOut" stdDeviation="2.0"/><feColorMatrix in="blurOut" result="blurOut2" type="matrix" values="0 0 0 0 0 0 0 0 0 0 0 0 0 0 0 0 0 0 .4 0"/><feOffset dx="4.0" dy="4.0" in="blurOut2" result="blurOut3"/><feBlend in="SourceGraphic" in2="blurOut3" mode="normal"/></filter></defs><g><!--MD5=[94b72f7a3c45c8ab18fc3830e9e6e309]
class RestaurantSim.SimulationSystem.LanternaDisplay--><a href="LanternaDisplay.html" target="_top" title="LanternaDisplay.html" xlink:actuate="onRequest" xlink:href="LanternaDisplay.html" xlink:show="new" xlink:title="LanternaDisplay.html" xlink:type="simple"><rect codeLine="5" fill="#FEFECE" filter="url(#fj3vgw140bns)" height="172.7109" id="RestaurantSim.SimulationSystem.LanternaDisplay" style="stroke: #A80036; stroke-width: 1.5;" width="216" x="10.5" y="240"/><ellipse cx="37.2" cy="260.0938" fill="#ADD1B2" rx="11" ry="11" style="stroke: #A80036; stroke-width: 1.0;"/><path d="M39.9656,255.9688 Q40.1219,255.75 40.3094,255.6406 Q40.4969,255.5313 40.7156,255.5313 Q41.0906,255.5313 41.325,255.7969 Q41.5594,256.0469 41.5594,256.6563 L41.5594,258.1094 Q41.5594,258.7188 41.325,258.9844 Q41.0906,259.25 40.7156,259.25 Q40.3719,259.25 40.1688,259.0469 Q39.9656,258.8594 39.8563,258.3438 Q39.8094,257.9844 39.6219,257.7969 Q39.2938,257.4219 38.6844,257.2031 Q38.075,256.9844 37.45,256.9844 Q36.6844,256.9844 36.0438,257.3125 Q35.4188,257.6406 34.9188,258.3906 Q34.4344,259.1406 34.4344,260.1719 L34.4344,261.2656 Q34.4344,262.5 35.325,263.3281 Q36.2156,264.1406 37.8094,264.1406 Q38.7469,264.1406 39.4031,263.8906 Q39.7938,263.7344 40.2156,263.2969 Q40.4813,263.0313 40.6219,262.9531 Q40.7781,262.875 40.9813,262.875 Q41.3094,262.875 41.5594,263.1406 Q41.825,263.3906 41.825,263.7344 Q41.825,264.0781 41.4813,264.4844 Q40.9813,265.0625 40.1844,265.3906 Q39.1063,265.8438 37.8094,265.8438 Q36.2938,265.8438 35.0906,265.2188 Q34.1063,264.7188 33.4188,263.6563 Q32.7313,262.5781 32.7313,261.2969 L32.7313,260.1406 Q32.7313,258.8125 33.3406,257.6719 Q33.9656,256.5156 35.0594,255.9063 Q36.1531,255.2813 37.3875,255.2813 Q38.1219,255.2813 38.7625,255.4531 Q39.4188,255.6094 39.9656,255.9688 Z "/><text fill="#000000" font-family="sans-serif" font-size="14" lengthAdjust="spacingAndGlyphs" textLength="103" x="81.3" y="259.5332">LanternaDisplay</text><text fill="#000000" font-family="sans-serif" font-size="10" lengthAdjust="spacingAndGlyphs" textLength="158" x="53.8" y="272.9902">RestaurantSim.SimulationSystem</text><line style="stroke: #A80036; stroke-width: 1.5;" x1="11.5" x2="225.5" y1="280.1875" y2="280.1875"/><ellipse cx="21.5" cy="291.1875" fill="#84BE84" rx="3" ry="3" style="stroke: #038048; stroke-width: 1.0;"/><text fill="#000000" font-family="sans-serif" font-size="11" lengthAdjust="spacingAndGlyphs" textLength="148" x="30.5" y="295.6064">printDebug(String, String): void</text><ellipse cx="21.5" cy="305.0234" fill="#84BE84" rx="3" ry="3" style="stroke: #038048; stroke-width: 1.0;"/><text fill="#000000" font-family="sans-serif" font-size="11" lengthAdjust="spacingAndGlyphs" textLength="114" x="30.5" y="309.4424">printDebug(String): void</text><ellipse cx="21.5" cy="318.8594" fill="#84BE84" rx="3" ry="3" style="stroke: #038048; stroke-width: 1.0;"/><text fill="#000000" font-family="sans-serif" font-size="11" lengthAdjust="spacingAndGlyphs" textLength="117" x="30.5" y="323.2783">print(String, String): void</text><ellipse cx="21.5" cy="332.6953" fill="#84BE84" rx="3" ry="3" style="stroke: #038048; stroke-width: 1.0;"/><text fill="#000000" font-family="sans-serif" font-size="11" lengthAdjust="spacingAndGlyphs" textLength="83" x="30.5" y="337.1143">print(String): void</text><ellipse cx="21.5" cy="346.5313" fill="#84BE84" rx="3" ry="3" style="stroke: #038048; stroke-width: 1.0;"/><text fill="#000000" font-family="sans-serif" font-size="11" lengthAdjust="spacingAndGlyphs" textLength="167" x="30.5" y="350.9502">printRestaurantStatus(String): void</text><ellipse cx="21.5" cy="360.3672" fill="#84BE84" rx="3" ry="3" style="stroke: #038048; stroke-width: 1.0;"/><text fill="#000000" font-family="sans-serif" font-size="11" lengthAdjust="spacingAndGlyphs" textLength="144" x="30.5" y="364.7861">printCooksStatus(String): void</text><ellipse cx="21.5" cy="374.2031" fill="#84BE84" rx="3" ry="3" style="stroke: #038048; stroke-width: 1.0;"/><text fill="#000000" font-family="sans-serif" font-size="11" lengthAdjust="spacingAndGlyphs" textLength="190" x="30.5" y="378.6221">printTickableActionsStatus(String): void</text><ellipse cx="21.5" cy="388.0391" fill="#84BE84" rx="3" ry="3" style="stroke: #038048; stroke-width: 1.0;"/><text fill="#000000" font-family="sans-serif" font-size="11" lengthAdjust="spacingAndGlyphs" textLength="60" x="30.5" y="392.458">close(): void</text><ellipse cx="21.5" cy="401.875" fill="#84BE84" rx="3" ry="3" style="stroke: #038048; stroke-width: 1.0;"/><text fill="#000000" font-family="sans-serif" font-size="11" lengthAdjust="spacingAndGlyphs" textLength="98" x="30.5" y="406.2939">isOpened(): boolean</text></a><!--MD5=[26778668d79a66db07e5435fc648f08d]
class RestaurantSim.SimulationSystem.OutputDisplayProvider--><a href="OutputDisplayProvider.html" target="_top" title="OutputDisplayProvider.html" xlink:actuate="onRequest" xlink:href="OutputDisplayProvider.html" xlink:show="new" xlink:title="OutputDisplayProvider.html" xlink:type="simple"><rect codeLine="17" fill="#FEFECE" filter="url(#fj3vgw140bns)" height="172.7109" id="RestaurantSim.SimulationSystem.OutputDisplayProvider" style="stroke: #A80036; stroke-width: 1.5;" width="223" x="7" y="7"/><ellipse cx="38.65" cy="27.0938" fill="#B4A7E5" rx="11" ry="11" style="stroke: #A80036; stroke-width: 1.0;"/><path d="M39.6031,23.7344 L39.6031,30.3906 L41.3219,30.3906 Q41.9313,30.3906 42.1969,30.625 Q42.4625,30.8594 42.4625,31.25 Q42.4625,31.625 42.1969,31.8594 Q41.9313,32.0938 41.3219,32.0938 L36.1813,32.0938 Q35.5719,32.0938 35.3063,31.8594 Q35.0406,31.625 35.0406,31.2344 Q35.0406,30.8594 35.3063,30.625 Q35.5719,30.3906 36.1813,30.3906 L37.9,30.3906 L37.9,23.7344 L36.1813,23.7344 Q35.5719,23.7344 35.3063,23.5 Q35.0406,23.2656 35.0406,22.875 Q35.0406,22.5 35.3063,22.2656 Q35.5719,22.0313 36.1813,22.0313 L41.3219,22.0313 Q41.9313,22.0313 42.1969,22.2656 Q42.4625,22.5 42.4625,22.875 Q42.4625,23.2656 42.1969,23.5 Q41.9313,23.7344 41.3219,23.7344 L39.6031,23.7344 Z "/><text fill="#000000" font-family="sans-serif" font-size="14" font-style="italic" lengthAdjust="spacingAndGlyphs" textLength="141" x="62.85" y="26.5332">OutputDisplayProvider</text><text fill="#000000" font-family="sans-serif" font-size="10" font-style="italic" lengthAdjust="spacingAndGlyphs" textLength="154" x="56.35" y="39.9902">RestaurantSim.SimulationSystem</text><line style="stroke: #A80036; stroke-width: 1.5;" x1="8" x2="229" y1="47.1875" y2="47.1875"/><ellipse cx="18" cy="58.1875" fill="#84BE84" rx="3" ry="3" style="stroke: #038048; stroke-width: 1.0;"/><text fill="#000000" font-family="sans-serif" font-size="11" font-style="italic" lengthAdjust="spacingAndGlyphs" textLength="153" x="27" y="62.6064">printDebug(String, String): void</text><ellipse cx="18" cy="72.0234" fill="#84BE84" rx="3" ry="3" style="stroke: #038048; stroke-width: 1.0;"/><text fill="#000000" font-family="sans-serif" font-size="11" font-style="italic" lengthAdjust="spacingAndGlyphs" textLength="118" x="27" y="76.4424">printDebug(String): void</text><ellipse cx="18" cy="85.8594" fill="#84BE84" rx="3" ry="3" style="stroke: #038048; stroke-width: 1.0;"/><text fill="#000000" font-family="sans-serif" font-size="11" font-style="italic" lengthAdjust="spacingAndGlyphs" textLength="120" x="27" y="90.2783">print(String, String): void</text><ellipse cx="18" cy="99.6953" fill="#84BE84" rx="3" ry="3" style="stroke: #038048; stroke-width: 1.0;"/><text fill="#000000" font-family="sans-serif" font-size="11" font-style="italic" lengthAdjust="spacingAndGlyphs" textLength="85" x="27" y="104.1143">print(String): void</text><ellipse cx="18" cy="113.5313" fill="#84BE84" rx="3" ry="3" style="stroke: #038048; stroke-width: 1.0;"/><text fill="#000000" font-family="sans-serif" font-size="11" font-style="italic" lengthAdjust="spacingAndGlyphs" textLength="170" x="27" y="117.9502">printRestaurantStatus(String): void</text><ellipse cx="18" cy="127.3672" fill="#84BE84" rx="3" ry="3" style="stroke: #038048; stroke-width: 1.0;"/><text fill="#000000" font-family="sans-serif" font-size="11" font-style="italic" lengthAdjust="spacingAndGlyphs" textLength="148" x="27" y="131.7861">printCooksStatus(String): void</text><ellipse cx="18" cy="141.2031" fill="#84BE84" rx="3" ry="3" style="stroke: #038048; stroke-width: 1.0;"/><text fill="#000000" font-family="sans-serif" font-size="11" font-style="italic" lengthAdjust="spacingAndGlyphs" textLength="197" x="27" y="145.6221">printTickableActionsStatus(String): void</text><ellipse cx="18" cy="155.0391" fill="#84BE84" rx="3" ry="3" style="stroke: #038048; stroke-width: 1.0;"/><text fill="#000000" font-family="sans-serif" font-size="11" font-style="italic" lengthAdjust="spacingAndGlyphs" textLength="61" x="27" y="159.458">close(): void</text><ellipse cx="18" cy="168.875" fill="#84BE84" rx="3" ry="3" style="stroke: #038048; stroke-width: 1.0;"/><text fill="#000000" font-family="sans-serif" font-size="11" font-style="italic" lengthAdjust="spacingAndGlyphs" textLength="102" x="27" y="173.2939">isOpened(): boolean</text></a><!--MD5=[34a988ed528a7a450159d75197007b17]
reverse link RestaurantSim.SimulationSystem.OutputDisplayProvider to RestaurantSim.SimulationSystem.LanternaDisplay--><path codeLine="29" d="M118.5,200.65 C118.5,213.82 118.5,227.15 118.5,239.95 " fill="none" id="RestaurantSim.SimulationSystem.OutputDisplayProvider-backto-RestaurantSim.SimulationSystem.LanternaDisplay" style="stroke: #A80036; stroke-width: 1.0; stroke-dasharray: 7.0,7.0;"/><polygon fill="none" points="111.5,200.19,118.5,180.19,125.5,200.19,111.5,200.19" style="stroke: #A80036; stroke-width: 1.0;"/><text fill="#888888" font-family="sans-serif" font-size="10" lengthAdjust="spacingAndGlyphs" textLength="190" x="20.5" y="436.0918">UMLDoclet 2.0.12, PlantUML 1.2020.16</text><!--MD5=[1fe3058b9ffb6ff6d0712b0d25e0f0f6]
@startuml
    set namespaceSeparator none
    hide empty fields
    hide empty methods

    class "<size:14>LanternaDisplay\n<size:10>RestaurantSim.SimulationSystem" as RestaurantSim.SimulationSystem.LanternaDisplay [[LanternaDisplay.html]] {
        +printDebug(String, String): void
        +printDebug(String): void
        +print(String, String): void
        +print(String): void
        +printRestaurantStatus(String): void
        +printCooksStatus(String): void
        +printTickableActionsStatus(String): void
        +close(): void
        +isOpened(): boolean
    }

    interface "<size:14>OutputDisplayProvider\n<size:10>RestaurantSim.SimulationSystem" as RestaurantSim.SimulationSystem.OutputDisplayProvider [[OutputDisplayProvider.html]] {
        {abstract} +printDebug(String, String): void
        {abstract} +printDebug(String): void
        {abstract} +print(String, String): void
        {abstract} +print(String): void
        {abstract} +printRestaurantStatus(String): void
        {abstract} +printCooksStatus(String): void
        {abstract} +printTickableActionsStatus(String): void
        {abstract} +close(): void
        {abstract} +isOpened(): boolean
    }

    RestaurantSim.SimulationSystem.OutputDisplayProvider <|.. RestaurantSim.SimulationSystem.LanternaDisplay

    center footer UMLDoclet 2.0.12, PlantUML 1.2020.16
@enduml

PlantUML version 1.2020.16(Sun Aug 23 22:20:43 CEST 2020)
(APACHE source distribution)
Java Runtime: OpenJDK Runtime Environment
JVM: OpenJDK 64-Bit Server VM
Default Encoding: Cp1250
Language: pl
Country: PL
--></g></svg>