<?xml version="1.0" encoding="UTF-8" standalone="no"?><svg xmlns="http://www.w3.org/2000/svg" xmlns:xlink="http://www.w3.org/1999/xlink" contentScriptType="application/ecmascript" contentStyleType="text/css" height="210px" preserveAspectRatio="none" style="width:249px;height:210px;" version="1.1" viewBox="0 0 249 210" width="249px" zoomAndPan="magnify"><defs><filter height="300%" id="f1qh9h02wvmy4k" width="300%" x="-1" y="-1"><feGaussianBlur result="blurOut" stdDeviation="2.0"/><feColorMatrix in="blurOut" result="blurOut2" type="matrix" values="0 0 0 0 0 0 0 0 0 0 0 0 0 0 0 0 0 0 .4 0"/><feOffset dx="4.0" dy="4.0" in="blurOut2" result="blurOut3"/><feBlend in="SourceGraphic" in2="blurOut3" mode="normal"/></filter></defs><g><!--MD5=[26778668d79a66db07e5435fc648f08d]
class RestaurantSim.SimulationSystem.OutputDisplayProvider--><a href="OutputDisplayProvider.html" target="_top" title="OutputDisplayProvider.html" xlink:actuate="onRequest" xlink:href="OutputDisplayProvider.html" xlink:show="new" xlink:title="OutputDisplayProvider.html" xlink:type="simple"><rect codeLine="5" fill="#FEFECE" filter="url(#f1qh9h02wvmy4k)" height="172.7109" id="RestaurantSim.SimulationSystem.OutputDisplayProvider" style="stroke: #A80036; stroke-width: 1.5;" width="223" x="7" y="7"/><ellipse cx="38.65" cy="27.0938" fill="#B4A7E5" rx="11" ry="11" style="stroke: #A80036; stroke-width: 1.0;"/><path d="M39.6031,23.7344 L39.6031,30.3906 L41.3219,30.3906 Q41.9313,30.3906 42.1969,30.625 Q42.4625,30.8594 42.4625,31.25 Q42.4625,31.625 42.1969,31.8594 Q41.9313,32.0938 41.3219,32.0938 L36.1813,32.0938 Q35.5719,32.0938 35.3063,31.8594 Q35.0406,31.625 35.0406,31.2344 Q35.0406,30.8594 35.3063,30.625 Q35.5719,30.3906 36.1813,30.3906 L37.9,30.3906 L37.9,23.7344 L36.1813,23.7344 Q35.5719,23.7344 35.3063,23.5 Q35.0406,23.2656 35.0406,22.875 Q35.0406,22.5 35.3063,22.2656 Q35.5719,22.0313 36.1813,22.0313 L41.3219,22.0313 Q41.9313,22.0313 42.1969,22.2656 Q42.4625,22.5 42.4625,22.875 Q42.4625,23.2656 42.1969,23.5 Q41.9313,23.7344 41.3219,23.7344 L39.6031,23.7344 Z "/><text fill="#000000" font-family="sans-serif" font-size="14" font-style="italic" lengthAdjust="spacingAndGlyphs" textLength="141" x="62.85" y="26.5332">OutputDisplayProvider</text><text fill="#000000" font-family="sans-serif" font-size="10" font-style="italic" lengthAdjust="spacingAndGlyphs" textLength="154" x="56.35" y="39.9902">RestaurantSim.SimulationSystem</text><line style="stroke: #A80036; stroke-width: 1.5;" x1="8" x2="229" y1="47.1875" y2="47.1875"/><ellipse cx="18" cy="58.1875" fill="#84BE84" rx="3" ry="3" style="stroke: #038048; stroke-width: 1.0;"/><text fill="#000000" font-family="sans-serif" font-size="11" font-style="italic" lengthAdjust="spacingAndGlyphs" textLength="153" x="27" y="62.6064">printDebug(String, String): void</text><ellipse cx="18" cy="72.0234" fill="#84BE84" rx="3" ry="3" style="stroke: #038048; stroke-width: 1.0;"/><text fill="#000000" font-family="sans-serif" font-size="11" font-style="italic" lengthAdjust="spacingAndGlyphs" textLength="118" x="27" y="76.4424">printDebug(String): void</text><ellipse cx="18" cy="85.8594" fill="#84BE84" rx="3" ry="3" style="stroke: #038048; stroke-width: 1.0;"/><text fill="#000000" font-family="sans-serif" font-size="11" font-style="italic" lengthAdjust="spacingAndGlyphs" textLength="120" x="27" y="90.2783">print(String, String): void</text><ellipse cx="18" cy="99.6953" fill="#84BE84" rx="3" ry="3" style="stroke: #038048; stroke-width: 1.0;"/><text fill="#000000" font-family="sans-serif" font-size="11" font-style="italic" lengthAdjust="spacingAndGlyphs" textLength="85" x="27" y="104.1143">print(String): void</text><ellipse cx="18" cy="113.5313" fill="#84BE84" rx="3" ry="3" style="stroke: #038048; stroke-width: 1.0;"/><text fill="#000000" font-family="sans-serif" font-size="11" font-style="italic" lengthAdjust="spacingAndGlyphs" textLength="170" x="27" y="117.9502">printRestaurantStatus(String): void</text><ellipse cx="18" cy="127.3672" fill="#84BE84" rx="3" ry="3" style="stroke: #038048; stroke-width: 1.0;"/><text fill="#000000" font-family="sans-serif" font-size="11" font-style="italic" lengthAdjust="spacingAndGlyphs" textLength="148" x="27" y="131.7861">printCooksStatus(String): void</text><ellipse cx="18" cy="141.2031" fill="#84BE84" rx="3" ry="3" style="stroke: #038048; stroke-width: 1.0;"/><text fill="#000000" font-family="sans-serif" font-size="11" font-style="italic" lengthAdjust="spacingAndGlyphs" textLength="197" x="27" y="145.6221">printTickableActionsStatus(String): void</text><ellipse cx="18" cy="155.0391" fill="#84BE84" rx="3" ry="3" style="stroke: #038048; stroke-width: 1.0;"/><text fill="#000000" font-family="sans-serif" font-size="11" font-style="italic" lengthAdjust="spacingAndGlyphs" textLength="61" x="27" y="159.458">close(): void</text><ellipse cx="18" cy="168.875" fill="#84BE84" rx="3" ry="3" style="stroke: #038048; stroke-width: 1.0;"/><text fill="#000000" font-family="sans-serif" font-size="11" font-style="italic" lengthAdjust="spacingAndGlyphs" textLength="102" x="27" y="173.2939">isOpened(): boolean</text></a><text fill="#888888" font-family="sans-serif" font-size="10" lengthAdjust="spacingAndGlyphs" textLength="190" x="23.5" y="197.0918">UMLDoclet 2.0.12, PlantUML 1.2020.16</text><!--MD5=[d73071c5b7c7a90fd51841423894afda]
@startuml
    set namespaceSeparator none
    hide empty fields
    hide empty methods

    interface "<size:14>OutputDisplayProvider\n<size:10>RestaurantSim.SimulationSystem" as RestaurantSim.SimulationSystem.OutputDisplayProvider [[OutputDisplayProvider.html]] {
        {abstract} +printDebug(String, String): void
        {abstract} +printDebug(String): void
        {abstract} +print(String, String): void
        {abstract} +print(String): void
        {abstract} +printRestaurantStatus(String): void
        {abstract} +printCooksStatus(String): void
        {abstract} +printTickableActionsStatus(String): void
        {abstract} +close(): void
        {abstract} +isOpened(): boolean
    }

    center footer UMLDoclet 2.0.12, PlantUML 1.2020.16
@enduml

PlantUML version 1.2020.16(Sun Aug 23 22:20:43 CEST 2020)
(APACHE source distribution)
Java Runtime: OpenJDK Runtime Environment
JVM: OpenJDK 64-Bit Server VM
Default Encoding: Cp1250
Language: pl
Country: PL
--></g></svg>