<?xml version="1.0" encoding="UTF-8" standalone="no"?><svg xmlns="http://www.w3.org/2000/svg" xmlns:xlink="http://www.w3.org/1999/xlink" contentScriptType="application/ecmascript" contentStyleType="text/css" height="404px" preserveAspectRatio="none" style="width:287px;height:404px;" version="1.1" viewBox="0 0 287 404" width="287px" zoomAndPan="magnify"><defs><filter height="300%" id="f1pdypsdhvo25k" width="300%" x="-1" y="-1"><feGaussianBlur result="blurOut" stdDeviation="2.0"/><feColorMatrix in="blurOut" result="blurOut2" type="matrix" values="0 0 0 0 0 0 0 0 0 0 0 0 0 0 0 0 0 0 .4 0"/><feOffset dx="4.0" dy="4.0" in="blurOut2" result="blurOut3"/><feBlend in="SourceGraphic" in2="blurOut3" mode="normal"/></filter></defs><g><!--MD5=[6a274ce1ce3279eb0e59df29074ff5d7]
class RestaurantSim.SimulationSystem.SimulationSettings--><a href="SimulationSettings.html" target="_top" title="SimulationSettings.html" xlink:actuate="onRequest" xlink:href="SimulationSettings.html" xlink:show="new" xlink:title="SimulationSettings.html" xlink:type="simple"><rect codeLine="5" fill="#FEFECE" filter="url(#f1pdypsdhvo25k)" height="366.4141" id="RestaurantSim.SimulationSystem.SimulationSettings" style="stroke: #A80036; stroke-width: 1.5;" width="261" x="7" y="7"/><ellipse cx="54.25" cy="27.0938" fill="#ADD1B2" rx="11" ry="11" style="stroke: #A80036; stroke-width: 1.0;"/><path d="M57.0156,22.9688 Q57.1719,22.75 57.3594,22.6406 Q57.5469,22.5313 57.7656,22.5313 Q58.1406,22.5313 58.375,22.7969 Q58.6094,23.0469 58.6094,23.6563 L58.6094,25.1094 Q58.6094,25.7188 58.375,25.9844 Q58.1406,26.25 57.7656,26.25 Q57.4219,26.25 57.2188,26.0469 Q57.0156,25.8594 56.9063,25.3438 Q56.8594,24.9844 56.6719,24.7969 Q56.3438,24.4219 55.7344,24.2031 Q55.125,23.9844 54.5,23.9844 Q53.7344,23.9844 53.0938,24.3125 Q52.4688,24.6406 51.9688,25.3906 Q51.4844,26.1406 51.4844,27.1719 L51.4844,28.2656 Q51.4844,29.5 52.375,30.3281 Q53.2656,31.1406 54.8594,31.1406 Q55.7969,31.1406 56.4531,30.8906 Q56.8438,30.7344 57.2656,30.2969 Q57.5313,30.0313 57.6719,29.9531 Q57.8281,29.875 58.0313,29.875 Q58.3594,29.875 58.6094,30.1406 Q58.875,30.3906 58.875,30.7344 Q58.875,31.0781 58.5313,31.4844 Q58.0313,32.0625 57.2344,32.3906 Q56.1563,32.8438 54.8594,32.8438 Q53.3438,32.8438 52.1406,32.2188 Q51.1563,31.7188 50.4688,30.6563 Q49.7813,29.5781 49.7813,28.2969 L49.7813,27.1406 Q49.7813,25.8125 50.3906,24.6719 Q51.0156,23.5156 52.1094,22.9063 Q53.2031,22.2813 54.4375,22.2813 Q55.1719,22.2813 55.8125,22.4531 Q56.4688,22.6094 57.0156,22.9688 Z "/><text fill="#000000" font-family="sans-serif" font-size="14" lengthAdjust="spacingAndGlyphs" textLength="116" x="95.75" y="26.5332">SimulationSettings</text><text fill="#000000" font-family="sans-serif" font-size="10" lengthAdjust="spacingAndGlyphs" textLength="158" x="74.75" y="39.9902">RestaurantSim.SimulationSystem</text><line style="stroke: #A80036; stroke-width: 1.5;" x1="8" x2="267" y1="47.1875" y2="47.1875"/><ellipse cx="18" cy="58.1875" fill="none" rx="3" ry="3" style="stroke: #038048; stroke-width: 1.0;"/><text fill="#000000" font-family="sans-serif" font-size="11" lengthAdjust="spacingAndGlyphs" textLength="73" x="27" y="62.6064">tickDuration: int</text><ellipse cx="18" cy="72.0234" fill="none" rx="3" ry="3" style="stroke: #038048; stroke-width: 1.0;"/><text fill="#000000" font-family="sans-serif" font-size="11" lengthAdjust="spacingAndGlyphs" textLength="150" x="27" y="76.4424">chanceToRateRestaurant: float</text><ellipse cx="18" cy="85.8594" fill="none" rx="3" ry="3" style="stroke: #038048; stroke-width: 1.0;"/><text fill="#000000" font-family="sans-serif" font-size="11" lengthAdjust="spacingAndGlyphs" textLength="201" x="27" y="90.2783">chanceToRateRestaurantImpatience: float</text><ellipse cx="18" cy="99.6953" fill="none" rx="3" ry="3" style="stroke: #038048; stroke-width: 1.0;"/><text fill="#000000" font-family="sans-serif" font-size="11" lengthAdjust="spacingAndGlyphs" textLength="104" x="27" y="104.1143">maxClientPatience: int</text><ellipse cx="18" cy="113.5313" fill="none" rx="3" ry="3" style="stroke: #038048; stroke-width: 1.0;"/><text fill="#000000" font-family="sans-serif" font-size="11" lengthAdjust="spacingAndGlyphs" textLength="100" x="27" y="117.9502">minClientPatience: int</text><ellipse cx="18" cy="127.3672" fill="none" rx="3" ry="3" style="stroke: #038048; stroke-width: 1.0;"/><text fill="#000000" font-family="sans-serif" font-size="11" lengthAdjust="spacingAndGlyphs" textLength="90" x="27" y="131.7861">maxCookAgility: int</text><ellipse cx="18" cy="141.2031" fill="none" rx="3" ry="3" style="stroke: #038048; stroke-width: 1.0;"/><text fill="#000000" font-family="sans-serif" font-size="11" lengthAdjust="spacingAndGlyphs" textLength="86" x="27" y="145.6221">minCookAgility: int</text><ellipse cx="18" cy="155.0391" fill="none" rx="3" ry="3" style="stroke: #038048; stroke-width: 1.0;"/><text fill="#000000" font-family="sans-serif" font-size="11" lengthAdjust="spacingAndGlyphs" textLength="79" x="27" y="159.458">maxCookSkill: int</text><ellipse cx="18" cy="168.875" fill="none" rx="3" ry="3" style="stroke: #038048; stroke-width: 1.0;"/><text fill="#000000" font-family="sans-serif" font-size="11" lengthAdjust="spacingAndGlyphs" textLength="75" x="27" y="173.2939">minCookSkill: int</text><ellipse cx="18" cy="182.7109" fill="none" rx="3" ry="3" style="stroke: #038048; stroke-width: 1.0;"/><text fill="#000000" font-family="sans-serif" font-size="11" lengthAdjust="spacingAndGlyphs" textLength="123" x="27" y="187.1299">maxTicksSpawnClient: int</text><ellipse cx="18" cy="196.5469" fill="none" rx="3" ry="3" style="stroke: #038048; stroke-width: 1.0;"/><text fill="#000000" font-family="sans-serif" font-size="11" lengthAdjust="spacingAndGlyphs" textLength="119" x="27" y="200.9658">minTicksSpawnClient: int</text><ellipse cx="18" cy="210.3828" fill="none" rx="3" ry="3" style="stroke: #038048; stroke-width: 1.0;"/><text fill="#000000" font-family="sans-serif" font-size="11" lengthAdjust="spacingAndGlyphs" textLength="184" x="27" y="214.8018">rateOnOrderNotPreparedOnTime: float</text><ellipse cx="18" cy="224.2188" fill="none" rx="3" ry="3" style="stroke: #038048; stroke-width: 1.0;"/><text fill="#000000" font-family="sans-serif" font-size="11" lengthAdjust="spacingAndGlyphs" textLength="95" x="27" y="228.6377">numberOfCooks: int</text><ellipse cx="18" cy="238.0547" fill="none" rx="3" ry="3" style="stroke: #038048; stroke-width: 1.0;"/><text fill="#000000" font-family="sans-serif" font-size="11" lengthAdjust="spacingAndGlyphs" textLength="155" x="27" y="242.4736">dishQualityWorsenChance: float</text><ellipse cx="18" cy="251.8906" fill="none" rx="3" ry="3" style="stroke: #038048; stroke-width: 1.0;"/><text fill="#000000" font-family="sans-serif" font-size="11" lengthAdjust="spacingAndGlyphs" textLength="155" x="27" y="256.3096">dishQualityImproveChance: float</text><ellipse cx="18" cy="265.7266" fill="none" rx="3" ry="3" style="stroke: #038048; stroke-width: 1.0;"/><text fill="#000000" font-family="sans-serif" font-size="11" lengthAdjust="spacingAndGlyphs" textLength="171" x="27" y="270.1455">dishQualitWorsenChangeRate: float</text><ellipse cx="18" cy="279.5625" fill="none" rx="3" ry="3" style="stroke: #038048; stroke-width: 1.0;"/><text fill="#000000" font-family="sans-serif" font-size="11" lengthAdjust="spacingAndGlyphs" textLength="177" x="27" y="283.9814">dishQualityImproveChangeRate: float</text><ellipse cx="18" cy="293.3984" fill="none" rx="3" ry="3" style="stroke: #038048; stroke-width: 1.0;"/><text fill="#000000" font-family="sans-serif" font-size="11" lengthAdjust="spacingAndGlyphs" textLength="235" x="27" y="297.8174">sanepidRestaurantRateBasedCloseChance: float</text><ellipse cx="18" cy="307.2344" fill="none" rx="3" ry="3" style="stroke: #038048; stroke-width: 1.0;"/><text fill="#000000" font-family="sans-serif" font-size="11" lengthAdjust="spacingAndGlyphs" textLength="177" x="27" y="311.6533">restaruantRatesCheckFrequency: int</text><ellipse cx="18" cy="321.0703" fill="none" rx="3" ry="3" style="stroke: #038048; stroke-width: 1.0;"/><text fill="#000000" font-family="sans-serif" font-size="11" lengthAdjust="spacingAndGlyphs" textLength="126" x="27" y="325.4893">sanepidEvaluationTime: int</text><ellipse cx="18" cy="334.9063" fill="none" rx="3" ry="3" style="stroke: #038048; stroke-width: 1.0;"/><text fill="#000000" font-family="sans-serif" font-size="11" lengthAdjust="spacingAndGlyphs" textLength="178" x="27" y="339.3252">restaurantStartProtectionDuration: int</text><ellipse cx="18" cy="348.7422" fill="none" rx="3" ry="3" style="stroke: #038048; stroke-width: 1.0;"/><text fill="#000000" font-family="sans-serif" font-size="11" lengthAdjust="spacingAndGlyphs" textLength="191" x="27" y="353.1611">customerChanceToMakeOwnDish: float</text><ellipse cx="18" cy="362.5781" fill="none" rx="3" ry="3" style="stroke: #038048; stroke-width: 1.0;"/><text fill="#000000" font-family="sans-serif" font-size="11" lengthAdjust="spacingAndGlyphs" textLength="188" x="27" y="366.9971">customerChanceToAddIngredient: float</text></a><text fill="#888888" font-family="sans-serif" font-size="10" lengthAdjust="spacingAndGlyphs" textLength="190" x="42.5" y="390.7949">UMLDoclet 2.0.12, PlantUML 1.2020.16</text><!--MD5=[248dbd295527cc2bf6a55b061e67efed]
@startuml
    set namespaceSeparator none
    hide empty fields
    hide empty methods

    class "<size:14>SimulationSettings\n<size:10>RestaurantSim.SimulationSystem" as RestaurantSim.SimulationSystem.SimulationSettings [[SimulationSettings.html]] {
        +tickDuration: int
        +chanceToRateRestaurant: float
        +chanceToRateRestaurantImpatience: float
        +maxClientPatience: int
        +minClientPatience: int
        +maxCookAgility: int
        +minCookAgility: int
        +maxCookSkill: int
        +minCookSkill: int
        +maxTicksSpawnClient: int
        +minTicksSpawnClient: int
        +rateOnOrderNotPreparedOnTime: float
        +numberOfCooks: int
        +dishQualityWorsenChance: float
        +dishQualityImproveChance: float
        +dishQualitWorsenChangeRate: float
        +dishQualityImproveChangeRate: float
        +sanepidRestaurantRateBasedCloseChance: float
        +restaruantRatesCheckFrequency: int
        +sanepidEvaluationTime: int
        +restaurantStartProtectionDuration: int
        +customerChanceToMakeOwnDish: float
        +customerChanceToAddIngredient: float
    }

    center footer UMLDoclet 2.0.12, PlantUML 1.2020.16
@enduml

PlantUML version 1.2020.16(Sun Aug 23 22:20:43 CEST 2020)
(APACHE source distribution)
Java Runtime: OpenJDK Runtime Environment
JVM: OpenJDK 64-Bit Server VM
Default Encoding: Cp1250
Language: pl
Country: PL
--></g></svg>