<?xml version="1.0" encoding="UTF-8" standalone="no"?><svg xmlns="http://www.w3.org/2000/svg" xmlns:xlink="http://www.w3.org/1999/xlink" contentScriptType="application/ecmascript" contentStyleType="text/css" height="163px" preserveAspectRatio="none" style="width:236px;height:163px;" version="1.1" viewBox="0 0 236 163" width="236px" zoomAndPan="magnify"><defs><filter height="300%" id="fu10w26jm1s6h" width="300%" x="-1" y="-1"><feGaussianBlur result="blurOut" stdDeviation="2.0"/><feColorMatrix in="blurOut" result="blurOut2" type="matrix" values="0 0 0 0 0 0 0 0 0 0 0 0 0 0 0 0 0 0 .4 0"/><feOffset dx="4.0" dy="4.0" in="blurOut2" result="blurOut3"/><feBlend in="SourceGraphic" in2="blurOut3" mode="normal"/></filter></defs><g><!--MD5=[715f876eb6fbb44cbda9c01ebb82594e]
class RestaurantSim.SimulationSystem.SimulationData--><a href="SimulationData.html" target="_top" title="SimulationData.html" xlink:actuate="onRequest" xlink:href="SimulationData.html" xlink:show="new" xlink:title="SimulationData.html" xlink:type="simple"><rect codeLine="5" fill="#FEFECE" filter="url(#fu10w26jm1s6h)" height="125.3672" id="RestaurantSim.SimulationSystem.SimulationData" style="stroke: #A80036; stroke-width: 1.5;" width="210" x="7" y="7"/><ellipse cx="31" cy="27.0938" fill="#ADD1B2" rx="11" ry="11" style="stroke: #A80036; stroke-width: 1.0;"/><path d="M33.7656,22.9688 Q33.9219,22.75 34.1094,22.6406 Q34.2969,22.5313 34.5156,22.5313 Q34.8906,22.5313 35.125,22.7969 Q35.3594,23.0469 35.3594,23.6563 L35.3594,25.1094 Q35.3594,25.7188 35.125,25.9844 Q34.8906,26.25 34.5156,26.25 Q34.1719,26.25 33.9688,26.0469 Q33.7656,25.8594 33.6563,25.3438 Q33.6094,24.9844 33.4219,24.7969 Q33.0938,24.4219 32.4844,24.2031 Q31.875,23.9844 31.25,23.9844 Q30.4844,23.9844 29.8438,24.3125 Q29.2188,24.6406 28.7188,25.3906 Q28.2344,26.1406 28.2344,27.1719 L28.2344,28.2656 Q28.2344,29.5 29.125,30.3281 Q30.0156,31.1406 31.6094,31.1406 Q32.5469,31.1406 33.2031,30.8906 Q33.5938,30.7344 34.0156,30.2969 Q34.2813,30.0313 34.4219,29.9531 Q34.5781,29.875 34.7813,29.875 Q35.1094,29.875 35.3594,30.1406 Q35.625,30.3906 35.625,30.7344 Q35.625,31.0781 35.2813,31.4844 Q34.7813,32.0625 33.9844,32.3906 Q32.9063,32.8438 31.6094,32.8438 Q30.0938,32.8438 28.8906,32.2188 Q27.9063,31.7188 27.2188,30.6563 Q26.5313,29.5781 26.5313,28.2969 L26.5313,27.1406 Q26.5313,25.8125 27.1406,24.6719 Q27.7656,23.5156 28.8594,22.9063 Q29.9531,22.2813 31.1875,22.2813 Q31.9219,22.2813 32.5625,22.4531 Q33.2188,22.6094 33.7656,22.9688 Z "/><text fill="#000000" font-family="sans-serif" font-size="14" lengthAdjust="spacingAndGlyphs" textLength="95" x="78.5" y="26.5332">SimulationData</text><text fill="#000000" font-family="sans-serif" font-size="10" lengthAdjust="spacingAndGlyphs" textLength="158" x="47" y="39.9902">RestaurantSim.SimulationSystem</text><line style="stroke: #A80036; stroke-width: 1.5;" x1="8" x2="216" y1="47.1875" y2="47.1875"/><ellipse cx="18" cy="58.1875" fill="none" rx="3" ry="3" style="stroke: #038048; stroke-width: 1.0;"/><text fill="#000000" font-family="sans-serif" font-size="11" lengthAdjust="spacingAndGlyphs" textLength="114" x="27" y="62.6064">peopleData: PeopleData</text><ellipse cx="18" cy="72.0234" fill="none" rx="3" ry="3" style="stroke: #038048; stroke-width: 1.0;"/><text fill="#000000" font-family="sans-serif" font-size="11" lengthAdjust="spacingAndGlyphs" textLength="96" x="27" y="76.4424">foodData: FoodData</text><line style="stroke: #A80036; stroke-width: 1.5;" x1="8" x2="216" y1="82.8594" y2="82.8594"/><ellipse cx="18" cy="93.8594" fill="#84BE84" rx="3" ry="3" style="stroke: #038048; stroke-width: 1.0;"/><text fill="#000000" font-family="sans-serif" font-size="11" lengthAdjust="spacingAndGlyphs" textLength="184" x="27" y="98.2783">SimulationData(PeopleData, FoodData)</text><ellipse cx="18" cy="107.6953" fill="#84BE84" rx="3" ry="3" style="stroke: #038048; stroke-width: 1.0;"/><text fill="#000000" font-family="sans-serif" font-size="11" lengthAdjust="spacingAndGlyphs" textLength="137" x="27" y="112.1143">getPeopleData(): PeopleData</text><ellipse cx="18" cy="121.5313" fill="#84BE84" rx="3" ry="3" style="stroke: #038048; stroke-width: 1.0;"/><text fill="#000000" font-family="sans-serif" font-size="11" lengthAdjust="spacingAndGlyphs" textLength="121" x="27" y="125.9502">getFoodData(): FoodData</text></a><text fill="#888888" font-family="sans-serif" font-size="10" lengthAdjust="spacingAndGlyphs" textLength="190" x="17" y="149.748">UMLDoclet 2.0.12, PlantUML 1.2020.16</text><!--MD5=[7fdd8c8e5f3bef308b97f16457a2577c]
@startuml
    set namespaceSeparator none
    hide empty fields
    hide empty methods

    class "<size:14>SimulationData\n<size:10>RestaurantSim.SimulationSystem" as RestaurantSim.SimulationSystem.SimulationData [[SimulationData.html]] {
        +peopleData: PeopleData
        +foodData: FoodData
        +SimulationData(PeopleData, FoodData)
        +getPeopleData(): PeopleData
        +getFoodData(): FoodData
    }

    center footer UMLDoclet 2.0.12, PlantUML 1.2020.16
@enduml

PlantUML version 1.2020.16(Sun Aug 23 22:20:43 CEST 2020)
(APACHE source distribution)
Java Runtime: OpenJDK Runtime Environment
JVM: OpenJDK 64-Bit Server VM
Default Encoding: Cp1250
Language: pl
Country: PL
--></g></svg>