<?xml version="1.0" encoding="UTF-8" standalone="no"?><svg xmlns="http://www.w3.org/2000/svg" xmlns:xlink="http://www.w3.org/1999/xlink" contentScriptType="application/ecmascript" contentStyleType="text/css" height="196px" preserveAspectRatio="none" style="width:255px;height:196px;" version="1.1" viewBox="0 0 255 196" width="255px" zoomAndPan="magnify"><defs><filter height="300%" id="f1snftf7j3vpsu" width="300%" x="-1" y="-1"><feGaussianBlur result="blurOut" stdDeviation="2.0"/><feColorMatrix in="blurOut" result="blurOut2" type="matrix" values="0 0 0 0 0 0 0 0 0 0 0 0 0 0 0 0 0 0 .4 0"/><feOffset dx="4.0" dy="4.0" in="blurOut2" result="blurOut3"/><feBlend in="SourceGraphic" in2="blurOut3" mode="normal"/></filter></defs><g><!--MD5=[70cde5418e52191657152625c0d4b7ca]
class RestaurantSim.SimulationSystem.SimulationUtilities--><a href="SimulationUtilities.html" target="_top" title="SimulationUtilities.html" xlink:actuate="onRequest" xlink:href="SimulationUtilities.html" xlink:show="new" xlink:title="SimulationUtilities.html" xlink:type="simple"><rect codeLine="5" fill="#FEFECE" filter="url(#f1snftf7j3vpsu)" height="158.875" id="RestaurantSim.SimulationSystem.SimulationUtilities" style="stroke: #A80036; stroke-width: 1.5;" width="229" x="7" y="7"/><ellipse cx="39.55" cy="27.0938" fill="#ADD1B2" rx="11" ry="11" style="stroke: #A80036; stroke-width: 1.0;"/><path d="M42.3156,22.9688 Q42.4719,22.75 42.6594,22.6406 Q42.8469,22.5313 43.0656,22.5313 Q43.4406,22.5313 43.675,22.7969 Q43.9094,23.0469 43.9094,23.6563 L43.9094,25.1094 Q43.9094,25.7188 43.675,25.9844 Q43.4406,26.25 43.0656,26.25 Q42.7219,26.25 42.5188,26.0469 Q42.3156,25.8594 42.2063,25.3438 Q42.1594,24.9844 41.9719,24.7969 Q41.6438,24.4219 41.0344,24.2031 Q40.425,23.9844 39.8,23.9844 Q39.0344,23.9844 38.3938,24.3125 Q37.7688,24.6406 37.2688,25.3906 Q36.7844,26.1406 36.7844,27.1719 L36.7844,28.2656 Q36.7844,29.5 37.675,30.3281 Q38.5656,31.1406 40.1594,31.1406 Q41.0969,31.1406 41.7531,30.8906 Q42.1438,30.7344 42.5656,30.2969 Q42.8313,30.0313 42.9719,29.9531 Q43.1281,29.875 43.3313,29.875 Q43.6594,29.875 43.9094,30.1406 Q44.175,30.3906 44.175,30.7344 Q44.175,31.0781 43.8313,31.4844 Q43.3313,32.0625 42.5344,32.3906 Q41.4563,32.8438 40.1594,32.8438 Q38.6438,32.8438 37.4406,32.2188 Q36.4563,31.7188 35.7688,30.6563 Q35.0813,29.5781 35.0813,28.2969 L35.0813,27.1406 Q35.0813,25.8125 35.6906,24.6719 Q36.3156,23.5156 37.4094,22.9063 Q38.5031,22.2813 39.7375,22.2813 Q40.4719,22.2813 41.1125,22.4531 Q41.7688,22.6094 42.3156,22.9688 Z "/><text fill="#000000" font-family="sans-serif" font-size="14" lengthAdjust="spacingAndGlyphs" textLength="109" x="81.95" y="26.5332">SimulationUtilities</text><text fill="#000000" font-family="sans-serif" font-size="10" lengthAdjust="spacingAndGlyphs" textLength="158" x="57.45" y="39.9902">RestaurantSim.SimulationSystem</text><line style="stroke: #A80036; stroke-width: 1.5;" x1="8" x2="235" y1="47.1875" y2="47.1875"/><ellipse cx="18" cy="58.1875" fill="#84BE84" rx="3" ry="3" style="stroke: #038048; stroke-width: 1.0;"/><text fill="#000000" font-family="sans-serif" font-size="11" lengthAdjust="spacingAndGlyphs" text-decoration="underline" textLength="163" x="27" y="62.6064">getRandomInt(int, int, Random): int</text><ellipse cx="18" cy="72.0234" fill="#84BE84" rx="3" ry="3" style="stroke: #038048; stroke-width: 1.0;"/><text fill="#000000" font-family="sans-serif" font-size="11" lengthAdjust="spacingAndGlyphs" text-decoration="underline" textLength="118" x="27" y="76.4424">getRandomInt(int, int): int</text><ellipse cx="18" cy="85.8594" fill="#84BE84" rx="3" ry="3" style="stroke: #038048; stroke-width: 1.0;"/><text fill="#000000" font-family="sans-serif" font-size="11" lengthAdjust="spacingAndGlyphs" text-decoration="underline" textLength="146" x="27" y="90.2783">getRandomInt(int, Random): int</text><ellipse cx="18" cy="99.6953" fill="#84BE84" rx="3" ry="3" style="stroke: #038048; stroke-width: 1.0;"/><text fill="#000000" font-family="sans-serif" font-size="11" lengthAdjust="spacingAndGlyphs" text-decoration="underline" textLength="101" x="27" y="104.1143">getRandomInt(int): int</text><ellipse cx="18" cy="113.5313" fill="#84BE84" rx="3" ry="3" style="stroke: #038048; stroke-width: 1.0;"/><text fill="#000000" font-family="sans-serif" font-size="11" lengthAdjust="spacingAndGlyphs" text-decoration="underline" textLength="151" x="27" y="117.9502">getRandomFloat(Random): float</text><ellipse cx="18" cy="127.3672" fill="#84BE84" rx="3" ry="3" style="stroke: #038048; stroke-width: 1.0;"/><text fill="#000000" font-family="sans-serif" font-size="11" lengthAdjust="spacingAndGlyphs" text-decoration="underline" textLength="112" x="27" y="131.7861">getRandomFloat(): float</text><ellipse cx="18" cy="141.2031" fill="#84BE84" rx="3" ry="3" style="stroke: #038048; stroke-width: 1.0;"/><text fill="#000000" font-family="sans-serif" font-size="11" lengthAdjust="spacingAndGlyphs" text-decoration="underline" textLength="203" x="27" y="145.6221">isGoingToHappen(float, Random): boolean</text><ellipse cx="18" cy="155.0391" fill="#84BE84" rx="3" ry="3" style="stroke: #038048; stroke-width: 1.0;"/><text fill="#000000" font-family="sans-serif" font-size="11" lengthAdjust="spacingAndGlyphs" text-decoration="underline" textLength="158" x="27" y="159.458">isGoingToHappen(float): boolean</text></a><text fill="#888888" font-family="sans-serif" font-size="10" lengthAdjust="spacingAndGlyphs" textLength="190" x="26.5" y="183.2559">UMLDoclet 2.0.12, PlantUML 1.2020.16</text><!--MD5=[8d03c16875e60fb4a5324b9fc992d937]
@startuml
    set namespaceSeparator none
    hide empty fields
    hide empty methods

    class "<size:14>SimulationUtilities\n<size:10>RestaurantSim.SimulationSystem" as RestaurantSim.SimulationSystem.SimulationUtilities [[SimulationUtilities.html]] {
        {static} +getRandomInt(int, int, Random): int
        {static} +getRandomInt(int, int): int
        {static} +getRandomInt(int, Random): int
        {static} +getRandomInt(int): int
        {static} +getRandomFloat(Random): float
        {static} +getRandomFloat(): float
        {static} +isGoingToHappen(float, Random): boolean
        {static} +isGoingToHappen(float): boolean
    }

    center footer UMLDoclet 2.0.12, PlantUML 1.2020.16
@enduml

PlantUML version 1.2020.16(Sun Aug 23 22:20:43 CEST 2020)
(APACHE source distribution)
Java Runtime: OpenJDK Runtime Environment
JVM: OpenJDK 64-Bit Server VM
Default Encoding: Cp1250
Language: pl
Country: PL
--></g></svg>