<?xml version="1.0" encoding="UTF-8" standalone="no"?><svg xmlns="http://www.w3.org/2000/svg" xmlns:xlink="http://www.w3.org/1999/xlink" contentScriptType="application/ecmascript" contentStyleType="text/css" height="279px" preserveAspectRatio="none" style="width:384px;height:279px;" version="1.1" viewBox="0 0 384 279" width="384px" zoomAndPan="magnify"><defs><filter height="300%" id="fp7f477dmt0ux" width="300%" x="-1" y="-1"><feGaussianBlur result="blurOut" stdDeviation="2.0"/><feColorMatrix in="blurOut" result="blurOut2" type="matrix" values="0 0 0 0 0 0 0 0 0 0 0 0 0 0 0 0 0 0 .4 0"/><feOffset dx="4.0" dy="4.0" in="blurOut2" result="blurOut3"/><feBlend in="SourceGraphic" in2="blurOut3" mode="normal"/></filter></defs><g><!--MD5=[c515b9fe1ef86509d9e88e71d1ed75ee]
class RestaurantSim.SimulationSystem.Simulation--><a href="Simulation.html" target="_top" title="Simulation.html" xlink:actuate="onRequest" xlink:href="Simulation.html" xlink:show="new" xlink:title="Simulation.html" xlink:type="simple"><rect codeLine="5" fill="#FEFECE" filter="url(#fp7f477dmt0ux)" height="241.8906" id="RestaurantSim.SimulationSystem.Simulation" style="stroke: #A80036; stroke-width: 1.5;" width="358" x="7" y="7"/><ellipse cx="102.75" cy="27.0938" fill="#ADD1B2" rx="11" ry="11" style="stroke: #A80036; stroke-width: 1.0;"/><path d="M105.5156,22.9688 Q105.6719,22.75 105.8594,22.6406 Q106.0469,22.5313 106.2656,22.5313 Q106.6406,22.5313 106.875,22.7969 Q107.1094,23.0469 107.1094,23.6563 L107.1094,25.1094 Q107.1094,25.7188 106.875,25.9844 Q106.6406,26.25 106.2656,26.25 Q105.9219,26.25 105.7188,26.0469 Q105.5156,25.8594 105.4063,25.3438 Q105.3594,24.9844 105.1719,24.7969 Q104.8438,24.4219 104.2344,24.2031 Q103.625,23.9844 103,23.9844 Q102.2344,23.9844 101.5938,24.3125 Q100.9688,24.6406 100.4688,25.3906 Q99.9844,26.1406 99.9844,27.1719 L99.9844,28.2656 Q99.9844,29.5 100.875,30.3281 Q101.7656,31.1406 103.3594,31.1406 Q104.2969,31.1406 104.9531,30.8906 Q105.3438,30.7344 105.7656,30.2969 Q106.0313,30.0313 106.1719,29.9531 Q106.3281,29.875 106.5313,29.875 Q106.8594,29.875 107.1094,30.1406 Q107.375,30.3906 107.375,30.7344 Q107.375,31.0781 107.0313,31.4844 Q106.5313,32.0625 105.7344,32.3906 Q104.6563,32.8438 103.3594,32.8438 Q101.8438,32.8438 100.6406,32.2188 Q99.6563,31.7188 98.9688,30.6563 Q98.2813,29.5781 98.2813,28.2969 L98.2813,27.1406 Q98.2813,25.8125 98.8906,24.6719 Q99.5156,23.5156 100.6094,22.9063 Q101.7031,22.2813 102.9375,22.2813 Q103.6719,22.2813 104.3125,22.4531 Q104.9688,22.6094 105.5156,22.9688 Z "/><text fill="#000000" font-family="sans-serif" font-size="14" lengthAdjust="spacingAndGlyphs" textLength="65" x="169.75" y="26.5332">Simulation</text><text fill="#000000" font-family="sans-serif" font-size="10" lengthAdjust="spacingAndGlyphs" textLength="158" x="123.25" y="39.9902">RestaurantSim.SimulationSystem</text><line style="stroke: #A80036; stroke-width: 1.5;" x1="8" x2="364" y1="47.1875" y2="47.1875"/><ellipse cx="18" cy="58.1875" fill="#84BE84" rx="3" ry="3" style="stroke: #038048; stroke-width: 1.0;"/><text fill="#000000" font-family="sans-serif" font-size="11" lengthAdjust="spacingAndGlyphs" textLength="332" x="27" y="62.6064">Simulation(SimulationSettings, SimulationData, OutputDisplayProvider)</text><ellipse cx="18" cy="72.0234" fill="#84BE84" rx="3" ry="3" style="stroke: #038048; stroke-width: 1.0;"/><text fill="#000000" font-family="sans-serif" font-size="11" lengthAdjust="spacingAndGlyphs" textLength="56" x="27" y="76.4424">start(): void</text><ellipse cx="18" cy="85.8594" fill="#84BE84" rx="3" ry="3" style="stroke: #038048; stroke-width: 1.0;"/><text fill="#000000" font-family="sans-serif" font-size="11" lengthAdjust="spacingAndGlyphs" textLength="55" x="27" y="90.2783">stop(): void</text><ellipse cx="18" cy="99.6953" fill="#84BE84" rx="3" ry="3" style="stroke: #038048; stroke-width: 1.0;"/><text fill="#000000" font-family="sans-serif" font-size="11" lengthAdjust="spacingAndGlyphs" text-decoration="underline" textLength="118" x="27" y="104.1143">getInstance(): Simulation</text><ellipse cx="18" cy="113.5313" fill="#84BE84" rx="3" ry="3" style="stroke: #038048; stroke-width: 1.0;"/><text fill="#000000" font-family="sans-serif" font-size="11" lengthAdjust="spacingAndGlyphs" textLength="155" x="27" y="117.9502">getSettings(): SimulationSettings</text><ellipse cx="18" cy="127.3672" fill="#84BE84" rx="3" ry="3" style="stroke: #038048; stroke-width: 1.0;"/><text fill="#000000" font-family="sans-serif" font-size="11" lengthAdjust="spacingAndGlyphs" textLength="169" x="27" y="131.7861">getSimulationData(): SimulationData</text><ellipse cx="18" cy="141.2031" fill="#84BE84" rx="3" ry="3" style="stroke: #038048; stroke-width: 1.0;"/><text fill="#000000" font-family="sans-serif" font-size="11" lengthAdjust="spacingAndGlyphs" textLength="168" x="27" y="145.6221">getOutput(): OutputDisplayProvider</text><ellipse cx="18" cy="155.0391" fill="#84BE84" rx="3" ry="3" style="stroke: #038048; stroke-width: 1.0;"/><text fill="#000000" font-family="sans-serif" font-size="11" lengthAdjust="spacingAndGlyphs" textLength="148" x="27" y="159.458">printDebug(String, String): void</text><ellipse cx="18" cy="168.875" fill="#84BE84" rx="3" ry="3" style="stroke: #038048; stroke-width: 1.0;"/><text fill="#000000" font-family="sans-serif" font-size="11" lengthAdjust="spacingAndGlyphs" textLength="114" x="27" y="173.2939">printDebug(String): void</text><ellipse cx="18" cy="182.7109" fill="#84BE84" rx="3" ry="3" style="stroke: #038048; stroke-width: 1.0;"/><text fill="#000000" font-family="sans-serif" font-size="11" lengthAdjust="spacingAndGlyphs" textLength="117" x="27" y="187.1299">print(String, String): void</text><ellipse cx="18" cy="196.5469" fill="#84BE84" rx="3" ry="3" style="stroke: #038048; stroke-width: 1.0;"/><text fill="#000000" font-family="sans-serif" font-size="11" lengthAdjust="spacingAndGlyphs" textLength="83" x="27" y="200.9658">print(String): void</text><ellipse cx="18" cy="210.3828" fill="#84BE84" rx="3" ry="3" style="stroke: #038048; stroke-width: 1.0;"/><text fill="#000000" font-family="sans-serif" font-size="11" lengthAdjust="spacingAndGlyphs" textLength="179" x="27" y="214.8018">printToRestaurantStatus(String): void</text><ellipse cx="18" cy="224.2188" fill="#84BE84" rx="3" ry="3" style="stroke: #038048; stroke-width: 1.0;"/><text fill="#000000" font-family="sans-serif" font-size="11" lengthAdjust="spacingAndGlyphs" textLength="156" x="27" y="228.6377">printToCooksStatus(String): void</text><ellipse cx="18" cy="238.0547" fill="#84BE84" rx="3" ry="3" style="stroke: #038048; stroke-width: 1.0;"/><text fill="#000000" font-family="sans-serif" font-size="11" lengthAdjust="spacingAndGlyphs" textLength="202" x="27" y="242.4736">printToTickableActionsStatus(String): void</text></a><text fill="#888888" font-family="sans-serif" font-size="10" lengthAdjust="spacingAndGlyphs" textLength="190" x="91" y="266.2715">UMLDoclet 2.0.12, PlantUML 1.2020.16</text><!--MD5=[f837638dc60689fe25d0f120ad500508]
@startuml
    set namespaceSeparator none
    hide empty fields
    hide empty methods

    class "<size:14>Simulation\n<size:10>RestaurantSim.SimulationSystem" as RestaurantSim.SimulationSystem.Simulation [[Simulation.html]] {
        +Simulation(SimulationSettings, SimulationData, OutputDisplayProvider)
        +start(): void
        +stop(): void
        {static} +getInstance(): Simulation
        +getSettings(): SimulationSettings
        +getSimulationData(): SimulationData
        +getOutput(): OutputDisplayProvider
        +printDebug(String, String): void
        +printDebug(String): void
        +print(String, String): void
        +print(String): void
        +printToRestaurantStatus(String): void
        +printToCooksStatus(String): void
        +printToTickableActionsStatus(String): void
    }

    center footer UMLDoclet 2.0.12, PlantUML 1.2020.16
@enduml

PlantUML version 1.2020.16(Sun Aug 23 22:20:43 CEST 2020)
(APACHE source distribution)
Java Runtime: OpenJDK Runtime Environment
JVM: OpenJDK 64-Bit Server VM
Default Encoding: Cp1250
Language: pl
Country: PL
--></g></svg>