<?xml version="1.0" encoding="UTF-8" standalone="no"?><svg xmlns="http://www.w3.org/2000/svg" xmlns:xlink="http://www.w3.org/1999/xlink" contentScriptType="application/ecmascript" contentStyleType="text/css" height="321px" preserveAspectRatio="none" style="width:323px;height:321px;" version="1.1" viewBox="0 0 323 321" width="323px" zoomAndPan="magnify"><defs><filter height="300%" id="f1ed9755vfkxkb" width="300%" x="-1" y="-1"><feGaussianBlur result="blurOut" stdDeviation="2.0"/><feColorMatrix in="blurOut" result="blurOut2" type="matrix" values="0 0 0 0 0 0 0 0 0 0 0 0 0 0 0 0 0 0 .4 0"/><feOffset dx="4.0" dy="4.0" in="blurOut2" result="blurOut3"/><feBlend in="SourceGraphic" in2="blurOut3" mode="normal"/></filter></defs><g><!--MD5=[82e2c7a7f4a7c2ecd4affbc8c26a1d62]
class RestaurantSim.SimulationSystem.TickableAction--><a href="TickableAction.html" target="_top" title="TickableAction.html" xlink:actuate="onRequest" xlink:href="TickableAction.html" xlink:show="new" xlink:title="TickableAction.html" xlink:type="simple"><rect codeLine="5" fill="#FEFECE" filter="url(#f1ed9755vfkxkb)" height="283.3984" id="RestaurantSim.SimulationSystem.TickableAction" style="stroke: #A80036; stroke-width: 1.5;" width="297" x="7" y="7"/><ellipse cx="72.25" cy="27.0938" fill="#ADD1B2" rx="11" ry="11" style="stroke: #A80036; stroke-width: 1.0;"/><path d="M75.0156,22.9688 Q75.1719,22.75 75.3594,22.6406 Q75.5469,22.5313 75.7656,22.5313 Q76.1406,22.5313 76.375,22.7969 Q76.6094,23.0469 76.6094,23.6563 L76.6094,25.1094 Q76.6094,25.7188 76.375,25.9844 Q76.1406,26.25 75.7656,26.25 Q75.4219,26.25 75.2188,26.0469 Q75.0156,25.8594 74.9063,25.3438 Q74.8594,24.9844 74.6719,24.7969 Q74.3438,24.4219 73.7344,24.2031 Q73.125,23.9844 72.5,23.9844 Q71.7344,23.9844 71.0938,24.3125 Q70.4688,24.6406 69.9688,25.3906 Q69.4844,26.1406 69.4844,27.1719 L69.4844,28.2656 Q69.4844,29.5 70.375,30.3281 Q71.2656,31.1406 72.8594,31.1406 Q73.7969,31.1406 74.4531,30.8906 Q74.8438,30.7344 75.2656,30.2969 Q75.5313,30.0313 75.6719,29.9531 Q75.8281,29.875 76.0313,29.875 Q76.3594,29.875 76.6094,30.1406 Q76.875,30.3906 76.875,30.7344 Q76.875,31.0781 76.5313,31.4844 Q76.0313,32.0625 75.2344,32.3906 Q74.1563,32.8438 72.8594,32.8438 Q71.3438,32.8438 70.1406,32.2188 Q69.1563,31.7188 68.4688,30.6563 Q67.7813,29.5781 67.7813,28.2969 L67.7813,27.1406 Q67.7813,25.8125 68.3906,24.6719 Q69.0156,23.5156 70.1094,22.9063 Q71.2031,22.2813 72.4375,22.2813 Q73.1719,22.2813 73.8125,22.4531 Q74.4688,22.6094 75.0156,22.9688 Z "/><text fill="#000000" font-family="sans-serif" font-size="14" lengthAdjust="spacingAndGlyphs" textLength="92" x="125.75" y="26.5332">TickableAction</text><text fill="#000000" font-family="sans-serif" font-size="10" lengthAdjust="spacingAndGlyphs" textLength="158" x="92.75" y="39.9902">RestaurantSim.SimulationSystem</text><line style="stroke: #A80036; stroke-width: 1.5;" x1="8" x2="303" y1="47.1875" y2="47.1875"/><ellipse cx="18" cy="58.1875" fill="#84BE84" rx="3" ry="3" style="stroke: #038048; stroke-width: 1.0;"/><text fill="#000000" font-family="sans-serif" font-size="11" lengthAdjust="spacingAndGlyphs" textLength="167" x="27" y="62.6064">TickableAction(String, int, boolean)</text><ellipse cx="18" cy="72.0234" fill="#84BE84" rx="3" ry="3" style="stroke: #038048; stroke-width: 1.0;"/><text fill="#000000" font-family="sans-serif" font-size="11" lengthAdjust="spacingAndGlyphs" textLength="123" x="27" y="76.4424">TickableAction(String, int)</text><ellipse cx="18" cy="85.8594" fill="#84BE84" rx="3" ry="3" style="stroke: #038048; stroke-width: 1.0;"/><text fill="#000000" font-family="sans-serif" font-size="11" lengthAdjust="spacingAndGlyphs" textLength="89" x="27" y="90.2783">TickableAction(int)</text><ellipse cx="18" cy="99.6953" fill="#84BE84" rx="3" ry="3" style="stroke: #038048; stroke-width: 1.0;"/><text fill="#000000" font-family="sans-serif" font-size="11" lengthAdjust="spacingAndGlyphs" textLength="133" x="27" y="104.1143">TickableAction(int, boolean)</text><ellipse cx="18" cy="113.5313" fill="#84BE84" rx="3" ry="3" style="stroke: #038048; stroke-width: 1.0;"/><text fill="#000000" font-family="sans-serif" font-size="11" lengthAdjust="spacingAndGlyphs" textLength="111" x="27" y="117.9502">getDescription(): String</text><ellipse cx="18" cy="127.3672" fill="#84BE84" rx="3" ry="3" style="stroke: #038048; stroke-width: 1.0;"/><text fill="#000000" font-family="sans-serif" font-size="11" lengthAdjust="spacingAndGlyphs" textLength="80" x="27" y="131.7861">getDuration(): int</text><ellipse cx="18" cy="141.2031" fill="#84BE84" rx="3" ry="3" style="stroke: #038048; stroke-width: 1.0;"/><text fill="#000000" font-family="sans-serif" font-size="11" lengthAdjust="spacingAndGlyphs" textLength="121" x="27" y="145.6221">getTicksToComplete(): int</text><ellipse cx="18" cy="155.0391" fill="#84BE84" rx="3" ry="3" style="stroke: #038048; stroke-width: 1.0;"/><text fill="#000000" font-family="sans-serif" font-size="11" lengthAdjust="spacingAndGlyphs" textLength="141" x="27" y="159.458">setTicksToComplete(int): void</text><ellipse cx="18" cy="168.875" fill="#84BE84" rx="3" ry="3" style="stroke: #038048; stroke-width: 1.0;"/><text fill="#000000" font-family="sans-serif" font-size="11" lengthAdjust="spacingAndGlyphs" textLength="110" x="27" y="173.2939">decrementTicks(): void</text><ellipse cx="18" cy="182.7109" fill="#84BE84" rx="3" ry="3" style="stroke: #038048; stroke-width: 1.0;"/><text fill="#000000" font-family="sans-serif" font-size="11" lengthAdjust="spacingAndGlyphs" textLength="124" x="27" y="187.1299">isToBeAborted(): boolean</text><ellipse cx="18" cy="196.5469" fill="#84BE84" rx="3" ry="3" style="stroke: #038048; stroke-width: 1.0;"/><text fill="#000000" font-family="sans-serif" font-size="11" lengthAdjust="spacingAndGlyphs" textLength="59" x="27" y="200.9658">abort(): void</text><ellipse cx="18" cy="210.3828" fill="#84BE84" rx="3" ry="3" style="stroke: #038048; stroke-width: 1.0;"/><text fill="#000000" font-family="sans-serif" font-size="11" lengthAdjust="spacingAndGlyphs" textLength="155" x="27" y="214.8018">executeOnFinishCallback(): void</text><ellipse cx="18" cy="224.2188" fill="#84BE84" rx="3" ry="3" style="stroke: #038048; stroke-width: 1.0;"/><text fill="#000000" font-family="sans-serif" font-size="11" lengthAdjust="spacingAndGlyphs" textLength="161" x="27" y="228.6377">executeOnUpdateCallback(): void</text><ellipse cx="18" cy="238.0547" fill="#84BE84" rx="3" ry="3" style="stroke: #038048; stroke-width: 1.0;"/><text fill="#000000" font-family="sans-serif" font-size="11" lengthAdjust="spacingAndGlyphs" textLength="114" x="27" y="242.4736">isRepeatable(): boolean</text><ellipse cx="18" cy="251.8906" fill="#84BE84" rx="3" ry="3" style="stroke: #038048; stroke-width: 1.0;"/><text fill="#000000" font-family="sans-serif" font-size="11" lengthAdjust="spacingAndGlyphs" textLength="141" x="27" y="256.3096">setRepeatable(boolean): void</text><ellipse cx="18" cy="265.7266" fill="#84BE84" rx="3" ry="3" style="stroke: #038048; stroke-width: 1.0;"/><text fill="#000000" font-family="sans-serif" font-size="11" lengthAdjust="spacingAndGlyphs" textLength="271" x="27" y="270.1455">setOnFinishCallback(ITickableActionFinishCallback): void</text><ellipse cx="18" cy="279.5625" fill="#84BE84" rx="3" ry="3" style="stroke: #038048; stroke-width: 1.0;"/><text fill="#000000" font-family="sans-serif" font-size="11" lengthAdjust="spacingAndGlyphs" textLength="253" x="27" y="283.9814">setOnTickCallback(ITickableActionTickCallback): void</text></a><text fill="#888888" font-family="sans-serif" font-size="10" lengthAdjust="spacingAndGlyphs" textLength="190" x="60.5" y="307.7793">UMLDoclet 2.0.12, PlantUML 1.2020.16</text><!--MD5=[4691f4a13339b46a90ced2af612b10cd]
@startuml
    set namespaceSeparator none
    hide empty fields
    hide empty methods

    class "<size:14>TickableAction\n<size:10>RestaurantSim.SimulationSystem" as RestaurantSim.SimulationSystem.TickableAction [[TickableAction.html]] {
        +TickableAction(String, int, boolean)
        +TickableAction(String, int)
        +TickableAction(int)
        +TickableAction(int, boolean)
        +getDescription(): String
        +getDuration(): int
        +getTicksToComplete(): int
        +setTicksToComplete(int): void
        +decrementTicks(): void
        +isToBeAborted(): boolean
        +abort(): void
        +executeOnFinishCallback(): void
        +executeOnUpdateCallback(): void
        +isRepeatable(): boolean
        +setRepeatable(boolean): void
        +setOnFinishCallback(ITickableActionFinishCallback): void
        +setOnTickCallback(ITickableActionTickCallback): void
    }

    center footer UMLDoclet 2.0.12, PlantUML 1.2020.16
@enduml

PlantUML version 1.2020.16(Sun Aug 23 22:20:43 CEST 2020)
(APACHE source distribution)
Java Runtime: OpenJDK Runtime Environment
JVM: OpenJDK 64-Bit Server VM
Default Encoding: Cp1250
Language: pl
Country: PL
--></g></svg>