<?xml version="1.0" encoding="UTF-8" standalone="no"?><svg xmlns="http://www.w3.org/2000/svg" xmlns:xlink="http://www.w3.org/1999/xlink" contentScriptType="application/ecmascript" contentStyleType="text/css" height="551px" preserveAspectRatio="none" style="width:468px;height:551px;background:#FFFFFF;" version="1.1" viewBox="0 0 468 551" width="468px" zoomAndPan="magnify"><defs><filter height="300%" id="fu0octorwex4b" width="300%" x="-1" y="-1"><feGaussianBlur result="blurOut" stdDeviation="2.0"/><feColorMatrix in="blurOut" result="blurOut2" type="matrix" values="0 0 0 0 0 0 0 0 0 0 0 0 0 0 0 0 0 0 .4 0"/><feOffset dx="4.0" dy="4.0" in="blurOut2" result="blurOut3"/><feBlend in="SourceGraphic" in2="blurOut3" mode="normal"/></filter></defs><g><text fill="#000000" font-family="sans-serif" font-size="18" lengthAdjust="spacing" textLength="166" x="150.25" y="28.6855">Creation of customer</text><ellipse cx="236.5" cy="42.6406" fill="#000000" filter="url(#fu0octorwex4b)" rx="10" ry="10" style="stroke:none;stroke-width:1.0;"/><rect fill="#FFFF00" filter="url(#fu0octorwex4b)" height="35.0938" rx="12.5" ry="12.5" style="stroke:#A80036;stroke-width:1.5;" width="127" x="173" y="72.6406"/><text fill="#000000" font-family="sans-serif" font-size="12" lengthAdjust="spacing" textLength="107" x="183" y="95.0977">SimulationManager</text><rect fill="#FEFECE" filter="url(#fu0octorwex4b)" height="80.375" rx="12.5" ry="12.5" style="stroke:#A80036;stroke-width:1.5;" width="388" x="42.5" y="171.7344"/><text fill="#000000" font-family="sans-serif" font-size="12" lengthAdjust="spacing" textLength="133" x="52.5" y="194.1914">Generate TickableAction</text><text fill="#000000" font-family="sans-serif" font-size="12" lengthAdjust="spacing" textLength="201" x="52.5" y="209.2852">At finish -&gt; spawn random Customer</text><text fill="#000000" font-family="sans-serif" font-size="12" lengthAdjust="spacing" textLength="216" x="52.5" y="224.3789">After = random amount of ticks between</text><text fill="#000000" font-family="sans-serif" font-size="12" lengthAdjust="spacing" textLength="365" x="52.5" y="239.4727">Settings.minTicksSpawnClient and Settings.maxTicksSpawnClient</text><polygon fill="#FEFECE" filter="url(#fu0octorwex4b)" points="140.5,272.1094,332.5,272.1094,344.5,284.1094,332.5,296.1094,140.5,296.1094,128.5,284.1094,140.5,272.1094" style="stroke:#A80036;stroke-width:1.5;"/><text fill="#000000" font-family="sans-serif" font-size="11" lengthAdjust="spacing" textLength="192" x="140.5" y="288.6104">spawningCustomerAction.leftTicks &lt;= 0</text><rect fill="#FEFECE" filter="url(#fu0octorwex4b)" height="35.0938" rx="12.5" ry="12.5" style="stroke:#A80036;stroke-width:1.5;" width="138" x="49.5" y="306.1094"/><text fill="#000000" font-family="sans-serif" font-size="12" lengthAdjust="spacing" textLength="118" x="59.5" y="328.5664">Create new customer</text><rect fill="#FEFECE" filter="url(#fu0octorwex4b)" height="35.0938" rx="12.5" ry="12.5" style="stroke:#A80036;stroke-width:1.5;" width="215" x="11" y="361.2031"/><text fill="#000000" font-family="sans-serif" font-size="12" lengthAdjust="spacing" textLength="195" x="21" y="383.6602">Add customer to restaurant's queue</text><rect fill="#FEFECE" filter="url(#fu0octorwex4b)" height="35.0938" rx="12.5" ry="12.5" style="stroke:#A80036;stroke-width:1.5;" width="46" x="331.5" y="306.1094"/><text fill="#000000" font-family="sans-serif" font-size="12" lengthAdjust="spacing" textLength="26" x="341.5" y="328.5664">tick()</text><polygon fill="#FEFECE" filter="url(#fu0octorwex4b)" points="236.5,402.2969,248.5,414.2969,236.5,426.2969,224.5,414.2969,236.5,402.2969" style="stroke:#A80036;stroke-width:1.5;"/><polygon fill="#FEFECE" filter="url(#fu0octorwex4b)" points="236.5,127.7344,248.5,139.7344,236.5,151.7344,224.5,139.7344,236.5,127.7344" style="stroke:#A80036;stroke-width:1.5;"/><polygon fill="#FEFECE" filter="url(#fu0octorwex4b)" points="195.5,446.2969,277.5,446.2969,289.5,458.2969,277.5,470.2969,195.5,470.2969,183.5,458.2969,195.5,446.2969" style="stroke:#A80036;stroke-width:1.5;"/><text fill="#000000" font-family="sans-serif" font-size="11" lengthAdjust="spacing" textLength="82" x="195.5" y="462.7979">restaurantOpen?</text><text fill="#000000" font-family="sans-serif" font-size="11" lengthAdjust="spacing" textLength="18" x="289.5" y="455.8799">yes</text><ellipse cx="236.5" cy="523.5498" fill="#FFFFFF" filter="url(#fu0octorwex4b)" rx="11" ry="11" style="stroke:#000000;stroke-width:1.0;"/><ellipse cx="236.5" cy="523.5498" fill="#000000" rx="6" ry="6" style="stroke:#7F7F7F;stroke-width:1.0;"/><line style="stroke:#A80036;stroke-width:1.5;" x1="236.5" x2="236.5" y1="52.6406" y2="72.6406"/><polygon fill="#A80036" points="232.5,62.6406,236.5,72.6406,240.5,62.6406,236.5,66.6406" style="stroke:#A80036;stroke-width:1.0;"/><line style="stroke:#A80036;stroke-width:1.5;" x1="118.5" x2="118.5" y1="341.2031" y2="361.2031"/><polygon fill="#A80036" points="114.5,351.2031,118.5,361.2031,122.5,351.2031,118.5,355.2031" style="stroke:#A80036;stroke-width:1.0;"/><line style="stroke:#A80036;stroke-width:1.5;" x1="128.5" x2="118.5" y1="284.1094" y2="284.1094"/><line style="stroke:#A80036;stroke-width:1.5;" x1="118.5" x2="118.5" y1="284.1094" y2="306.1094"/><polygon fill="#A80036" points="114.5,296.1094,118.5,306.1094,122.5,296.1094,118.5,300.1094" style="stroke:#A80036;stroke-width:1.0;"/><line style="stroke:#A80036;stroke-width:1.5;" x1="344.5" x2="354.5" y1="284.1094" y2="284.1094"/><line style="stroke:#A80036;stroke-width:1.5;" x1="354.5" x2="354.5" y1="284.1094" y2="306.1094"/><polygon fill="#A80036" points="350.5,296.1094,354.5,306.1094,358.5,296.1094,354.5,300.1094" style="stroke:#A80036;stroke-width:1.0;"/><line style="stroke:#A80036;stroke-width:1.5;" x1="118.5" x2="118.5" y1="396.2969" y2="414.2969"/><line style="stroke:#A80036;stroke-width:1.5;" x1="118.5" x2="224.5" y1="414.2969" y2="414.2969"/><polygon fill="#A80036" points="214.5,410.2969,224.5,414.2969,214.5,418.2969,218.5,414.2969" style="stroke:#A80036;stroke-width:1.0;"/><line style="stroke:#A80036;stroke-width:1.5;" x1="354.5" x2="354.5" y1="341.2031" y2="414.2969"/><line style="stroke:#A80036;stroke-width:1.5;" x1="354.5" x2="248.5" y1="414.2969" y2="414.2969"/><polygon fill="#A80036" points="258.5,410.2969,248.5,414.2969,258.5,418.2969,254.5,414.2969" style="stroke:#A80036;stroke-width:1.0;"/><line style="stroke:#A80036;stroke-width:1.5;" x1="236.5" x2="236.5" y1="252.1094" y2="272.1094"/><polygon fill="#A80036" points="232.5,262.1094,236.5,272.1094,240.5,262.1094,236.5,266.1094" style="stroke:#A80036;stroke-width:1.0;"/><line style="stroke:#A80036;stroke-width:1.5;" x1="236.5" x2="236.5" y1="151.7344" y2="171.7344"/><polygon fill="#A80036" points="232.5,161.7344,236.5,171.7344,240.5,161.7344,236.5,165.7344" style="stroke:#A80036;stroke-width:1.0;"/><line style="stroke:#A80036;stroke-width:1.5;" x1="289.5" x2="442.5" y1="458.2969" y2="458.2969"/><polygon fill="#A80036" points="438.5,309.0156,442.5,299.0156,446.5,309.0156,442.5,305.0156" style="stroke:#A80036;stroke-width:1.5;"/><line style="stroke:#A80036;stroke-width:1.5;" x1="442.5" x2="442.5" y1="139.7344" y2="458.2969"/><line style="stroke:#A80036;stroke-width:1.5;" x1="442.5" x2="248.5" y1="139.7344" y2="139.7344"/><polygon fill="#A80036" points="258.5,135.7344,248.5,139.7344,258.5,143.7344,254.5,139.7344" style="stroke:#A80036;stroke-width:1.0;"/><line style="stroke:#A80036;stroke-width:1.5;" x1="236.5" x2="236.5" y1="426.2969" y2="446.2969"/><polygon fill="#A80036" points="232.5,436.2969,236.5,446.2969,240.5,436.2969,236.5,440.2969" style="stroke:#A80036;stroke-width:1.0;"/><line style="stroke:#A80036;stroke-width:1.5;" x1="236.5" x2="236.5" y1="107.7344" y2="127.7344"/><polygon fill="#A80036" points="232.5,117.7344,236.5,127.7344,240.5,117.7344,236.5,121.7344" style="stroke:#A80036;stroke-width:1.0;"/><line style="stroke:#A80036;stroke-width:1.5;" x1="236.5" x2="236.5" y1="470.2969" y2="512.5498"/><polygon fill="#A80036" points="232.5,502.5498,236.5,512.5498,240.5,502.5498,236.5,506.5498" style="stroke:#A80036;stroke-width:1.0;"/><text fill="#000000" font-family="sans-serif" font-size="11" lengthAdjust="spacing" textLength="12" x="240.5" y="492.6328">no</text><!--MD5=[23a5cf9e0bb00f421ee61f965c7e8acd]
@startuml
title Creation of customer
start
#yellow:SimulationManager;
repeat
  :Generate TickableAction
  At finish -> spawn random Customer
  After = random amount of ticks between
  Settings.minTicksSpawnClient and Settings.maxTicksSpawnClient ;
  if (spawningCustomerAction.leftTicks <= 0) then
    :Create new customer;
    :Add customer to restaurant's queue;
  else
    :tick();
  endif
repeat while (restaurantOpen?) is (yes)
->no;
stop

@enduml

PlantUML version 1.2021.7(Sun May 23 14:40:07 CEST 2021)
(GPL source distribution)
Java Runtime: OpenJDK Runtime Environment
JVM: Dynamic Code Evolution 64-Bit Server VM
Default Encoding: Cp1250
Language: pl
Country: PL
--></g></svg>