<?xml version="1.0" encoding="UTF-8" standalone="no"?><svg xmlns="http://www.w3.org/2000/svg" xmlns:xlink="http://www.w3.org/1999/xlink" contentScriptType="application/ecmascript" contentStyleType="text/css" height="618px" preserveAspectRatio="none" style="width:293px;height:618px;background:#FFFFFF;" version="1.1" viewBox="0 0 293 618" width="293px" zoomAndPan="magnify"><defs><filter height="300%" id="fqvgcihmb5tk5" width="300%" x="-1" y="-1"><feGaussianBlur result="blurOut" stdDeviation="2.0"/><feColorMatrix in="blurOut" result="blurOut2" type="matrix" values="0 0 0 0 0 0 0 0 0 0 0 0 0 0 0 0 0 0 .4 0"/><feOffset dx="4.0" dy="4.0" in="blurOut2" result="blurOut3"/><feBlend in="SourceGraphic" in2="blurOut3" mode="normal"/></filter></defs><g><text fill="#000000" font-family="sans-serif" font-size="18" lengthAdjust="spacing" textLength="141" x="75" y="28.6855">Simulation overall</text><ellipse cx="133" cy="42.6406" fill="#000000" filter="url(#fqvgcihmb5tk5)" rx="10" ry="10" style="stroke:none;stroke-width:1.0;"/><rect fill="#FEFECE" filter="url(#fqvgcihmb5tk5)" height="35.0938" rx="12.5" ry="12.5" style="stroke:#A80036;stroke-width:1.5;" width="68" x="99" y="72.6406"/><text fill="#000000" font-family="sans-serif" font-size="12" lengthAdjust="spacing" textLength="48" x="109" y="95.0977">Program</text><rect fill="#FEFECE" filter="url(#fqvgcihmb5tk5)" height="35.0938" rx="12.5" ry="12.5" style="stroke:#A80036;stroke-width:1.5;" width="79" x="93.5" y="127.7344"/><text fill="#000000" font-family="sans-serif" font-size="12" lengthAdjust="spacing" textLength="59" x="103.5" y="150.1914">Simulation</text><rect fill="#FFFF00" filter="url(#fqvgcihmb5tk5)" height="35.0938" rx="12.5" ry="12.5" style="stroke:#A80036;stroke-width:1.5;" width="127" x="69.5" y="182.8281"/><text fill="#000000" font-family="sans-serif" font-size="12" lengthAdjust="spacing" textLength="107" x="79.5" y="205.2852">SimulationManager</text><rect fill="#FEFECE" filter="url(#fqvgcihmb5tk5)" height="35.0938" rx="12.5" ry="12.5" style="stroke:#A80036;stroke-width:1.5;" width="104" x="81" y="237.9219"/><text fill="#000000" font-family="sans-serif" font-size="12" lengthAdjust="spacing" textLength="84" x="91" y="260.3789">StartSimulation</text><rect fill="#FEFECE" filter="url(#fqvgcihmb5tk5)" height="35.0938" rx="12.5" ry="12.5" style="stroke:#A80036;stroke-width:1.5;" width="42" x="112" y="348.1094"/><text fill="#000000" font-family="sans-serif" font-size="12" lengthAdjust="spacing" textLength="22" x="122" y="370.5664">Tick</text><rect fill="#FEFECE" filter="url(#fqvgcihmb5tk5)" height="35.0938" rx="12.5" ry="12.5" style="stroke:#A80036;stroke-width:1.5;" width="241" x="12.5" y="403.2031"/><text fill="#000000" font-family="sans-serif" font-size="12" lengthAdjust="spacing" textLength="221" x="22.5" y="425.6602">Spawn new customers from time to time</text><rect fill="#FEFECE" filter="url(#fqvgcihmb5tk5)" height="35.0938" rx="12.5" ry="12.5" style="stroke:#A80036;stroke-width:1.5;" width="244" x="11" y="458.2969"/><text fill="#000000" font-family="sans-serif" font-size="12" lengthAdjust="spacing" textLength="224" x="21" y="480.7539">Spawn sanepid objects from time to time</text><rect fill="#FEFECE" filter="url(#fqvgcihmb5tk5)" height="35.0938" rx="12.5" ry="12.5" style="stroke:#A80036;stroke-width:1.5;" width="102" x="82" y="293.0156"/><text fill="#000000" font-family="sans-serif" font-size="12" lengthAdjust="spacing" textLength="82" x="92" y="315.4727">RunSimulation</text><polygon fill="#FEFECE" filter="url(#fqvgcihmb5tk5)" points="92,513.3906,174,513.3906,186,525.3906,174,537.3906,92,537.3906,80,525.3906,92,513.3906" style="stroke:#A80036;stroke-width:1.5;"/><text fill="#000000" font-family="sans-serif" font-size="11" lengthAdjust="spacing" textLength="82" x="92" y="529.8916">restaurantOpen?</text><text fill="#000000" font-family="sans-serif" font-size="11" lengthAdjust="spacing" textLength="18" x="186" y="522.9736">yes</text><ellipse cx="133" cy="590.6436" fill="#FFFFFF" filter="url(#fqvgcihmb5tk5)" rx="11" ry="11" style="stroke:#000000;stroke-width:1.0;"/><ellipse cx="133" cy="590.6436" fill="#000000" rx="6" ry="6" style="stroke:#7F7F7F;stroke-width:1.0;"/><line style="stroke:#A80036;stroke-width:1.5;" x1="133" x2="133" y1="52.6406" y2="72.6406"/><polygon fill="#A80036" points="129,62.6406,133,72.6406,137,62.6406,133,66.6406" style="stroke:#A80036;stroke-width:1.0;"/><line style="stroke:#A80036;stroke-width:1.5;" x1="133" x2="133" y1="107.7344" y2="127.7344"/><polygon fill="#A80036" points="129,117.7344,133,127.7344,137,117.7344,133,121.7344" style="stroke:#A80036;stroke-width:1.0;"/><line style="stroke:#A80036;stroke-width:1.5;" x1="133" x2="133" y1="162.8281" y2="182.8281"/><polygon fill="#A80036" points="129,172.8281,133,182.8281,137,172.8281,133,176.8281" style="stroke:#A80036;stroke-width:1.0;"/><line style="stroke:#A80036;stroke-width:1.5;" x1="133" x2="133" y1="217.9219" y2="237.9219"/><polygon fill="#A80036" points="129,227.9219,133,237.9219,137,227.9219,133,231.9219" style="stroke:#A80036;stroke-width:1.0;"/><line style="stroke:#A80036;stroke-width:1.5;" x1="133" x2="133" y1="383.2031" y2="403.2031"/><polygon fill="#A80036" points="129,393.2031,133,403.2031,137,393.2031,133,397.2031" style="stroke:#A80036;stroke-width:1.0;"/><line style="stroke:#A80036;stroke-width:1.5;" x1="133" x2="133" y1="438.2969" y2="458.2969"/><polygon fill="#A80036" points="129,448.2969,133,458.2969,137,448.2969,133,452.2969" style="stroke:#A80036;stroke-width:1.0;"/><line style="stroke:#A80036;stroke-width:1.5;" x1="133" x2="133" y1="328.1094" y2="348.1094"/><polygon fill="#A80036" points="129,338.1094,133,348.1094,137,338.1094,133,342.1094" style="stroke:#A80036;stroke-width:1.0;"/><line style="stroke:#A80036;stroke-width:1.5;" x1="186" x2="267" y1="525.3906" y2="525.3906"/><polygon fill="#A80036" points="263,427.9766,267,417.9766,271,427.9766,267,423.9766" style="stroke:#A80036;stroke-width:1.5;"/><line style="stroke:#A80036;stroke-width:1.5;" x1="267" x2="267" y1="310.5625" y2="525.3906"/><line style="stroke:#A80036;stroke-width:1.5;" x1="267" x2="184" y1="310.5625" y2="310.5625"/><polygon fill="#A80036" points="194,306.5625,184,310.5625,194,314.5625,190,310.5625" style="stroke:#A80036;stroke-width:1.0;"/><line style="stroke:#A80036;stroke-width:1.5;" x1="133" x2="133" y1="493.3906" y2="513.3906"/><polygon fill="#A80036" points="129,503.3906,133,513.3906,137,503.3906,133,507.3906" style="stroke:#A80036;stroke-width:1.0;"/><line style="stroke:#A80036;stroke-width:1.5;" x1="133" x2="133" y1="273.0156" y2="293.0156"/><polygon fill="#A80036" points="129,283.0156,133,293.0156,137,283.0156,133,287.0156" style="stroke:#A80036;stroke-width:1.0;"/><line style="stroke:#A80036;stroke-width:1.5;" x1="133" x2="133" y1="537.3906" y2="579.6436"/><polygon fill="#A80036" points="129,569.6436,133,579.6436,137,569.6436,133,573.6436" style="stroke:#A80036;stroke-width:1.0;"/><text fill="#000000" font-family="sans-serif" font-size="11" lengthAdjust="spacing" textLength="12" x="137" y="559.7266">no</text><!--MD5=[4d4092e7ad872ddb8be68479c080596e]
@startuml
title Simulation overall
start
:Program;
:Simulation;
#yellow:SimulationManager;
:StartSimulation;
repeat :RunSimulation;
  :Tick;
  :Spawn new customers from time to time;
  :Spawn sanepid objects from time to time;
repeat while (restaurantOpen?) is (yes)
->no;
stop
@enduml

PlantUML version 1.2021.7(Sun May 23 14:40:07 CEST 2021)
(GPL source distribution)
Java Runtime: OpenJDK Runtime Environment
JVM: Dynamic Code Evolution 64-Bit Server VM
Default Encoding: Cp1250
Language: pl
Country: PL
--></g></svg>