<?xml version="1.0" encoding="UTF-8" standalone="no"?><svg xmlns="http://www.w3.org/2000/svg" xmlns:xlink="http://www.w3.org/1999/xlink" contentScriptType="application/ecmascript" contentStyleType="text/css" height="556px" preserveAspectRatio="none" style="width:605px;height:556px;background:#FFFFFF;" version="1.1" viewBox="0 0 605 556" width="605px" zoomAndPan="magnify"><defs><filter height="300%" id="f3f6vo92s7nx7" width="300%" x="-1" y="-1"><feGaussianBlur result="blurOut" stdDeviation="2.0"/><feColorMatrix in="blurOut" result="blurOut2" type="matrix" values="0 0 0 0 0 0 0 0 0 0 0 0 0 0 0 0 0 0 .4 0"/><feOffset dx="4.0" dy="4.0" in="blurOut2" result="blurOut3"/><feBlend in="SourceGraphic" in2="blurOut3" mode="normal"/></filter></defs><g><text fill="#000000" font-family="sans-serif" font-size="18" lengthAdjust="spacing" textLength="355" x="123.25" y="30.6855">Interaction between Sanepid and Restaurant</text><rect fill="#FFFFFF" filter="url(#f3f6vo92s7nx7)" height="400.0547" style="stroke:#000000;stroke-width:2.0;" width="581.5" x="10" y="95.25"/><rect fill="#FFFFFF" filter="url(#f3f6vo92s7nx7)" height="94.8906" style="stroke:#000000;stroke-width:2.0;" width="258" x="323.5" y="181.3047"/><rect fill="#FFFFFF" height="46.1875" style="stroke:none;stroke-width:1.0;" width="258" x="323.5" y="230.0078"/><rect fill="#FFFFFF" filter="url(#f3f6vo92s7nx7)" height="167.7578" style="stroke:#000000;stroke-width:2.0;" width="411.5" x="20" y="320.5469"/><rect fill="#FFFFFF" height="75.7031" style="stroke:none;stroke-width:1.0;" width="411.5" x="20" y="412.6016"/><line style="stroke:#A80036;stroke-width:1.0;stroke-dasharray:5.0,5.0;" x1="99" x2="99" y1="78.25" y2="512.3047"/><line style="stroke:#A80036;stroke-width:1.0;stroke-dasharray:5.0,5.0;" x1="377.5" x2="377.5" y1="78.25" y2="512.3047"/><line style="stroke:#A80036;stroke-width:1.0;stroke-dasharray:5.0,5.0;" x1="536.5" x2="536.5" y1="78.25" y2="512.3047"/><rect fill="#FEFECE" filter="url(#f3f6vo92s7nx7)" height="31.6094" style="stroke:#A80036;stroke-width:1.5;" width="135" x="30" y="41.6406"/><text fill="#000000" font-family="sans-serif" font-size="14" lengthAdjust="spacing" textLength="121" x="37" y="63.1738">SimulationManager</text><rect fill="#FEFECE" filter="url(#f3f6vo92s7nx7)" height="31.6094" style="stroke:#A80036;stroke-width:1.5;" width="135" x="30" y="511.3047"/><text fill="#000000" font-family="sans-serif" font-size="14" lengthAdjust="spacing" textLength="121" x="37" y="532.8379">SimulationManager</text><rect fill="#FEFECE" filter="url(#f3f6vo92s7nx7)" height="31.6094" style="stroke:#A80036;stroke-width:1.5;" width="84" x="333.5" y="41.6406"/><text fill="#000000" font-family="sans-serif" font-size="14" lengthAdjust="spacing" textLength="70" x="340.5" y="63.1738">Restaurant</text><rect fill="#FEFECE" filter="url(#f3f6vo92s7nx7)" height="31.6094" style="stroke:#A80036;stroke-width:1.5;" width="84" x="333.5" y="511.3047"/><text fill="#000000" font-family="sans-serif" font-size="14" lengthAdjust="spacing" textLength="70" x="340.5" y="532.8379">Restaurant</text><rect fill="#FEFECE" filter="url(#f3f6vo92s7nx7)" height="31.6094" style="stroke:#A80036;stroke-width:1.5;" width="66" x="501.5" y="41.6406"/><text fill="#000000" font-family="sans-serif" font-size="14" lengthAdjust="spacing" textLength="52" x="508.5" y="63.1738">Sanepid</text><rect fill="#FEFECE" filter="url(#f3f6vo92s7nx7)" height="31.6094" style="stroke:#A80036;stroke-width:1.5;" width="66" x="501.5" y="511.3047"/><text fill="#000000" font-family="sans-serif" font-size="14" lengthAdjust="spacing" textLength="52" x="508.5" y="532.8379">Sanepid</text><path d="M10,95.25 L71,95.25 L71,103.25 L61,113.25 L10,113.25 L10,95.25 " fill="#EEEEEE" style="stroke:#000000;stroke-width:1.0;"/><rect fill="none" height="400.0547" style="stroke:#000000;stroke-width:2.0;" width="581.5" x="10" y="95.25"/><text fill="#000000" font-family="sans-serif" font-size="13" font-weight="bold" lengthAdjust="spacing" textLength="16" x="25" y="109.7451">alt</text><text fill="#000000" font-family="sans-serif" font-size="11" font-weight="bold" lengthAdjust="spacing" textLength="192" x="86" y="108.6689">[Average of restaurant rates is &lt; 3]</text><polygon fill="#A80036" points="365.5,131.9531,375.5,135.9531,365.5,139.9531,369.5,135.9531" style="stroke:#A80036;stroke-width:1.0;"/><line style="stroke:#A80036;stroke-width:1.0;" x1="99.5" x2="371.5" y1="135.9531" y2="135.9531"/><text fill="#000000" font-family="sans-serif" font-size="13" lengthAdjust="spacing" textLength="254" x="106.5" y="131.0967">Create Sanepid guest and add him to queue</text><polygon fill="#A80036" points="524.5,162.3047,534.5,166.3047,524.5,170.3047,528.5,166.3047" style="stroke:#A80036;stroke-width:1.0;"/><line style="stroke:#A80036;stroke-width:1.0;" x1="377.5" x2="530.5" y1="166.3047" y2="166.3047"/><text fill="#000000" font-family="sans-serif" font-size="13" lengthAdjust="spacing" textLength="76" x="384.5" y="161.4482">Handle guest</text><path d="M323.5,181.3047 L384.5,181.3047 L384.5,189.3047 L374.5,199.3047 L323.5,199.3047 L323.5,181.3047 " fill="#EEEEEE" style="stroke:#000000;stroke-width:1.0;"/><rect fill="none" height="94.8906" style="stroke:#000000;stroke-width:2.0;" width="258" x="323.5" y="181.3047"/><text fill="#000000" font-family="sans-serif" font-size="13" font-weight="bold" lengthAdjust="spacing" textLength="16" x="338.5" y="195.7998">alt</text><text fill="#000000" font-family="sans-serif" font-size="11" font-weight="bold" lengthAdjust="spacing" textLength="73" x="399.5" y="194.7236">[Chance 80%]</text><polygon fill="#A80036" points="388.5,218.0078,378.5,222.0078,388.5,226.0078,384.5,222.0078" style="stroke:#A80036;stroke-width:1.0;"/><line style="stroke:#A80036;stroke-width:1.0;" x1="382.5" x2="535.5" y1="222.0078" y2="222.0078"/><text fill="#000000" font-family="sans-serif" font-size="13" lengthAdjust="spacing" textLength="100" x="394.5" y="217.1514">Close Restaurant</text><line style="stroke:#000000;stroke-width:1.0;stroke-dasharray:2.0,2.0;" x1="323.5" x2="581.5" y1="231.0078" y2="231.0078"/><text fill="#000000" font-family="sans-serif" font-size="11" font-weight="bold" lengthAdjust="spacing" textLength="76" x="328.5" y="242.4268">[Chance 20 %]</text><polygon fill="#A80036" points="388.5,264.1953,378.5,268.1953,388.5,272.1953,384.5,268.1953" style="stroke:#A80036;stroke-width:1.0;"/><line style="stroke:#A80036;stroke-width:1.0;" x1="382.5" x2="535.5" y1="268.1953" y2="268.1953"/><text fill="#000000" font-family="sans-serif" font-size="13" lengthAdjust="spacing" textLength="135" x="394.5" y="263.3389">Leave Restaurant alone</text><polygon fill="#A80036" points="365.5,301.5469,375.5,305.5469,365.5,309.5469,369.5,305.5469" style="stroke:#A80036;stroke-width:1.0;"/><line style="stroke:#A80036;stroke-width:1.0;" x1="99.5" x2="371.5" y1="305.5469" y2="305.5469"/><text fill="#000000" font-family="sans-serif" font-size="13" lengthAdjust="spacing" textLength="125" x="106.5" y="300.6904">Is restaurant opened?</text><path d="M20,320.5469 L81,320.5469 L81,328.5469 L71,338.5469 L20,338.5469 L20,320.5469 " fill="#EEEEEE" style="stroke:#000000;stroke-width:1.0;"/><rect fill="none" height="167.7578" style="stroke:#000000;stroke-width:2.0;" width="411.5" x="20" y="320.5469"/><text fill="#000000" font-family="sans-serif" font-size="13" font-weight="bold" lengthAdjust="spacing" textLength="16" x="35" y="335.042">alt</text><polygon fill="#A80036" points="110.5,357.25,100.5,361.25,110.5,365.25,106.5,361.25" style="stroke:#A80036;stroke-width:1.0;"/><line style="stroke:#A80036;stroke-width:1.0;" x1="104.5" x2="376.5" y1="361.25" y2="361.25"/><text fill="#000000" font-family="sans-serif" font-size="13" lengthAdjust="spacing" textLength="32" x="116.5" y="356.3936">False</text><line style="stroke:#A80036;stroke-width:1.0;" x1="99.5" x2="141.5" y1="391.6016" y2="391.6016"/><line style="stroke:#A80036;stroke-width:1.0;" x1="141.5" x2="141.5" y1="391.6016" y2="404.6016"/><line style="stroke:#A80036;stroke-width:1.0;" x1="100.5" x2="141.5" y1="404.6016" y2="404.6016"/><polygon fill="#A80036" points="110.5,400.6016,100.5,404.6016,110.5,408.6016,106.5,404.6016" style="stroke:#A80036;stroke-width:1.0;"/><text fill="#000000" font-family="sans-serif" font-size="13" lengthAdjust="spacing" textLength="86" x="106.5" y="386.7451">Exit simulation</text><line style="stroke:#000000;stroke-width:1.0;stroke-dasharray:2.0,2.0;" x1="20" x2="431.5" y1="413.6016" y2="413.6016"/><polygon fill="#A80036" points="110.5,432.9531,100.5,436.9531,110.5,440.9531,106.5,436.9531" style="stroke:#A80036;stroke-width:1.0;"/><line style="stroke:#A80036;stroke-width:1.0;" x1="104.5" x2="376.5" y1="436.9531" y2="436.9531"/><text fill="#000000" font-family="sans-serif" font-size="13" lengthAdjust="spacing" textLength="25" x="116.5" y="432.0967">True</text><line style="stroke:#A80036;stroke-width:1.0;" x1="99.5" x2="141.5" y1="467.3047" y2="467.3047"/><line style="stroke:#A80036;stroke-width:1.0;" x1="141.5" x2="141.5" y1="467.3047" y2="480.3047"/><line style="stroke:#A80036;stroke-width:1.0;" x1="100.5" x2="141.5" y1="480.3047" y2="480.3047"/><polygon fill="#A80036" points="110.5,476.3047,100.5,480.3047,110.5,484.3047,106.5,480.3047" style="stroke:#A80036;stroke-width:1.0;"/><text fill="#000000" font-family="sans-serif" font-size="13" lengthAdjust="spacing" textLength="114" x="106.5" y="462.4482">Continue simulation</text><!--MD5=[76897a6035cb5ce035efc89f31c0c139]
@startuml
title Interaction between Sanepid and Restaurant
    alt Average of restaurant rates is < 3
    SimulationManager -> Restaurant: Create Sanepid guest and add him to queue
    Restaurant -> Sanepid: Handle guest
     alt Chance 80%
     Sanepid -> Restaurant: Close Restaurant
     else Chance 20 %
     Sanepid -> Restaurant: Leave Restaurant alone
    end
    SimulationManager -> Restaurant: Is restaurant opened?
    alt
    Restaurant -> SimulationManager : False
    SimulationManager -> SimulationManager: Exit simulation
    else
    Restaurant -> SimulationManager : True
    SimulationManager -> SimulationManager: Continue simulation
    end
end

@enduml

PlantUML version 1.2021.7(Sun May 23 14:40:07 CEST 2021)
(GPL source distribution)
Java Runtime: OpenJDK Runtime Environment
JVM: Dynamic Code Evolution 64-Bit Server VM
Default Encoding: Cp1250
Language: pl
Country: PL
--></g></svg>