<?xml version="1.0" encoding="UTF-8" standalone="no"?><svg xmlns="http://www.w3.org/2000/svg" xmlns:xlink="http://www.w3.org/1999/xlink" contentScriptType="application/ecmascript" contentStyleType="text/css" height="1110px" preserveAspectRatio="none" style="width:306px;height:1110px;background:#FFFFFF;" version="1.1" viewBox="0 0 306 1110" width="306px" zoomAndPan="magnify"><defs><filter height="300%" id="f1jx2kndfjgscu" width="300%" x="-1" y="-1"><feGaussianBlur result="blurOut" stdDeviation="2.0"/><feColorMatrix in="blurOut" result="blurOut2" type="matrix" values="0 0 0 0 0 0 0 0 0 0 0 0 0 0 0 0 0 0 .4 0"/><feOffset dx="4.0" dy="4.0" in="blurOut2" result="blurOut3"/><feBlend in="SourceGraphic" in2="blurOut3" mode="normal"/></filter></defs><g><text fill="#000000" font-family="sans-serif" font-size="18" lengthAdjust="spacing" textLength="156" x="74" y="28.6855">Ticking and Actions</text><ellipse cx="131.5" cy="42.6406" fill="#000000" filter="url(#f1jx2kndfjgscu)" rx="10" ry="10" style="stroke:none;stroke-width:1.0;"/><rect fill="#FFFF00" filter="url(#f1jx2kndfjgscu)" height="35.0938" rx="12.5" ry="12.5" style="stroke:#A80036;stroke-width:1.5;" width="90" x="86.5" y="72.6406"/><text fill="#000000" font-family="sans-serif" font-size="12" lengthAdjust="spacing" textLength="70" x="96.5" y="95.0977">TickManager</text><rect fill="#FEFECE" filter="url(#f1jx2kndfjgscu)" height="35.0938" rx="12.5" ry="12.5" style="stroke:#A80036;stroke-width:1.5;" width="42" x="110.5" y="171.7344"/><text fill="#000000" font-family="sans-serif" font-size="12" lengthAdjust="spacing" textLength="22" x="120.5" y="194.1914">Tick</text><rect fill="#FEFECE" filter="url(#f1jx2kndfjgscu)" height="35.0938" rx="12.5" ry="12.5" style="stroke:#A80036;stroke-width:1.5;" width="241" x="11" y="226.8281"/><text fill="#000000" font-family="sans-serif" font-size="12" lengthAdjust="spacing" textLength="221" x="21" y="249.2852">For every registered tickableActionObject</text><rect fill="#FEFECE" filter="url(#f1jx2kndfjgscu)" height="35.0938" rx="12.5" ry="12.5" style="stroke:#A80036;stroke-width:1.5;" width="240" x="11.5" y="281.9219"/><text fill="#000000" font-family="sans-serif" font-size="12" lengthAdjust="spacing" textLength="220" x="21.5" y="304.3789">Decrement every tickable action left ticks</text><rect fill="#FEFECE" filter="url(#f1jx2kndfjgscu)" height="35.0938" rx="12.5" ry="12.5" style="stroke:#A80036;stroke-width:1.5;" width="233" x="15" y="381.0156"/><text fill="#000000" font-family="sans-serif" font-size="12" lengthAdjust="spacing" textLength="213" x="25" y="403.4727">Fire off tickableAction on finish callback</text><rect fill="#FEFECE" filter="url(#f1jx2kndfjgscu)" height="35.0938" rx="12.5" ry="12.5" style="stroke:#A80036;stroke-width:1.5;" width="237" x="13" y="451.1094"/><text fill="#000000" font-family="sans-serif" font-size="12" lengthAdjust="spacing" textLength="217" x="23" y="473.5664">Delete tickableAction from list of actions</text><polygon fill="#FEFECE" filter="url(#f1jx2kndfjgscu)" points="65,337.0156,198,337.0156,210,349.0156,198,361.0156,65,361.0156,53,349.0156,65,337.0156" style="stroke:#A80036;stroke-width:1.5;"/><text fill="#000000" font-family="sans-serif" font-size="11" lengthAdjust="spacing" textLength="133" x="65" y="353.5166">tickableAction duration == 0</text><polygon fill="#FEFECE" filter="url(#f1jx2kndfjgscu)" points="131.5,506.2031,143.5,518.2031,131.5,530.2031,119.5,518.2031,131.5,506.2031" style="stroke:#A80036;stroke-width:1.5;"/><rect fill="#FEFECE" filter="url(#f1jx2kndfjgscu)" height="35.0938" rx="12.5" ry="12.5" style="stroke:#A80036;stroke-width:1.5;" width="241" x="11" y="598.2031"/><text fill="#000000" font-family="sans-serif" font-size="12" lengthAdjust="spacing" textLength="221" x="21" y="620.6602">Fire off tickableAction on update callback</text><polygon fill="#FEFECE" filter="url(#f1jx2kndfjgscu)" points="41,550.2031,222,550.2031,234,562.2031,222,574.2031,41,574.2031,29,562.2031,41,550.2031" style="stroke:#A80036;stroke-width:1.5;"/><text fill="#000000" font-family="sans-serif" font-size="11" lengthAdjust="spacing" textLength="181" x="41" y="566.7041">tickableAction has on update callback</text><polygon fill="#FEFECE" filter="url(#f1jx2kndfjgscu)" points="131.5,653.2969,143.5,665.2969,131.5,677.2969,119.5,665.2969,131.5,653.2969" style="stroke:#A80036;stroke-width:1.5;"/><rect fill="#FEFECE" filter="url(#f1jx2kndfjgscu)" height="35.0938" rx="12.5" ry="12.5" style="stroke:#A80036;stroke-width:1.5;" width="237" x="13" y="741.2969"/><text fill="#000000" font-family="sans-serif" font-size="12" lengthAdjust="spacing" textLength="217" x="23" y="763.7539">synchronize tickableActionObjectsBuffor</text><polygon fill="#FEFECE" filter="url(#f1jx2kndfjgscu)" points="33.5,697.2969,229.5,697.2969,241.5,709.2969,229.5,721.2969,33.5,721.2969,21.5,709.2969,33.5,697.2969" style="stroke:#A80036;stroke-width:1.5;"/><text fill="#000000" font-family="sans-serif" font-size="11" lengthAdjust="spacing" textLength="196" x="33.5" y="713.7979">tickableActionObjectsBuffor is not empty</text><polygon fill="#FEFECE" filter="url(#f1jx2kndfjgscu)" points="131.5,796.3906,143.5,808.3906,131.5,820.3906,119.5,808.3906,131.5,796.3906" style="stroke:#A80036;stroke-width:1.5;"/><rect fill="#FEFECE" filter="url(#f1jx2kndfjgscu)" height="35.0938" rx="12.5" ry="12.5" style="stroke:#A80036;stroke-width:1.5;" width="185" x="39" y="840.3906"/><text fill="#000000" font-family="sans-serif" font-size="12" lengthAdjust="spacing" textLength="165" x="49" y="862.8477">cleanupTickableActionObjects</text><rect fill="#FEFECE" filter="url(#f1jx2kndfjgscu)" height="35.0938" rx="12.5" ry="12.5" style="stroke:#A80036;stroke-width:1.5;" width="165" x="49" y="895.4844"/><text fill="#000000" font-family="sans-serif" font-size="12" lengthAdjust="spacing" textLength="145" x="59" y="917.9414">printTickableActionsStatus</text><rect fill="#FEFECE" filter="url(#f1jx2kndfjgscu)" height="35.0938" rx="12.5" ry="12.5" style="stroke:#A80036;stroke-width:1.5;" width="192" x="35.5" y="950.5781"/><text fill="#000000" font-family="sans-serif" font-size="12" lengthAdjust="spacing" textLength="172" x="45.5" y="973.0352">increment passed ticks counter</text><polygon fill="#FEFECE" filter="url(#f1jx2kndfjgscu)" points="131.5,127.7344,143.5,139.7344,131.5,151.7344,119.5,139.7344,131.5,127.7344" style="stroke:#A80036;stroke-width:1.5;"/><polygon fill="#FEFECE" filter="url(#f1jx2kndfjgscu)" points="85.5,1005.6719,177.5,1005.6719,189.5,1017.6719,177.5,1029.6719,85.5,1029.6719,73.5,1017.6719,85.5,1005.6719" style="stroke:#A80036;stroke-width:1.5;"/><text fill="#000000" font-family="sans-serif" font-size="11" lengthAdjust="spacing" textLength="92" x="85.5" y="1022.1729">simulationRunning?</text><text fill="#000000" font-family="sans-serif" font-size="11" lengthAdjust="spacing" textLength="18" x="189.5" y="1015.2549">yes</text><ellipse cx="131.5" cy="1082.9248" fill="#FFFFFF" filter="url(#f1jx2kndfjgscu)" rx="11" ry="11" style="stroke:#000000;stroke-width:1.0;"/><ellipse cx="131.5" cy="1082.9248" fill="#000000" rx="6" ry="6" style="stroke:#7F7F7F;stroke-width:1.0;"/><line style="stroke:#A80036;stroke-width:1.5;" x1="131.5" x2="131.5" y1="52.6406" y2="72.6406"/><polygon fill="#A80036" points="127.5,62.6406,131.5,72.6406,135.5,62.6406,131.5,66.6406" style="stroke:#A80036;stroke-width:1.0;"/><line style="stroke:#A80036;stroke-width:1.5;" x1="131.5" x2="131.5" y1="206.8281" y2="226.8281"/><polygon fill="#A80036" points="127.5,216.8281,131.5,226.8281,135.5,216.8281,131.5,220.8281" style="stroke:#A80036;stroke-width:1.0;"/><line style="stroke:#A80036;stroke-width:1.5;" x1="131.5" x2="131.5" y1="261.9219" y2="281.9219"/><polygon fill="#A80036" points="127.5,271.9219,131.5,281.9219,135.5,271.9219,131.5,275.9219" style="stroke:#A80036;stroke-width:1.0;"/><line style="stroke:#A80036;stroke-width:1.5;" x1="131.5" x2="131.5" y1="416.1094" y2="451.1094"/><polygon fill="#A80036" points="127.5,441.1094,131.5,451.1094,135.5,441.1094,131.5,445.1094" style="stroke:#A80036;stroke-width:1.0;"/><line style="stroke:#A80036;stroke-width:1.5;" x1="131.5" x2="131.5" y1="361.0156" y2="381.0156"/><polygon fill="#A80036" points="127.5,371.0156,131.5,381.0156,135.5,371.0156,131.5,375.0156" style="stroke:#A80036;stroke-width:1.0;"/><line style="stroke:#A80036;stroke-width:1.5;" x1="210" x2="260" y1="349.0156" y2="349.0156"/><polygon fill="#A80036" points="256,423.6094,260,433.6094,264,423.6094,260,427.6094" style="stroke:#A80036;stroke-width:1.5;"/><line style="stroke:#A80036;stroke-width:1.5;" x1="260" x2="260" y1="349.0156" y2="518.2031"/><line style="stroke:#A80036;stroke-width:1.5;" x1="260" x2="143.5" y1="518.2031" y2="518.2031"/><polygon fill="#A80036" points="153.5,514.2031,143.5,518.2031,153.5,522.2031,149.5,518.2031" style="stroke:#A80036;stroke-width:1.0;"/><line style="stroke:#A80036;stroke-width:1.5;" x1="131.5" x2="131.5" y1="486.2031" y2="506.2031"/><polygon fill="#A80036" points="127.5,496.2031,131.5,506.2031,135.5,496.2031,131.5,500.2031" style="stroke:#A80036;stroke-width:1.0;"/><line style="stroke:#A80036;stroke-width:1.5;" x1="131.5" x2="131.5" y1="317.0156" y2="337.0156"/><polygon fill="#A80036" points="127.5,327.0156,131.5,337.0156,135.5,327.0156,131.5,331.0156" style="stroke:#A80036;stroke-width:1.0;"/><line style="stroke:#A80036;stroke-width:1.5;" x1="131.5" x2="131.5" y1="574.2031" y2="598.2031"/><polygon fill="#A80036" points="127.5,588.2031,131.5,598.2031,135.5,588.2031,131.5,592.2031" style="stroke:#A80036;stroke-width:1.0;"/><line style="stroke:#A80036;stroke-width:1.5;" x1="234" x2="262" y1="562.2031" y2="562.2031"/><polygon fill="#A80036" points="258,605.75,262,615.75,266,605.75,262,609.75" style="stroke:#A80036;stroke-width:1.5;"/><line style="stroke:#A80036;stroke-width:1.5;" x1="262" x2="262" y1="562.2031" y2="665.2969"/><line style="stroke:#A80036;stroke-width:1.5;" x1="262" x2="143.5" y1="665.2969" y2="665.2969"/><polygon fill="#A80036" points="153.5,661.2969,143.5,665.2969,153.5,669.2969,149.5,665.2969" style="stroke:#A80036;stroke-width:1.0;"/><line style="stroke:#A80036;stroke-width:1.5;" x1="131.5" x2="131.5" y1="633.2969" y2="653.2969"/><polygon fill="#A80036" points="127.5,643.2969,131.5,653.2969,135.5,643.2969,131.5,647.2969" style="stroke:#A80036;stroke-width:1.0;"/><line style="stroke:#A80036;stroke-width:1.5;" x1="131.5" x2="131.5" y1="530.2031" y2="550.2031"/><polygon fill="#A80036" points="127.5,540.2031,131.5,550.2031,135.5,540.2031,131.5,544.2031" style="stroke:#A80036;stroke-width:1.0;"/><line style="stroke:#A80036;stroke-width:1.5;" x1="131.5" x2="131.5" y1="721.2969" y2="741.2969"/><polygon fill="#A80036" points="127.5,731.2969,131.5,741.2969,135.5,731.2969,131.5,735.2969" style="stroke:#A80036;stroke-width:1.0;"/><line style="stroke:#A80036;stroke-width:1.5;" x1="241.5" x2="260" y1="709.2969" y2="709.2969"/><polygon fill="#A80036" points="256,748.8438,260,758.8438,264,748.8438,260,752.8438" style="stroke:#A80036;stroke-width:1.5;"/><line style="stroke:#A80036;stroke-width:1.5;" x1="260" x2="260" y1="709.2969" y2="808.3906"/><line style="stroke:#A80036;stroke-width:1.5;" x1="260" x2="143.5" y1="808.3906" y2="808.3906"/><polygon fill="#A80036" points="153.5,804.3906,143.5,808.3906,153.5,812.3906,149.5,808.3906" style="stroke:#A80036;stroke-width:1.0;"/><line style="stroke:#A80036;stroke-width:1.5;" x1="131.5" x2="131.5" y1="776.3906" y2="796.3906"/><polygon fill="#A80036" points="127.5,786.3906,131.5,796.3906,135.5,786.3906,131.5,790.3906" style="stroke:#A80036;stroke-width:1.0;"/><line style="stroke:#A80036;stroke-width:1.5;" x1="131.5" x2="131.5" y1="677.2969" y2="697.2969"/><polygon fill="#A80036" points="127.5,687.2969,131.5,697.2969,135.5,687.2969,131.5,691.2969" style="stroke:#A80036;stroke-width:1.0;"/><line style="stroke:#A80036;stroke-width:1.5;" x1="131.5" x2="131.5" y1="820.3906" y2="840.3906"/><polygon fill="#A80036" points="127.5,830.3906,131.5,840.3906,135.5,830.3906,131.5,834.3906" style="stroke:#A80036;stroke-width:1.0;"/><line style="stroke:#A80036;stroke-width:1.5;" x1="131.5" x2="131.5" y1="875.4844" y2="895.4844"/><polygon fill="#A80036" points="127.5,885.4844,131.5,895.4844,135.5,885.4844,131.5,889.4844" style="stroke:#A80036;stroke-width:1.0;"/><line style="stroke:#A80036;stroke-width:1.5;" x1="131.5" x2="131.5" y1="930.5781" y2="950.5781"/><polygon fill="#A80036" points="127.5,940.5781,131.5,950.5781,135.5,940.5781,131.5,944.5781" style="stroke:#A80036;stroke-width:1.0;"/><line style="stroke:#A80036;stroke-width:1.5;" x1="131.5" x2="131.5" y1="151.7344" y2="171.7344"/><polygon fill="#A80036" points="127.5,161.7344,131.5,171.7344,135.5,161.7344,131.5,165.7344" style="stroke:#A80036;stroke-width:1.0;"/><line style="stroke:#A80036;stroke-width:1.5;" x1="189.5" x2="280" y1="1017.6719" y2="1017.6719"/><polygon fill="#A80036" points="276,590.7031,280,580.7031,284,590.7031,280,586.7031" style="stroke:#A80036;stroke-width:1.5;"/><line style="stroke:#A80036;stroke-width:1.5;" x1="280" x2="280" y1="139.7344" y2="1017.6719"/><line style="stroke:#A80036;stroke-width:1.5;" x1="280" x2="143.5" y1="139.7344" y2="139.7344"/><polygon fill="#A80036" points="153.5,135.7344,143.5,139.7344,153.5,143.7344,149.5,139.7344" style="stroke:#A80036;stroke-width:1.0;"/><line style="stroke:#A80036;stroke-width:1.5;" x1="131.5" x2="131.5" y1="985.6719" y2="1005.6719"/><polygon fill="#A80036" points="127.5,995.6719,131.5,1005.6719,135.5,995.6719,131.5,999.6719" style="stroke:#A80036;stroke-width:1.0;"/><line style="stroke:#A80036;stroke-width:1.5;" x1="131.5" x2="131.5" y1="107.7344" y2="127.7344"/><polygon fill="#A80036" points="127.5,117.7344,131.5,127.7344,135.5,117.7344,131.5,121.7344" style="stroke:#A80036;stroke-width:1.0;"/><line style="stroke:#A80036;stroke-width:1.5;" x1="131.5" x2="131.5" y1="1029.6719" y2="1071.9248"/><polygon fill="#A80036" points="127.5,1061.9248,131.5,1071.9248,135.5,1061.9248,131.5,1065.9248" style="stroke:#A80036;stroke-width:1.0;"/><text fill="#000000" font-family="sans-serif" font-size="11" lengthAdjust="spacing" textLength="12" x="135.5" y="1052.0078">no</text><!--MD5=[25ec02a21197115426dd49ab5738a166]
@startuml
title Ticking and Actions
start
#yellow:TickManager;
repeat
  :Tick;
  :For every registered tickableActionObject;
  :Decrement every tickable action left ticks;
  if (tickableAction duration == 0) then
    :Fire off tickableAction on finish callback;
    :Delete tickableAction from list of actions;
  endif
  if (tickableAction has on update callback) then
    :Fire off tickableAction on update callback;
  endif
  if(tickableActionObjectsBuffor is not empty) then
        :synchronize tickableActionObjectsBuffor;
  endif
  :cleanupTickableActionObjects;
  :printTickableActionsStatus;
  :increment passed ticks counter;
repeat while (simulationRunning?) is (yes)
->no;
stop
@enduml

PlantUML version 1.2021.7(Sun May 23 14:40:07 CEST 2021)
(GPL source distribution)
Java Runtime: OpenJDK Runtime Environment
JVM: Dynamic Code Evolution 64-Bit Server VM
Default Encoding: Cp1250
Language: pl
Country: PL
--></g></svg>