<?xml version="1.0" encoding="UTF-8" standalone="no"?><svg xmlns="http://www.w3.org/2000/svg" xmlns:xlink="http://www.w3.org/1999/xlink" contentScriptType="application/ecmascript" contentStyleType="text/css" height="227px" preserveAspectRatio="none" style="width:294px;height:227px;" version="1.1" viewBox="0 0 294 227" width="294px" zoomAndPan="magnify"><defs><filter height="300%" id="f108c1k97ci37s" width="300%" x="-1" y="-1"><feGaussianBlur result="blurOut" stdDeviation="2.0"/><feColorMatrix in="blurOut" result="blurOut2" type="matrix" values="0 0 0 0 0 0 0 0 0 0 0 0 0 0 0 0 0 0 .4 0"/><feOffset dx="4.0" dy="4.0" in="blurOut2" result="blurOut3"/><feBlend in="SourceGraphic" in2="blurOut3" mode="normal"/></filter></defs><g><!--MD5=[6b2d2bf5793864e07c74cd521dfcceaa]
class RestaurantSim.AverageRateBasedEvaluationService--><a href="AverageRateBasedEvaluationService.html" target="_top" title="AverageRateBasedEvaluationService.html" xlink:actuate="onRequest" xlink:href="AverageRateBasedEvaluationService.html" xlink:show="new" xlink:title="AverageRateBasedEvaluationService.html" xlink:type="simple"><rect codeLine="5" fill="#FEFECE" filter="url(#f108c1k97ci37s)" height="62.0234" id="RestaurantSim.AverageRateBasedEvaluationService" style="stroke: #A80036; stroke-width: 1.5;" width="268" x="7" y="129"/><ellipse cx="22" cy="149.0938" fill="#ADD1B2" rx="11" ry="11" style="stroke: #A80036; stroke-width: 1.0;"/><path d="M24.7656,144.9688 Q24.9219,144.75 25.1094,144.6406 Q25.2969,144.5313 25.5156,144.5313 Q25.8906,144.5313 26.125,144.7969 Q26.3594,145.0469 26.3594,145.6563 L26.3594,147.1094 Q26.3594,147.7188 26.125,147.9844 Q25.8906,148.25 25.5156,148.25 Q25.1719,148.25 24.9688,148.0469 Q24.7656,147.8594 24.6563,147.3438 Q24.6094,146.9844 24.4219,146.7969 Q24.0938,146.4219 23.4844,146.2031 Q22.875,145.9844 22.25,145.9844 Q21.4844,145.9844 20.8438,146.3125 Q20.2188,146.6406 19.7188,147.3906 Q19.2344,148.1406 19.2344,149.1719 L19.2344,150.2656 Q19.2344,151.5 20.125,152.3281 Q21.0156,153.1406 22.6094,153.1406 Q23.5469,153.1406 24.2031,152.8906 Q24.5938,152.7344 25.0156,152.2969 Q25.2813,152.0313 25.4219,151.9531 Q25.5781,151.875 25.7813,151.875 Q26.1094,151.875 26.3594,152.1406 Q26.625,152.3906 26.625,152.7344 Q26.625,153.0781 26.2813,153.4844 Q25.7813,154.0625 24.9844,154.3906 Q23.9063,154.8438 22.6094,154.8438 Q21.0938,154.8438 19.8906,154.2188 Q18.9063,153.7188 18.2188,152.6563 Q17.5313,151.5781 17.5313,150.2969 L17.5313,149.1406 Q17.5313,147.8125 18.1406,146.6719 Q18.7656,145.5156 19.8594,144.9063 Q20.9531,144.2813 22.1875,144.2813 Q22.9219,144.2813 23.5625,144.4531 Q24.2188,144.6094 24.7656,144.9688 Z "/><text fill="#000000" font-family="sans-serif" font-size="14" lengthAdjust="spacingAndGlyphs" textLength="236" x="36" y="148.5332">AverageRateBasedEvaluationService</text><text fill="#000000" font-family="sans-serif" font-size="10" lengthAdjust="spacingAndGlyphs" textLength="69" x="119.5" y="161.9902">RestaurantSim</text><line style="stroke: #A80036; stroke-width: 1.5;" x1="8" x2="274" y1="169.1875" y2="169.1875"/><ellipse cx="18" cy="180.1875" fill="#84BE84" rx="3" ry="3" style="stroke: #038048; stroke-width: 1.0;"/><text fill="#000000" font-family="sans-serif" font-size="11" lengthAdjust="spacingAndGlyphs" textLength="234" x="27" y="184.6064">restaurantShouldBeClosed(Restaurant): boolean</text></a><!--MD5=[40d66937e74e4112c1988045a6a24487]
class RestaurantSim.SimulationSystem.IEvaluationService--><a href="SimulationSystem\IEvaluationService.html" target="_top" title="SimulationSystem\IEvaluationService.html" xlink:actuate="onRequest" xlink:href="SimulationSystem\IEvaluationService.html" xlink:show="new" xlink:title="SimulationSystem\IEvaluationService.html" xlink:type="simple"><rect codeLine="9" fill="#FEFECE" filter="url(#f108c1k97ci37s)" height="62.0234" id="RestaurantSim.SimulationSystem.IEvaluationService" style="stroke: #A80036; stroke-width: 1.5;" width="266" x="8" y="7"/><ellipse cx="59.75" cy="27.0938" fill="#B4A7E5" rx="11" ry="11" style="stroke: #A80036; stroke-width: 1.0;"/><path d="M60.7031,23.7344 L60.7031,30.3906 L62.4219,30.3906 Q63.0313,30.3906 63.2969,30.625 Q63.5625,30.8594 63.5625,31.25 Q63.5625,31.625 63.2969,31.8594 Q63.0313,32.0938 62.4219,32.0938 L57.2813,32.0938 Q56.6719,32.0938 56.4063,31.8594 Q56.1406,31.625 56.1406,31.2344 Q56.1406,30.8594 56.4063,30.625 Q56.6719,30.3906 57.2813,30.3906 L59,30.3906 L59,23.7344 L57.2813,23.7344 Q56.6719,23.7344 56.4063,23.5 Q56.1406,23.2656 56.1406,22.875 Q56.1406,22.5 56.4063,22.2656 Q56.6719,22.0313 57.2813,22.0313 L62.4219,22.0313 Q63.0313,22.0313 63.2969,22.2656 Q63.5625,22.5 63.5625,22.875 Q63.5625,23.2656 63.2969,23.5 Q63.0313,23.7344 62.4219,23.7344 L60.7031,23.7344 Z "/><text fill="#000000" font-family="sans-serif" font-size="14" font-style="italic" lengthAdjust="spacingAndGlyphs" textLength="115" x="99.75" y="26.5332">IEvaluationService</text><text fill="#000000" font-family="sans-serif" font-size="10" font-style="italic" lengthAdjust="spacingAndGlyphs" textLength="154" x="80.25" y="39.9902">RestaurantSim.SimulationSystem</text><line style="stroke: #A80036; stroke-width: 1.5;" x1="9" x2="273" y1="47.1875" y2="47.1875"/><ellipse cx="19" cy="58.1875" fill="#84BE84" rx="3" ry="3" style="stroke: #038048; stroke-width: 1.0;"/><text fill="#000000" font-family="sans-serif" font-size="11" font-style="italic" lengthAdjust="spacingAndGlyphs" textLength="240" x="28" y="62.6064">restaurantShouldBeClosed(Restaurant): boolean</text></a><!--MD5=[4ad9e292a5dc9cdab65232f65c281c9d]
reverse link RestaurantSim.SimulationSystem.IEvaluationService to RestaurantSim.AverageRateBasedEvaluationService--><path codeLine="13" d="M141,89.37 C141,102.75 141,116.79 141,128.73 " fill="none" id="RestaurantSim.SimulationSystem.IEvaluationService-backto-RestaurantSim.AverageRateBasedEvaluationService" style="stroke: #A80036; stroke-width: 1.0; stroke-dasharray: 7.0,7.0;"/><polygon fill="none" points="134,89.28,141,69.28,148,89.28,134,89.28" style="stroke: #A80036; stroke-width: 1.0;"/><text fill="#888888" font-family="sans-serif" font-size="10" lengthAdjust="spacingAndGlyphs" textLength="190" x="43" y="214.4043">UMLDoclet 2.0.12, PlantUML 1.2020.16</text><!--MD5=[16604d81ed1d57005425e04b3068e93c]
@startuml
    set namespaceSeparator none
    hide empty fields
    hide empty methods

    class "<size:14>AverageRateBasedEvaluationService\n<size:10>RestaurantSim" as RestaurantSim.AverageRateBasedEvaluationService [[AverageRateBasedEvaluationService.html]] {
        +restaurantShouldBeClosed(Restaurant): boolean
    }

    interface "<size:14>IEvaluationService\n<size:10>RestaurantSim.SimulationSystem" as RestaurantSim.SimulationSystem.IEvaluationService [[SimulationSystem\IEvaluationService.html]] {
        {abstract} +restaurantShouldBeClosed(Restaurant): boolean
    }

    RestaurantSim.SimulationSystem.IEvaluationService <|.. RestaurantSim.AverageRateBasedEvaluationService

    center footer UMLDoclet 2.0.12, PlantUML 1.2020.16
@enduml

PlantUML version 1.2020.16(Sun Aug 23 22:20:43 CEST 2020)
(APACHE source distribution)
Java Runtime: OpenJDK Runtime Environment
JVM: OpenJDK 64-Bit Server VM
Default Encoding: Cp1250
Language: pl
Country: PL
--></g></svg>