<?xml version="1.0" encoding="UTF-8" standalone="no"?><svg xmlns="http://www.w3.org/2000/svg" xmlns:xlink="http://www.w3.org/1999/xlink" contentScriptType="application/ecmascript" contentStyleType="text/css" height="324px" preserveAspectRatio="none" style="width:326px;height:324px;" version="1.1" viewBox="0 0 326 324" width="326px" zoomAndPan="magnify"><defs><filter height="300%" id="f8kptfylk17oy" width="300%" x="-1" y="-1"><feGaussianBlur result="blurOut" stdDeviation="2.0"/><feColorMatrix in="blurOut" result="blurOut2" type="matrix" values="0 0 0 0 0 0 0 0 0 0 0 0 0 0 0 0 0 0 .4 0"/><feOffset dx="4.0" dy="4.0" in="blurOut2" result="blurOut3"/><feBlend in="SourceGraphic" in2="blurOut3" mode="normal"/></filter></defs><g><!--MD5=[6ee7145bc6fc5e3c445e3d692c2bd556]
class RestaurantSim.Cook--><a href="Cook.html" target="_top" title="Cook.html" xlink:actuate="onRequest" xlink:href="Cook.html" xlink:show="new" xlink:title="Cook.html" xlink:type="simple"><rect codeLine="5" fill="#FEFECE" filter="url(#f8kptfylk17oy)" height="145.0391" id="RestaurantSim.Cook" style="stroke: #A80036; stroke-width: 1.5;" width="300" x="7" y="143"/><ellipse cx="118.25" cy="163.0938" fill="#ADD1B2" rx="11" ry="11" style="stroke: #A80036; stroke-width: 1.0;"/><path d="M121.0156,158.9688 Q121.1719,158.75 121.3594,158.6406 Q121.5469,158.5313 121.7656,158.5313 Q122.1406,158.5313 122.375,158.7969 Q122.6094,159.0469 122.6094,159.6563 L122.6094,161.1094 Q122.6094,161.7188 122.375,161.9844 Q122.1406,162.25 121.7656,162.25 Q121.4219,162.25 121.2188,162.0469 Q121.0156,161.8594 120.9063,161.3438 Q120.8594,160.9844 120.6719,160.7969 Q120.3438,160.4219 119.7344,160.2031 Q119.125,159.9844 118.5,159.9844 Q117.7344,159.9844 117.0938,160.3125 Q116.4688,160.6406 115.9688,161.3906 Q115.4844,162.1406 115.4844,163.1719 L115.4844,164.2656 Q115.4844,165.5 116.375,166.3281 Q117.2656,167.1406 118.8594,167.1406 Q119.7969,167.1406 120.4531,166.8906 Q120.8438,166.7344 121.2656,166.2969 Q121.5313,166.0313 121.6719,165.9531 Q121.8281,165.875 122.0313,165.875 Q122.3594,165.875 122.6094,166.1406 Q122.875,166.3906 122.875,166.7344 Q122.875,167.0781 122.5313,167.4844 Q122.0313,168.0625 121.2344,168.3906 Q120.1563,168.8438 118.8594,168.8438 Q117.3438,168.8438 116.1406,168.2188 Q115.1563,167.7188 114.4688,166.6563 Q113.7813,165.5781 113.7813,164.2969 L113.7813,163.1406 Q113.7813,161.8125 114.3906,160.6719 Q115.0156,159.5156 116.1094,158.9063 Q117.2031,158.2813 118.4375,158.2813 Q119.1719,158.2813 119.8125,158.4531 Q120.4688,158.6094 121.0156,158.9688 Z "/><text fill="#000000" font-family="sans-serif" font-size="14" lengthAdjust="spacingAndGlyphs" textLength="33" x="156.75" y="162.5332">Cook</text><text fill="#000000" font-family="sans-serif" font-size="10" lengthAdjust="spacingAndGlyphs" textLength="69" x="138.75" y="175.9902">RestaurantSim</text><line style="stroke: #A80036; stroke-width: 1.5;" x1="8" x2="306" y1="183.1875" y2="183.1875"/><ellipse cx="18" cy="194.1875" fill="#84BE84" rx="3" ry="3" style="stroke: #038048; stroke-width: 1.0;"/><text fill="#000000" font-family="sans-serif" font-size="11" lengthAdjust="spacingAndGlyphs" textLength="274" x="27" y="198.6064">Cook(String, int, int, IOrderQualityDeterminer, Restaurant)</text><ellipse cx="18" cy="208.0234" fill="#84BE84" rx="3" ry="3" style="stroke: #038048; stroke-width: 1.0;"/><text fill="#000000" font-family="sans-serif" font-size="11" lengthAdjust="spacingAndGlyphs" textLength="132" x="27" y="212.4424">makeOrder(Order, int): void</text><ellipse cx="18" cy="221.8594" fill="#84BE84" rx="3" ry="3" style="stroke: #038048; stroke-width: 1.0;"/><text fill="#000000" font-family="sans-serif" font-size="11" lengthAdjust="spacingAndGlyphs" textLength="85" x="27" y="226.2783">isBusy(): boolean</text><ellipse cx="18" cy="235.6953" fill="#84BE84" rx="3" ry="3" style="stroke: #038048; stroke-width: 1.0;"/><text fill="#000000" font-family="sans-serif" font-size="11" lengthAdjust="spacingAndGlyphs" textLength="84" x="27" y="240.1143">getName(): String</text><ellipse cx="18" cy="249.5313" fill="#84BE84" rx="3" ry="3" style="stroke: #038048; stroke-width: 1.0;"/><text fill="#000000" font-family="sans-serif" font-size="11" lengthAdjust="spacingAndGlyphs" textLength="204" x="27" y="253.9502">getTickableActions(): List&lt;TickableAction&gt;</text><ellipse cx="18" cy="263.3672" fill="#84BE84" rx="3" ry="3" style="stroke: #038048; stroke-width: 1.0;"/><text fill="#000000" font-family="sans-serif" font-size="11" lengthAdjust="spacingAndGlyphs" textLength="159" x="27" y="267.7861">shouldBeUnregistered(): boolean</text><ellipse cx="18" cy="277.2031" fill="#84BE84" rx="3" ry="3" style="stroke: #038048; stroke-width: 1.0;"/><text fill="#000000" font-family="sans-serif" font-size="11" lengthAdjust="spacingAndGlyphs" textLength="84" x="27" y="281.6221">getSkillLevel(): int</text></a><!--MD5=[a39922f3f2d1cc3aed2dd395f1f2b9cc]
class RestaurantSim.SimulationSystem.ITickableActionObject--><a href="SimulationSystem\ITickableActionObject.html" target="_top" title="SimulationSystem\ITickableActionObject.html" xlink:actuate="onRequest" xlink:href="SimulationSystem\ITickableActionObject.html" xlink:show="new" xlink:title="SimulationSystem\ITickableActionObject.html" xlink:type="simple"><rect codeLine="15" fill="#FEFECE" filter="url(#f8kptfylk17oy)" height="75.8594" id="RestaurantSim.SimulationSystem.ITickableActionObject" style="stroke: #A80036; stroke-width: 1.5;" width="241" x="36.5" y="7"/><ellipse cx="76.25" cy="27.0938" fill="#B4A7E5" rx="11" ry="11" style="stroke: #A80036; stroke-width: 1.0;"/><path d="M77.2031,23.7344 L77.2031,30.3906 L78.9219,30.3906 Q79.5313,30.3906 79.7969,30.625 Q80.0625,30.8594 80.0625,31.25 Q80.0625,31.625 79.7969,31.8594 Q79.5313,32.0938 78.9219,32.0938 L73.7813,32.0938 Q73.1719,32.0938 72.9063,31.8594 Q72.6406,31.625 72.6406,31.2344 Q72.6406,30.8594 72.9063,30.625 Q73.1719,30.3906 73.7813,30.3906 L75.5,30.3906 L75.5,23.7344 L73.7813,23.7344 Q73.1719,23.7344 72.9063,23.5 Q72.6406,23.2656 72.6406,22.875 Q72.6406,22.5 72.9063,22.2656 Q73.1719,22.0313 73.7813,22.0313 L78.9219,22.0313 Q79.5313,22.0313 79.7969,22.2656 Q80.0625,22.5 80.0625,22.875 Q80.0625,23.2656 79.7969,23.5 Q79.5313,23.7344 78.9219,23.7344 L77.2031,23.7344 Z "/><text fill="#000000" font-family="sans-serif" font-size="14" font-style="italic" lengthAdjust="spacingAndGlyphs" textLength="138" x="103.75" y="26.5332">ITickableActionObject</text><text fill="#000000" font-family="sans-serif" font-size="10" font-style="italic" lengthAdjust="spacingAndGlyphs" textLength="154" x="95.75" y="39.9902">RestaurantSim.SimulationSystem</text><line style="stroke: #A80036; stroke-width: 1.5;" x1="37.5" x2="276.5" y1="47.1875" y2="47.1875"/><ellipse cx="47.5" cy="58.1875" fill="#84BE84" rx="3" ry="3" style="stroke: #038048; stroke-width: 1.0;"/><text fill="#000000" font-family="sans-serif" font-size="11" font-style="italic" lengthAdjust="spacingAndGlyphs" textLength="215" x="56.5" y="62.6064">getTickableActions(): List&lt;TickableAction&gt;</text><ellipse cx="47.5" cy="72.0234" fill="#84BE84" rx="3" ry="3" style="stroke: #038048; stroke-width: 1.0;"/><text fill="#000000" font-family="sans-serif" font-size="11" font-style="italic" lengthAdjust="spacingAndGlyphs" textLength="163" x="56.5" y="76.4424">shouldBeUnregistered(): boolean</text></a><!--MD5=[1335020fd4ef5ba23ad8041a8d43ff42]
reverse link RestaurantSim.SimulationSystem.ITickableActionObject to RestaurantSim.Cook--><path codeLine="20" d="M157,103.62 C157,116.28 157,129.84 157,142.97 " fill="none" id="RestaurantSim.SimulationSystem.ITickableActionObject-backto-RestaurantSim.Cook" style="stroke: #A80036; stroke-width: 1.0; stroke-dasharray: 7.0,7.0;"/><polygon fill="none" points="150,103.4,157,83.4,164,103.4,150,103.4" style="stroke: #A80036; stroke-width: 1.0;"/><text fill="#888888" font-family="sans-serif" font-size="10" lengthAdjust="spacingAndGlyphs" textLength="190" x="59" y="311.4199">UMLDoclet 2.0.12, PlantUML 1.2020.16</text><!--MD5=[03a822a99fa92e5203a43dbda0c769c5]
@startuml
    set namespaceSeparator none
    hide empty fields
    hide empty methods

    class "<size:14>Cook\n<size:10>RestaurantSim" as RestaurantSim.Cook [[Cook.html]] {
        +Cook(String, int, int, IOrderQualityDeterminer, Restaurant)
        +makeOrder(Order, int): void
        +isBusy(): boolean
        +getName(): String
        +getTickableActions(): List<TickableAction>
        +shouldBeUnregistered(): boolean
        +getSkillLevel(): int
    }

    interface "<size:14>ITickableActionObject\n<size:10>RestaurantSim.SimulationSystem" as RestaurantSim.SimulationSystem.ITickableActionObject [[SimulationSystem\ITickableActionObject.html]] {
        {abstract} +getTickableActions(): List<TickableAction>
        {abstract} +shouldBeUnregistered(): boolean
    }

    RestaurantSim.SimulationSystem.ITickableActionObject <|.. RestaurantSim.Cook

    center footer UMLDoclet 2.0.12, PlantUML 1.2020.16
@enduml

PlantUML version 1.2020.16(Sun Aug 23 22:20:43 CEST 2020)
(APACHE source distribution)
Java Runtime: OpenJDK Runtime Environment
JVM: OpenJDK 64-Bit Server VM
Default Encoding: Cp1250
Language: pl
Country: PL
--></g></svg>