<?xml version="1.0" encoding="UTF-8" standalone="no"?><svg xmlns="http://www.w3.org/2000/svg" xmlns:xlink="http://www.w3.org/1999/xlink" contentScriptType="application/ecmascript" contentStyleType="text/css" height="224px" preserveAspectRatio="none" style="width:372px;height:224px;" version="1.1" viewBox="0 0 372 224" width="372px" zoomAndPan="magnify"><defs><filter height="300%" id="f13jstec61uqqa" width="300%" x="-1" y="-1"><feGaussianBlur result="blurOut" stdDeviation="2.0"/><feColorMatrix in="blurOut" result="blurOut2" type="matrix" values="0 0 0 0 0 0 0 0 0 0 0 0 0 0 0 0 0 0 .4 0"/><feOffset dx="4.0" dy="4.0" in="blurOut2" result="blurOut3"/><feBlend in="SourceGraphic" in2="blurOut3" mode="normal"/></filter></defs><g><!--MD5=[8d8f0b87bf2274a133209b84d3477a87]
class RestaurantSim.CookBuilder--><a href="CookBuilder.html" target="_top" title="CookBuilder.html" xlink:actuate="onRequest" xlink:href="CookBuilder.html" xlink:show="new" xlink:title="CookBuilder.html" xlink:type="simple"><rect codeLine="5" fill="#FEFECE" filter="url(#f13jstec61uqqa)" height="186.5469" id="RestaurantSim.CookBuilder" style="stroke: #A80036; stroke-width: 1.5;" width="346" x="7" y="7"/><ellipse cx="137.25" cy="27.0938" fill="#ADD1B2" rx="11" ry="11" style="stroke: #A80036; stroke-width: 1.0;"/><path d="M140.0156,22.9688 Q140.1719,22.75 140.3594,22.6406 Q140.5469,22.5313 140.7656,22.5313 Q141.1406,22.5313 141.375,22.7969 Q141.6094,23.0469 141.6094,23.6563 L141.6094,25.1094 Q141.6094,25.7188 141.375,25.9844 Q141.1406,26.25 140.7656,26.25 Q140.4219,26.25 140.2188,26.0469 Q140.0156,25.8594 139.9063,25.3438 Q139.8594,24.9844 139.6719,24.7969 Q139.3438,24.4219 138.7344,24.2031 Q138.125,23.9844 137.5,23.9844 Q136.7344,23.9844 136.0938,24.3125 Q135.4688,24.6406 134.9688,25.3906 Q134.4844,26.1406 134.4844,27.1719 L134.4844,28.2656 Q134.4844,29.5 135.375,30.3281 Q136.2656,31.1406 137.8594,31.1406 Q138.7969,31.1406 139.4531,30.8906 Q139.8438,30.7344 140.2656,30.2969 Q140.5313,30.0313 140.6719,29.9531 Q140.8281,29.875 141.0313,29.875 Q141.3594,29.875 141.6094,30.1406 Q141.875,30.3906 141.875,30.7344 Q141.875,31.0781 141.5313,31.4844 Q141.0313,32.0625 140.2344,32.3906 Q139.1563,32.8438 137.8594,32.8438 Q136.3438,32.8438 135.1406,32.2188 Q134.1563,31.7188 133.4688,30.6563 Q132.7813,29.5781 132.7813,28.2969 L132.7813,27.1406 Q132.7813,25.8125 133.3906,24.6719 Q134.0156,23.5156 135.1094,22.9063 Q136.2031,22.2813 137.4375,22.2813 Q138.1719,22.2813 138.8125,22.4531 Q139.4688,22.6094 140.0156,22.9688 Z "/><text fill="#000000" font-family="sans-serif" font-size="14" lengthAdjust="spacingAndGlyphs" textLength="77" x="157.75" y="26.5332">CookBuilder</text><text fill="#000000" font-family="sans-serif" font-size="10" lengthAdjust="spacingAndGlyphs" textLength="69" x="161.75" y="39.9902">RestaurantSim</text><line style="stroke: #A80036; stroke-width: 1.5;" x1="8" x2="352" y1="47.1875" y2="47.1875"/><ellipse cx="18" cy="58.1875" fill="#84BE84" rx="3" ry="3" style="stroke: #038048; stroke-width: 1.0;"/><text fill="#000000" font-family="sans-serif" font-size="11" lengthAdjust="spacingAndGlyphs" textLength="117" x="27" y="62.6064">buildCook(): CookBuilder</text><ellipse cx="18" cy="72.0234" fill="#84BE84" rx="3" ry="3" style="stroke: #038048; stroke-width: 1.0;"/><text fill="#000000" font-family="sans-serif" font-size="11" lengthAdjust="spacingAndGlyphs" textLength="131" x="27" y="76.4424">named(String): CookBuilder</text><ellipse cx="18" cy="85.8594" fill="#84BE84" rx="3" ry="3" style="stroke: #038048; stroke-width: 1.0;"/><text fill="#000000" font-family="sans-serif" font-size="11" lengthAdjust="spacingAndGlyphs" textLength="270" x="27" y="90.2783">namedRandomly(List&lt;String&gt;, List&lt;String&gt;): CookBuilder</text><ellipse cx="18" cy="99.6953" fill="#84BE84" rx="3" ry="3" style="stroke: #038048; stroke-width: 1.0;"/><text fill="#000000" font-family="sans-serif" font-size="11" lengthAdjust="spacingAndGlyphs" textLength="132" x="27" y="104.1143">withAgility(int): CookBuilder</text><ellipse cx="18" cy="113.5313" fill="#84BE84" rx="3" ry="3" style="stroke: #038048; stroke-width: 1.0;"/><text fill="#000000" font-family="sans-serif" font-size="11" lengthAdjust="spacingAndGlyphs" textLength="188" x="27" y="117.9502">withRandomAgility(int, int): CookBuilder</text><ellipse cx="18" cy="127.3672" fill="#84BE84" rx="3" ry="3" style="stroke: #038048; stroke-width: 1.0;"/><text fill="#000000" font-family="sans-serif" font-size="11" lengthAdjust="spacingAndGlyphs" textLength="147" x="27" y="131.7861">withSkillLevel(int): CookBuilder</text><ellipse cx="18" cy="141.2031" fill="#84BE84" rx="3" ry="3" style="stroke: #038048; stroke-width: 1.0;"/><text fill="#000000" font-family="sans-serif" font-size="11" lengthAdjust="spacingAndGlyphs" textLength="203" x="27" y="145.6221">withRandomSkillLevel(int, int): CookBuilder</text><ellipse cx="18" cy="155.0391" fill="#84BE84" rx="3" ry="3" style="stroke: #038048; stroke-width: 1.0;"/><text fill="#000000" font-family="sans-serif" font-size="11" lengthAdjust="spacingAndGlyphs" textLength="320" x="27" y="159.458">withOrderQualityDeterminer(IOrderQualityDeterminer): CookBuilder</text><ellipse cx="18" cy="168.875" fill="#84BE84" rx="3" ry="3" style="stroke: #038048; stroke-width: 1.0;"/><text fill="#000000" font-family="sans-serif" font-size="11" lengthAdjust="spacingAndGlyphs" textLength="174" x="27" y="173.2939">workingAt(Restaurant): CookBuilder</text><ellipse cx="18" cy="182.7109" fill="#84BE84" rx="3" ry="3" style="stroke: #038048; stroke-width: 1.0;"/><text fill="#000000" font-family="sans-serif" font-size="11" lengthAdjust="spacingAndGlyphs" textLength="97" x="27" y="187.1299">getBuiltCook(): Cook</text></a><text fill="#888888" font-family="sans-serif" font-size="10" lengthAdjust="spacingAndGlyphs" textLength="190" x="85" y="210.9277">UMLDoclet 2.0.12, PlantUML 1.2020.16</text><!--MD5=[cafc0799c3ba31b4ae13261179d88734]
@startuml
    set namespaceSeparator none
    hide empty fields
    hide empty methods

    class "<size:14>CookBuilder\n<size:10>RestaurantSim" as RestaurantSim.CookBuilder [[CookBuilder.html]] {
        +buildCook(): CookBuilder
        +named(String): CookBuilder
        +namedRandomly(List<String>, List<String>): CookBuilder
        +withAgility(int): CookBuilder
        +withRandomAgility(int, int): CookBuilder
        +withSkillLevel(int): CookBuilder
        +withRandomSkillLevel(int, int): CookBuilder
        +withOrderQualityDeterminer(IOrderQualityDeterminer): CookBuilder
        +workingAt(Restaurant): CookBuilder
        +getBuiltCook(): Cook
    }

    center footer UMLDoclet 2.0.12, PlantUML 1.2020.16
@enduml

PlantUML version 1.2020.16(Sun Aug 23 22:20:43 CEST 2020)
(APACHE source distribution)
Java Runtime: OpenJDK Runtime Environment
JVM: OpenJDK 64-Bit Server VM
Default Encoding: Cp1250
Language: pl
Country: PL
--></g></svg>