<?xml version="1.0" encoding="UTF-8" standalone="no"?><svg xmlns="http://www.w3.org/2000/svg" xmlns:xlink="http://www.w3.org/1999/xlink" contentScriptType="application/ecmascript" contentStyleType="text/css" height="311px" preserveAspectRatio="none" style="width:272px;height:311px;" version="1.1" viewBox="0 0 272 311" width="272px" zoomAndPan="magnify"><defs><filter height="300%" id="f4ucw1gih6uzn" width="300%" x="-1" y="-1"><feGaussianBlur result="blurOut" stdDeviation="2.0"/><feColorMatrix in="blurOut" result="blurOut2" type="matrix" values="0 0 0 0 0 0 0 0 0 0 0 0 0 0 0 0 0 0 .4 0"/><feOffset dx="4.0" dy="4.0" in="blurOut2" result="blurOut3"/><feBlend in="SourceGraphic" in2="blurOut3" mode="normal"/></filter></defs><g><!--MD5=[785b8d361e25406001fe232cbf76f569]
class RestaurantSim.Customer--><a href="Customer.html" target="_top" title="Customer.html" xlink:actuate="onRequest" xlink:href="Customer.html" xlink:show="new" xlink:title="Customer.html" xlink:type="simple"><rect codeLine="5" fill="#FEFECE" filter="url(#f4ucw1gih6uzn)" height="131.2031" id="RestaurantSim.Customer" style="stroke: #A80036; stroke-width: 1.5;" width="246" x="7" y="143"/><ellipse cx="91.25" cy="163.0938" fill="#ADD1B2" rx="11" ry="11" style="stroke: #A80036; stroke-width: 1.0;"/><path d="M94.0156,158.9688 Q94.1719,158.75 94.3594,158.6406 Q94.5469,158.5313 94.7656,158.5313 Q95.1406,158.5313 95.375,158.7969 Q95.6094,159.0469 95.6094,159.6563 L95.6094,161.1094 Q95.6094,161.7188 95.375,161.9844 Q95.1406,162.25 94.7656,162.25 Q94.4219,162.25 94.2188,162.0469 Q94.0156,161.8594 93.9063,161.3438 Q93.8594,160.9844 93.6719,160.7969 Q93.3438,160.4219 92.7344,160.2031 Q92.125,159.9844 91.5,159.9844 Q90.7344,159.9844 90.0938,160.3125 Q89.4688,160.6406 88.9688,161.3906 Q88.4844,162.1406 88.4844,163.1719 L88.4844,164.2656 Q88.4844,165.5 89.375,166.3281 Q90.2656,167.1406 91.8594,167.1406 Q92.7969,167.1406 93.4531,166.8906 Q93.8438,166.7344 94.2656,166.2969 Q94.5313,166.0313 94.6719,165.9531 Q94.8281,165.875 95.0313,165.875 Q95.3594,165.875 95.6094,166.1406 Q95.875,166.3906 95.875,166.7344 Q95.875,167.0781 95.5313,167.4844 Q95.0313,168.0625 94.2344,168.3906 Q93.1563,168.8438 91.8594,168.8438 Q90.3438,168.8438 89.1406,168.2188 Q88.1563,167.7188 87.4688,166.6563 Q86.7813,165.5781 86.7813,164.2969 L86.7813,163.1406 Q86.7813,161.8125 87.3906,160.6719 Q88.0156,159.5156 89.1094,158.9063 Q90.2031,158.2813 91.4375,158.2813 Q92.1719,158.2813 92.8125,158.4531 Q93.4688,158.6094 94.0156,158.9688 Z "/><text fill="#000000" font-family="sans-serif" font-size="14" lengthAdjust="spacingAndGlyphs" textLength="61" x="115.75" y="162.5332">Customer</text><text fill="#000000" font-family="sans-serif" font-size="10" lengthAdjust="spacingAndGlyphs" textLength="69" x="111.75" y="175.9902">RestaurantSim</text><line style="stroke: #A80036; stroke-width: 1.5;" x1="8" x2="252" y1="183.1875" y2="183.1875"/><ellipse cx="18" cy="194.1875" fill="#84BE84" rx="3" ry="3" style="stroke: #038048; stroke-width: 1.0;"/><text fill="#000000" font-family="sans-serif" font-size="11" lengthAdjust="spacingAndGlyphs" textLength="220" x="27" y="198.6064">Customer(String, int, IOrderRater, Restaurant)</text><ellipse cx="18" cy="208.0234" fill="#84BE84" rx="3" ry="3" style="stroke: #038048; stroke-width: 1.0;"/><text fill="#000000" font-family="sans-serif" font-size="11" lengthAdjust="spacingAndGlyphs" textLength="178" x="27" y="212.4424">rateRestaurant(PreparedOrder): void</text><ellipse cx="18" cy="221.8594" fill="#84BE84" rx="3" ry="3" style="stroke: #038048; stroke-width: 1.0;"/><text fill="#000000" font-family="sans-serif" font-size="11" lengthAdjust="spacingAndGlyphs" textLength="204" x="27" y="226.2783">getTickableActions(): List&lt;TickableAction&gt;</text><ellipse cx="18" cy="235.6953" fill="#84BE84" rx="3" ry="3" style="stroke: #038048; stroke-width: 1.0;"/><text fill="#000000" font-family="sans-serif" font-size="11" lengthAdjust="spacingAndGlyphs" textLength="159" x="27" y="240.1143">shouldBeUnregistered(): boolean</text><ellipse cx="18" cy="249.5313" fill="#84BE84" rx="3" ry="3" style="stroke: #038048; stroke-width: 1.0;"/><text fill="#000000" font-family="sans-serif" font-size="11" lengthAdjust="spacingAndGlyphs" textLength="144" x="27" y="253.9502">interactWithRestaurant(): void</text><ellipse cx="18" cy="263.3672" fill="#84BE84" rx="3" ry="3" style="stroke: #038048; stroke-width: 1.0;"/><text fill="#000000" font-family="sans-serif" font-size="11" lengthAdjust="spacingAndGlyphs" textLength="170" x="27" y="267.7861">receiveOrder(PreparedOrder): void</text></a><!--MD5=[506f5ffe9279332088426043cb12d185]
class RestaurantSim.RestaurantGuest--><a href="RestaurantGuest.html" target="_top" title="RestaurantGuest.html" xlink:actuate="onRequest" xlink:href="RestaurantGuest.html" xlink:show="new" xlink:title="RestaurantGuest.html" xlink:type="simple"><rect codeLine="14" fill="#FEFECE" filter="url(#f4ucw1gih6uzn)" height="75.8594" id="RestaurantSim.RestaurantGuest" style="stroke: #A80036; stroke-width: 1.5;" width="199" x="30.5" y="7"/><ellipse cx="72.05" cy="27.0938" fill="#A9DCDF" rx="11" ry="11" style="stroke: #A80036; stroke-width: 1.0;"/><path d="M74.2375,28.8594 L70.0969,28.8594 L69.675,29.8906 L70.0969,29.8906 Q70.7063,29.8906 70.9719,30.125 Q71.2375,30.3594 71.2375,30.75 Q71.2375,31.125 70.9719,31.3594 Q70.7063,31.5938 70.0969,31.5938 L67.8,31.5938 Q67.1906,31.5938 66.9406,31.3594 Q66.675,31.125 66.675,30.7344 Q66.675,30.3594 66.9563,30.125 Q67.2219,29.875 67.8469,29.8906 L70.5188,23.2344 L69.4094,23.2344 Q68.8,23.2344 68.5344,23 Q68.2688,22.7656 68.2688,22.375 Q68.2688,22 68.5344,21.7656 Q68.8,21.5313 69.4094,21.5313 L73.0813,21.5313 L76.4719,29.8906 Q77.0656,29.8906 77.2531,30.0313 Q77.6438,30.2969 77.6438,30.75 Q77.6438,31.125 77.3781,31.3594 Q77.1281,31.5938 76.5188,31.5938 L74.2219,31.5938 Q73.6125,31.5938 73.3469,31.3594 Q73.0813,31.125 73.0813,30.7344 Q73.0813,30.3594 73.3469,30.125 Q73.6125,29.8906 74.2219,29.8906 L74.6438,29.8906 L74.2375,28.8594 Z M73.5188,27.1563 L72.1594,23.7813 L70.7844,27.1563 L73.5188,27.1563 Z "/><text fill="#000000" font-family="sans-serif" font-size="14" font-style="italic" lengthAdjust="spacingAndGlyphs" textLength="108" x="91.95" y="26.5332">RestaurantGuest</text><text fill="#000000" font-family="sans-serif" font-size="10" font-style="italic" lengthAdjust="spacingAndGlyphs" textLength="68" x="111.95" y="39.9902">RestaurantSim</text><line style="stroke: #A80036; stroke-width: 1.5;" x1="31.5" x2="228.5" y1="47.1875" y2="47.1875"/><ellipse cx="41.5" cy="58.1875" fill="#84BE84" rx="3" ry="3" style="stroke: #038048; stroke-width: 1.0;"/><text fill="#000000" font-family="sans-serif" font-size="11" font-style="italic" lengthAdjust="spacingAndGlyphs" textLength="148" x="50.5" y="62.6064">interactWithRestaurant(): void</text><ellipse cx="41.5" cy="72.0234" fill="#84BE84" rx="3" ry="3" style="stroke: #038048; stroke-width: 1.0;"/><text fill="#000000" font-family="sans-serif" font-size="11" font-style="italic" lengthAdjust="spacingAndGlyphs" textLength="173" x="50.5" y="76.4424">receiveOrder(PreparedOrder): void</text></a><!--MD5=[6e52f7f03de53a388969a953545516b6]
reverse link RestaurantSim.RestaurantGuest to RestaurantSim.Customer--><path codeLine="19" d="M130,103.43 C130,116.16 130,129.74 130,142.74 " fill="none" id="RestaurantSim.RestaurantGuest-backto-RestaurantSim.Customer" style="stroke: #A80036; stroke-width: 1.0;"/><polygon fill="none" points="123,103.05,130,83.05,137,103.05,123,103.05" style="stroke: #A80036; stroke-width: 1.0;"/><text fill="#888888" font-family="sans-serif" font-size="10" lengthAdjust="spacingAndGlyphs" textLength="190" x="32" y="297.584">UMLDoclet 2.0.12, PlantUML 1.2020.16</text><!--MD5=[9702409c28bdbf4905e7fbe662b8a106]
@startuml
    set namespaceSeparator none
    hide empty fields
    hide empty methods

    class "<size:14>Customer\n<size:10>RestaurantSim" as RestaurantSim.Customer [[Customer.html]] {
        +Customer(String, int, IOrderRater, Restaurant)
        +rateRestaurant(PreparedOrder): void
        +getTickableActions(): List<TickableAction>
        +shouldBeUnregistered(): boolean
        +interactWithRestaurant(): void
        +receiveOrder(PreparedOrder): void
    }

    abstract class "<size:14>RestaurantGuest\n<size:10>RestaurantSim" as RestaurantSim.RestaurantGuest [[RestaurantGuest.html]] {
        {abstract} +interactWithRestaurant(): void
        {abstract} +receiveOrder(PreparedOrder): void
    }

    RestaurantSim.RestaurantGuest <|- - RestaurantSim.Customer

    center footer UMLDoclet 2.0.12, PlantUML 1.2020.16
@enduml

PlantUML version 1.2020.16(Sun Aug 23 22:20:43 CEST 2020)
(APACHE source distribution)
Java Runtime: OpenJDK Runtime Environment
JVM: OpenJDK 64-Bit Server VM
Default Encoding: Cp1250
Language: pl
Country: PL
--></g></svg>