<?xml version="1.0" encoding="UTF-8" standalone="no"?><svg xmlns="http://www.w3.org/2000/svg" xmlns:xlink="http://www.w3.org/1999/xlink" contentScriptType="application/ecmascript" contentStyleType="text/css" height="182px" preserveAspectRatio="none" style="width:377px;height:182px;" version="1.1" viewBox="0 0 377 182" width="377px" zoomAndPan="magnify"><defs><filter height="300%" id="f1os4qq4ihoszm" width="300%" x="-1" y="-1"><feGaussianBlur result="blurOut" stdDeviation="2.0"/><feColorMatrix in="blurOut" result="blurOut2" type="matrix" values="0 0 0 0 0 0 0 0 0 0 0 0 0 0 0 0 0 0 .4 0"/><feOffset dx="4.0" dy="4.0" in="blurOut2" result="blurOut3"/><feBlend in="SourceGraphic" in2="blurOut3" mode="normal"/></filter></defs><g><!--MD5=[76b6cc4abc8d8468040a1caa7deb87b1]
class RestaurantSim.CustomerBuilder--><a href="CustomerBuilder.html" target="_top" title="CustomerBuilder.html" xlink:actuate="onRequest" xlink:href="CustomerBuilder.html" xlink:show="new" xlink:title="CustomerBuilder.html" xlink:type="simple"><rect codeLine="5" fill="#FEFECE" filter="url(#f1os4qq4ihoszm)" height="145.0391" id="RestaurantSim.CustomerBuilder" style="stroke: #A80036; stroke-width: 1.5;" width="351" x="7" y="7"/><ellipse cx="125.75" cy="27.0938" fill="#ADD1B2" rx="11" ry="11" style="stroke: #A80036; stroke-width: 1.0;"/><path d="M128.5156,22.9688 Q128.6719,22.75 128.8594,22.6406 Q129.0469,22.5313 129.2656,22.5313 Q129.6406,22.5313 129.875,22.7969 Q130.1094,23.0469 130.1094,23.6563 L130.1094,25.1094 Q130.1094,25.7188 129.875,25.9844 Q129.6406,26.25 129.2656,26.25 Q128.9219,26.25 128.7188,26.0469 Q128.5156,25.8594 128.4063,25.3438 Q128.3594,24.9844 128.1719,24.7969 Q127.8438,24.4219 127.2344,24.2031 Q126.625,23.9844 126,23.9844 Q125.2344,23.9844 124.5938,24.3125 Q123.9688,24.6406 123.4688,25.3906 Q122.9844,26.1406 122.9844,27.1719 L122.9844,28.2656 Q122.9844,29.5 123.875,30.3281 Q124.7656,31.1406 126.3594,31.1406 Q127.2969,31.1406 127.9531,30.8906 Q128.3438,30.7344 128.7656,30.2969 Q129.0313,30.0313 129.1719,29.9531 Q129.3281,29.875 129.5313,29.875 Q129.8594,29.875 130.1094,30.1406 Q130.375,30.3906 130.375,30.7344 Q130.375,31.0781 130.0313,31.4844 Q129.5313,32.0625 128.7344,32.3906 Q127.6563,32.8438 126.3594,32.8438 Q124.8438,32.8438 123.6406,32.2188 Q122.6563,31.7188 121.9688,30.6563 Q121.2813,29.5781 121.2813,28.2969 L121.2813,27.1406 Q121.2813,25.8125 121.8906,24.6719 Q122.5156,23.5156 123.6094,22.9063 Q124.7031,22.2813 125.9375,22.2813 Q126.6719,22.2813 127.3125,22.4531 Q127.9688,22.6094 128.5156,22.9688 Z "/><text fill="#000000" font-family="sans-serif" font-size="14" lengthAdjust="spacingAndGlyphs" textLength="105" x="146.25" y="26.5332">CustomerBuilder</text><text fill="#000000" font-family="sans-serif" font-size="10" lengthAdjust="spacingAndGlyphs" textLength="69" x="164.25" y="39.9902">RestaurantSim</text><line style="stroke: #A80036; stroke-width: 1.5;" x1="8" x2="357" y1="47.1875" y2="47.1875"/><ellipse cx="18" cy="58.1875" fill="#84BE84" rx="3" ry="3" style="stroke: #038048; stroke-width: 1.0;"/><text fill="#000000" font-family="sans-serif" font-size="11" lengthAdjust="spacingAndGlyphs" textLength="325" x="27" y="62.6064">buildCustomerAssignedToRestaurant(Restaurant): CustomerBuilder</text><ellipse cx="18" cy="72.0234" fill="#84BE84" rx="3" ry="3" style="stroke: #038048; stroke-width: 1.0;"/><text fill="#000000" font-family="sans-serif" font-size="11" lengthAdjust="spacingAndGlyphs" textLength="153" x="27" y="76.4424">named(String): CustomerBuilder</text><ellipse cx="18" cy="85.8594" fill="#84BE84" rx="3" ry="3" style="stroke: #038048; stroke-width: 1.0;"/><text fill="#000000" font-family="sans-serif" font-size="11" lengthAdjust="spacingAndGlyphs" textLength="166" x="27" y="90.2783">withPatience(int): CustomerBuilder</text><ellipse cx="18" cy="99.6953" fill="#84BE84" rx="3" ry="3" style="stroke: #038048; stroke-width: 1.0;"/><text fill="#000000" font-family="sans-serif" font-size="11" lengthAdjust="spacingAndGlyphs" textLength="292" x="27" y="104.1143">namedRandomly(List&lt;String&gt;, List&lt;String&gt;): CustomerBuilder</text><ellipse cx="18" cy="113.5313" fill="#84BE84" rx="3" ry="3" style="stroke: #038048; stroke-width: 1.0;"/><text fill="#000000" font-family="sans-serif" font-size="11" lengthAdjust="spacingAndGlyphs" textLength="222" x="27" y="117.9502">withRandomPatience(int, int): CustomerBuilder</text><ellipse cx="18" cy="127.3672" fill="#84BE84" rx="3" ry="3" style="stroke: #038048; stroke-width: 1.0;"/><text fill="#000000" font-family="sans-serif" font-size="11" lengthAdjust="spacingAndGlyphs" textLength="196" x="27" y="131.7861">withRater(IOrderRater): CustomerBuilder</text><ellipse cx="18" cy="141.2031" fill="#84BE84" rx="3" ry="3" style="stroke: #038048; stroke-width: 1.0;"/><text fill="#000000" font-family="sans-serif" font-size="11" lengthAdjust="spacingAndGlyphs" textLength="141" x="27" y="145.6221">getBuiltCustomer(): Customer</text></a><text fill="#888888" font-family="sans-serif" font-size="10" lengthAdjust="spacingAndGlyphs" textLength="190" x="87.5" y="169.4199">UMLDoclet 2.0.12, PlantUML 1.2020.16</text><!--MD5=[f6de35fe7269d4b2fb46372ee68cf162]
@startuml
    set namespaceSeparator none
    hide empty fields
    hide empty methods

    class "<size:14>CustomerBuilder\n<size:10>RestaurantSim" as RestaurantSim.CustomerBuilder [[CustomerBuilder.html]] {
        +buildCustomerAssignedToRestaurant(Restaurant): CustomerBuilder
        +named(String): CustomerBuilder
        +withPatience(int): CustomerBuilder
        +namedRandomly(List<String>, List<String>): CustomerBuilder
        +withRandomPatience(int, int): CustomerBuilder
        +withRater(IOrderRater): CustomerBuilder
        +getBuiltCustomer(): Customer
    }

    center footer UMLDoclet 2.0.12, PlantUML 1.2020.16
@enduml

PlantUML version 1.2020.16(Sun Aug 23 22:20:43 CEST 2020)
(APACHE source distribution)
Java Runtime: OpenJDK Runtime Environment
JVM: OpenJDK 64-Bit Server VM
Default Encoding: Cp1250
Language: pl
Country: PL
--></g></svg>