<?xml version="1.0" encoding="UTF-8" standalone="no"?><svg xmlns="http://www.w3.org/2000/svg" xmlns:xlink="http://www.w3.org/1999/xlink" contentScriptType="application/ecmascript" contentStyleType="text/css" height="141px" preserveAspectRatio="none" style="width:202px;height:141px;" version="1.1" viewBox="0 0 202 141" width="202px" zoomAndPan="magnify"><defs><filter height="300%" id="f1sn3wrufoc4b1" width="300%" x="-1" y="-1"><feGaussianBlur result="blurOut" stdDeviation="2.0"/><feColorMatrix in="blurOut" result="blurOut2" type="matrix" values="0 0 0 0 0 0 0 0 0 0 0 0 0 0 0 0 0 0 .4 0"/><feOffset dx="4.0" dy="4.0" in="blurOut2" result="blurOut3"/><feBlend in="SourceGraphic" in2="blurOut3" mode="normal"/></filter></defs><g><!--MD5=[a06d90718eec300de09f9257f0ae4e54]
class RestaurantSim.Ingredient--><a href="Ingredient.html" target="_top" title="Ingredient.html" xlink:actuate="onRequest" xlink:href="Ingredient.html" xlink:show="new" xlink:title="Ingredient.html" xlink:type="simple"><rect codeLine="5" fill="#FEFECE" filter="url(#f1sn3wrufoc4b1)" height="103.5313" id="RestaurantSim.Ingredient" style="stroke: #A80036; stroke-width: 1.5;" width="153" x="18.5" y="7"/><ellipse cx="56.9" cy="27.0938" fill="#ADD1B2" rx="11" ry="11" style="stroke: #A80036; stroke-width: 1.0;"/><path d="M59.6656,22.9688 Q59.8219,22.75 60.0094,22.6406 Q60.1969,22.5313 60.4156,22.5313 Q60.7906,22.5313 61.025,22.7969 Q61.2594,23.0469 61.2594,23.6563 L61.2594,25.1094 Q61.2594,25.7188 61.025,25.9844 Q60.7906,26.25 60.4156,26.25 Q60.0719,26.25 59.8688,26.0469 Q59.6656,25.8594 59.5563,25.3438 Q59.5094,24.9844 59.3219,24.7969 Q58.9938,24.4219 58.3844,24.2031 Q57.775,23.9844 57.15,23.9844 Q56.3844,23.9844 55.7438,24.3125 Q55.1188,24.6406 54.6188,25.3906 Q54.1344,26.1406 54.1344,27.1719 L54.1344,28.2656 Q54.1344,29.5 55.025,30.3281 Q55.9156,31.1406 57.5094,31.1406 Q58.4469,31.1406 59.1031,30.8906 Q59.4938,30.7344 59.9156,30.2969 Q60.1813,30.0313 60.3219,29.9531 Q60.4781,29.875 60.6813,29.875 Q61.0094,29.875 61.2594,30.1406 Q61.525,30.3906 61.525,30.7344 Q61.525,31.0781 61.1813,31.4844 Q60.6813,32.0625 59.8844,32.3906 Q58.8063,32.8438 57.5094,32.8438 Q55.9938,32.8438 54.7906,32.2188 Q53.8063,31.7188 53.1188,30.6563 Q52.4313,29.5781 52.4313,28.2969 L52.4313,27.1406 Q52.4313,25.8125 53.0406,24.6719 Q53.6656,23.5156 54.7594,22.9063 Q55.8531,22.2813 57.0875,22.2813 Q57.8219,22.2813 58.4625,22.4531 Q59.1188,22.6094 59.6656,22.9688 Z "/><text fill="#000000" font-family="sans-serif" font-size="14" lengthAdjust="spacingAndGlyphs" textLength="63" x="79.1" y="26.5332">Ingredient</text><text fill="#000000" font-family="sans-serif" font-size="10" lengthAdjust="spacingAndGlyphs" textLength="69" x="76.1" y="39.9902">RestaurantSim</text><line style="stroke: #A80036; stroke-width: 1.5;" x1="19.5" x2="170.5" y1="47.1875" y2="47.1875"/><ellipse cx="29.5" cy="58.1875" fill="#84BE84" rx="3" ry="3" style="stroke: #038048; stroke-width: 1.0;"/><text fill="#000000" font-family="sans-serif" font-size="11" lengthAdjust="spacingAndGlyphs" textLength="127" x="38.5" y="62.6064">Ingredient(String, float, int)</text><ellipse cx="29.5" cy="72.0234" fill="#84BE84" rx="3" ry="3" style="stroke: #038048; stroke-width: 1.0;"/><text fill="#000000" font-family="sans-serif" font-size="11" lengthAdjust="spacingAndGlyphs" textLength="74" x="38.5" y="76.4424">getPrice(): float</text><ellipse cx="29.5" cy="85.8594" fill="#84BE84" rx="3" ry="3" style="stroke: #038048; stroke-width: 1.0;"/><text fill="#000000" font-family="sans-serif" font-size="11" lengthAdjust="spacingAndGlyphs" textLength="84" x="38.5" y="90.2783">getName(): String</text><ellipse cx="29.5" cy="99.6953" fill="#84BE84" rx="3" ry="3" style="stroke: #038048; stroke-width: 1.0;"/><text fill="#000000" font-family="sans-serif" font-size="11" lengthAdjust="spacingAndGlyphs" textLength="115" x="38.5" y="104.1143">getTicksToPrepare(): int</text></a><text fill="#888888" font-family="sans-serif" font-size="10" lengthAdjust="spacingAndGlyphs" textLength="190" x="0" y="127.9121">UMLDoclet 2.0.12, PlantUML 1.2020.16</text><!--MD5=[5eedf68633de1a41879eb5e5c9f243af]
@startuml
    set namespaceSeparator none
    hide empty fields
    hide empty methods

    class "<size:14>Ingredient\n<size:10>RestaurantSim" as RestaurantSim.Ingredient [[Ingredient.html]] {
        +Ingredient(String, float, int)
        +getPrice(): float
        +getName(): String
        +getTicksToPrepare(): int
    }

    center footer UMLDoclet 2.0.12, PlantUML 1.2020.16
@enduml

PlantUML version 1.2020.16(Sun Aug 23 22:20:43 CEST 2020)
(APACHE source distribution)
Java Runtime: OpenJDK Runtime Environment
JVM: OpenJDK 64-Bit Server VM
Default Encoding: Cp1250
Language: pl
Country: PL
--></g></svg>