<?xml version="1.0" encoding="UTF-8" standalone="no"?><svg xmlns="http://www.w3.org/2000/svg" xmlns:xlink="http://www.w3.org/1999/xlink" contentScriptType="application/ecmascript" contentStyleType="text/css" height="155px" preserveAspectRatio="none" style="width:291px;height:155px;" version="1.1" viewBox="0 0 291 155" width="291px" zoomAndPan="magnify"><defs><filter height="300%" id="f1e23p3ummfacl" width="300%" x="-1" y="-1"><feGaussianBlur result="blurOut" stdDeviation="2.0"/><feColorMatrix in="blurOut" result="blurOut2" type="matrix" values="0 0 0 0 0 0 0 0 0 0 0 0 0 0 0 0 0 0 .4 0"/><feOffset dx="4.0" dy="4.0" in="blurOut2" result="blurOut3"/><feBlend in="SourceGraphic" in2="blurOut3" mode="normal"/></filter></defs><g><!--MD5=[46ce4f16e98e9fb025d68f018cccb43d]
class RestaurantSim.Menu--><a href="Menu.html" target="_top" title="Menu.html" xlink:actuate="onRequest" xlink:href="Menu.html" xlink:show="new" xlink:title="Menu.html" xlink:type="simple"><rect codeLine="5" fill="#FEFECE" filter="url(#f1e23p3ummfacl)" height="117.3672" id="RestaurantSim.Menu" style="stroke: #A80036; stroke-width: 1.5;" width="265" x="7" y="7"/><ellipse cx="100.75" cy="27.0938" fill="#ADD1B2" rx="11" ry="11" style="stroke: #A80036; stroke-width: 1.0;"/><path d="M103.5156,22.9688 Q103.6719,22.75 103.8594,22.6406 Q104.0469,22.5313 104.2656,22.5313 Q104.6406,22.5313 104.875,22.7969 Q105.1094,23.0469 105.1094,23.6563 L105.1094,25.1094 Q105.1094,25.7188 104.875,25.9844 Q104.6406,26.25 104.2656,26.25 Q103.9219,26.25 103.7188,26.0469 Q103.5156,25.8594 103.4063,25.3438 Q103.3594,24.9844 103.1719,24.7969 Q102.8438,24.4219 102.2344,24.2031 Q101.625,23.9844 101,23.9844 Q100.2344,23.9844 99.5938,24.3125 Q98.9688,24.6406 98.4688,25.3906 Q97.9844,26.1406 97.9844,27.1719 L97.9844,28.2656 Q97.9844,29.5 98.875,30.3281 Q99.7656,31.1406 101.3594,31.1406 Q102.2969,31.1406 102.9531,30.8906 Q103.3438,30.7344 103.7656,30.2969 Q104.0313,30.0313 104.1719,29.9531 Q104.3281,29.875 104.5313,29.875 Q104.8594,29.875 105.1094,30.1406 Q105.375,30.3906 105.375,30.7344 Q105.375,31.0781 105.0313,31.4844 Q104.5313,32.0625 103.7344,32.3906 Q102.6563,32.8438 101.3594,32.8438 Q99.8438,32.8438 98.6406,32.2188 Q97.6563,31.7188 96.9688,30.6563 Q96.2813,29.5781 96.2813,28.2969 L96.2813,27.1406 Q96.2813,25.8125 96.8906,24.6719 Q97.5156,23.5156 98.6094,22.9063 Q99.7031,22.2813 100.9375,22.2813 Q101.6719,22.2813 102.3125,22.4531 Q102.9688,22.6094 103.5156,22.9688 Z "/><text fill="#000000" font-family="sans-serif" font-size="14" lengthAdjust="spacingAndGlyphs" textLength="35" x="138.25" y="26.5332">Menu</text><text fill="#000000" font-family="sans-serif" font-size="10" lengthAdjust="spacingAndGlyphs" textLength="69" x="121.25" y="39.9902">RestaurantSim</text><line style="stroke: #A80036; stroke-width: 1.5;" x1="8" x2="271" y1="47.1875" y2="47.1875"/><ellipse cx="18" cy="58.1875" fill="#84BE84" rx="3" ry="3" style="stroke: #038048; stroke-width: 1.0;"/><text fill="#000000" font-family="sans-serif" font-size="11" lengthAdjust="spacingAndGlyphs" textLength="80" x="27" y="62.6064">Menu(FoodData)</text><ellipse cx="18" cy="72.0234" fill="#84BE84" rx="3" ry="3" style="stroke: #038048; stroke-width: 1.0;"/><text fill="#000000" font-family="sans-serif" font-size="11" lengthAdjust="spacingAndGlyphs" textLength="193" x="27" y="76.4424">getAvailableDishes(): Map&lt;String, Dish&gt;</text><ellipse cx="18" cy="85.8594" fill="#84BE84" rx="3" ry="3" style="stroke: #038048; stroke-width: 1.0;"/><text fill="#000000" font-family="sans-serif" font-size="11" lengthAdjust="spacingAndGlyphs" textLength="239" x="27" y="90.2783">getAvailableIngredients(): Map&lt;String, Ingredient&gt;</text><ellipse cx="18" cy="99.6953" fill="#84BE84" rx="3" ry="3" style="stroke: #038048; stroke-width: 1.0;"/><text fill="#000000" font-family="sans-serif" font-size="11" lengthAdjust="spacingAndGlyphs" textLength="110" x="27" y="104.1143">getRandomDish(): Dish</text><ellipse cx="18" cy="113.5313" fill="#84BE84" rx="3" ry="3" style="stroke: #038048; stroke-width: 1.0;"/><text fill="#000000" font-family="sans-serif" font-size="11" lengthAdjust="spacingAndGlyphs" textLength="162" x="27" y="117.9502">getRandomIngredient(): Ingredient</text></a><text fill="#888888" font-family="sans-serif" font-size="10" lengthAdjust="spacingAndGlyphs" textLength="190" x="44.5" y="141.748">UMLDoclet 2.0.12, PlantUML 1.2020.16</text><!--MD5=[ac60586c7d0e45adc88994c131b1edfe]
@startuml
    set namespaceSeparator none
    hide empty fields
    hide empty methods

    class "<size:14>Menu\n<size:10>RestaurantSim" as RestaurantSim.Menu [[Menu.html]] {
        +Menu(FoodData)
        +getAvailableDishes(): Map<String, Dish>
        +getAvailableIngredients(): Map<String, Ingredient>
        +getRandomDish(): Dish
        +getRandomIngredient(): Ingredient
    }

    center footer UMLDoclet 2.0.12, PlantUML 1.2020.16
@enduml

PlantUML version 1.2020.16(Sun Aug 23 22:20:43 CEST 2020)
(APACHE source distribution)
Java Runtime: OpenJDK Runtime Environment
JVM: OpenJDK 64-Bit Server VM
Default Encoding: Cp1250
Language: pl
Country: PL
--></g></svg>