<?xml version="1.0" encoding="UTF-8" standalone="no"?><svg xmlns="http://www.w3.org/2000/svg" xmlns:xlink="http://www.w3.org/1999/xlink" contentScriptType="application/ecmascript" contentStyleType="text/css" height="113px" preserveAspectRatio="none" style="width:202px;height:113px;" version="1.1" viewBox="0 0 202 113" width="202px" zoomAndPan="magnify"><defs><filter height="300%" id="f1diheckp7g870" width="300%" x="-1" y="-1"><feGaussianBlur result="blurOut" stdDeviation="2.0"/><feColorMatrix in="blurOut" result="blurOut2" type="matrix" values="0 0 0 0 0 0 0 0 0 0 0 0 0 0 0 0 0 0 .4 0"/><feOffset dx="4.0" dy="4.0" in="blurOut2" result="blurOut3"/><feBlend in="SourceGraphic" in2="blurOut3" mode="normal"/></filter></defs><g><!--MD5=[fa08ca38d77dd0998c725ad1739cf608]
class RestaurantSim.OrderReceipt--><a href="OrderReceipt.html" target="_top" title="OrderReceipt.html" xlink:actuate="onRequest" xlink:href="OrderReceipt.html" xlink:show="new" xlink:title="OrderReceipt.html" xlink:type="simple"><rect codeLine="5" fill="#FEFECE" filter="url(#f1diheckp7g870)" height="75.8594" id="RestaurantSim.OrderReceipt" style="stroke: #A80036; stroke-width: 1.5;" width="117" x="36.5" y="7"/><ellipse cx="51.5" cy="27.0938" fill="#ADD1B2" rx="11" ry="11" style="stroke: #A80036; stroke-width: 1.0;"/><path d="M54.2656,22.9688 Q54.4219,22.75 54.6094,22.6406 Q54.7969,22.5313 55.0156,22.5313 Q55.3906,22.5313 55.625,22.7969 Q55.8594,23.0469 55.8594,23.6563 L55.8594,25.1094 Q55.8594,25.7188 55.625,25.9844 Q55.3906,26.25 55.0156,26.25 Q54.6719,26.25 54.4688,26.0469 Q54.2656,25.8594 54.1563,25.3438 Q54.1094,24.9844 53.9219,24.7969 Q53.5938,24.4219 52.9844,24.2031 Q52.375,23.9844 51.75,23.9844 Q50.9844,23.9844 50.3438,24.3125 Q49.7188,24.6406 49.2188,25.3906 Q48.7344,26.1406 48.7344,27.1719 L48.7344,28.2656 Q48.7344,29.5 49.625,30.3281 Q50.5156,31.1406 52.1094,31.1406 Q53.0469,31.1406 53.7031,30.8906 Q54.0938,30.7344 54.5156,30.2969 Q54.7813,30.0313 54.9219,29.9531 Q55.0781,29.875 55.2813,29.875 Q55.6094,29.875 55.8594,30.1406 Q56.125,30.3906 56.125,30.7344 Q56.125,31.0781 55.7813,31.4844 Q55.2813,32.0625 54.4844,32.3906 Q53.4063,32.8438 52.1094,32.8438 Q50.5938,32.8438 49.3906,32.2188 Q48.4063,31.7188 47.7188,30.6563 Q47.0313,29.5781 47.0313,28.2969 L47.0313,27.1406 Q47.0313,25.8125 47.6406,24.6719 Q48.2656,23.5156 49.3594,22.9063 Q50.4531,22.2813 51.6875,22.2813 Q52.4219,22.2813 53.0625,22.4531 Q53.7188,22.6094 54.2656,22.9688 Z "/><text fill="#000000" font-family="sans-serif" font-size="14" lengthAdjust="spacingAndGlyphs" textLength="85" x="65.5" y="26.5332">OrderReceipt</text><text fill="#000000" font-family="sans-serif" font-size="10" lengthAdjust="spacingAndGlyphs" textLength="69" x="73.5" y="39.9902">RestaurantSim</text><line style="stroke: #A80036; stroke-width: 1.5;" x1="37.5" x2="152.5" y1="47.1875" y2="47.1875"/><ellipse cx="47.5" cy="58.1875" fill="#84BE84" rx="3" ry="3" style="stroke: #038048; stroke-width: 1.0;"/><text fill="#000000" font-family="sans-serif" font-size="11" lengthAdjust="spacingAndGlyphs" textLength="83" x="56.5" y="62.6064">OrderReceipt(int)</text><ellipse cx="47.5" cy="72.0234" fill="#84BE84" rx="3" ry="3" style="stroke: #038048; stroke-width: 1.0;"/><text fill="#000000" font-family="sans-serif" font-size="11" lengthAdjust="spacingAndGlyphs" textLength="77" x="56.5" y="76.4424">getOrderID(): int</text></a><text fill="#888888" font-family="sans-serif" font-size="10" lengthAdjust="spacingAndGlyphs" textLength="190" x="0" y="100.2402">UMLDoclet 2.0.12, PlantUML 1.2020.16</text><!--MD5=[423126bca827531e6ba2cbf98063d910]
@startuml
    set namespaceSeparator none
    hide empty fields
    hide empty methods

    class "<size:14>OrderReceipt\n<size:10>RestaurantSim" as RestaurantSim.OrderReceipt [[OrderReceipt.html]] {
        +OrderReceipt(int)
        +getOrderID(): int
    }

    center footer UMLDoclet 2.0.12, PlantUML 1.2020.16
@enduml

PlantUML version 1.2020.16(Sun Aug 23 22:20:43 CEST 2020)
(APACHE source distribution)
Java Runtime: OpenJDK Runtime Environment
JVM: OpenJDK 64-Bit Server VM
Default Encoding: Cp1250
Language: pl
Country: PL
--></g></svg>