<?xml version="1.0" encoding="UTF-8" standalone="no"?><svg xmlns="http://www.w3.org/2000/svg" xmlns:xlink="http://www.w3.org/1999/xlink" contentScriptType="application/ecmascript" contentStyleType="text/css" height="1112px" preserveAspectRatio="none" style="width:3235px;height:1112px;" version="1.1" viewBox="0 0 3235 1112" width="3235px" zoomAndPan="magnify"><defs><filter height="300%" id="f1jqe2f4eipe0r" width="300%" x="-1" y="-1"><feGaussianBlur result="blurOut" stdDeviation="2.0"/><feColorMatrix in="blurOut" result="blurOut2" type="matrix" values="0 0 0 0 0 0 0 0 0 0 0 0 0 0 0 0 0 0 .4 0"/><feOffset dx="4.0" dy="4.0" in="blurOut2" result="blurOut3"/><feBlend in="SourceGraphic" in2="blurOut3" mode="normal"/></filter></defs><g><!--MD5=[aa428ce6992b52632ddc83d10b93a317]
cluster RestaurantSim--><polygon fill="#FFFFFF" filter="url(#f1jqe2f4eipe0r)" points="16,48.51,124,48.51,131,72.1194,2362,72.1194,2362,1082.51,16,1082.51,16,48.51" style="stroke: #000000; stroke-width: 1.5;"/><line style="stroke: #000000; stroke-width: 1.5;" x1="16" x2="131" y1="72.1194" y2="72.1194"/><text fill="#000000" font-family="sans-serif" font-size="14" font-weight="bold" lengthAdjust="spacingAndGlyphs" textLength="102" x="20" y="65.0432">RestaurantSim</text><!--MD5=[a3737c970611d55a8799f8b5c7cdb303]
cluster RestaurantSim.SimulationSystem--><polygon fill="#FFFFFF" filter="url(#f1jqe2f4eipe0r)" points="2386,111.01,2621,111.01,2628,134.6194,3213,134.6194,3213,211.01,2386,211.01,2386,111.01" style="stroke: #000000; stroke-width: 1.5;"/><line style="stroke: #000000; stroke-width: 1.5;" x1="2386" x2="2628" y1="134.6194" y2="134.6194"/><text fill="#000000" font-family="sans-serif" font-size="14" font-weight="bold" lengthAdjust="spacingAndGlyphs" textLength="229" x="2390" y="127.5432">RestaurantSim.SimulationSystem</text><!--MD5=[6b2d2bf5793864e07c74cd521dfcceaa]
class RestaurantSim.AverageRateBasedEvaluationService--><a href="AverageRateBasedEvaluationService.html" target="_top" title="AverageRateBasedEvaluationService.html" xlink:actuate="onRequest" xlink:href="AverageRateBasedEvaluationService.html" xlink:show="new" xlink:title="AverageRateBasedEvaluationService.html" xlink:type="simple"><rect codeLine="3" fill="#FEFECE" filter="url(#f1jqe2f4eipe0r)" height="61.8359" id="RestaurantSim.AverageRateBasedEvaluationService" style="stroke: #A80036; stroke-width: 1.5;" width="260" x="351" y="140.01"/><ellipse cx="377.25" cy="156.01" fill="#ADD1B2" rx="11" ry="11" style="stroke: #A80036; stroke-width: 1.0;"/><path d="M380.0156,151.885 Q380.1719,151.6663 380.3594,151.5569 Q380.5469,151.4475 380.7656,151.4475 Q381.1406,151.4475 381.375,151.7131 Q381.6094,151.9631 381.6094,152.5725 L381.6094,154.0256 Q381.6094,154.635 381.375,154.9006 Q381.1406,155.1663 380.7656,155.1663 Q380.4219,155.1663 380.2188,154.9631 Q380.0156,154.7756 379.9063,154.26 Q379.8594,153.9006 379.6719,153.7131 Q379.3438,153.3381 378.7344,153.1194 Q378.125,152.9006 377.5,152.9006 Q376.7344,152.9006 376.0938,153.2288 Q375.4688,153.5569 374.9688,154.3069 Q374.4844,155.0569 374.4844,156.0881 L374.4844,157.1819 Q374.4844,158.4163 375.375,159.2444 Q376.2656,160.0569 377.8594,160.0569 Q378.7969,160.0569 379.4531,159.8069 Q379.8438,159.6506 380.2656,159.2131 Q380.5313,158.9475 380.6719,158.8694 Q380.8281,158.7913 381.0313,158.7913 Q381.3594,158.7913 381.6094,159.0569 Q381.875,159.3069 381.875,159.6506 Q381.875,159.9944 381.5313,160.4006 Q381.0313,160.9788 380.2344,161.3069 Q379.1563,161.76 377.8594,161.76 Q376.3438,161.76 375.1406,161.135 Q374.1563,160.635 373.4688,159.5725 Q372.7813,158.4944 372.7813,157.2131 L372.7813,156.0569 Q372.7813,154.7288 373.3906,153.5881 Q374.0156,152.4319 375.1094,151.8225 Q376.2031,151.1975 377.4375,151.1975 Q378.1719,151.1975 378.8125,151.3694 Q379.4688,151.5256 380.0156,151.885 Z "/><text fill="#000000" font-family="sans-serif" font-size="12" lengthAdjust="spacingAndGlyphs" textLength="203" x="393.75" y="160.9202">AverageRateBasedEvaluationService</text><line style="stroke: #A80036; stroke-width: 1.5;" x1="352" x2="610" y1="172.01" y2="172.01"/><line style="stroke: #A80036; stroke-width: 1.5;" x1="352" x2="610" y1="180.01" y2="180.01"/><ellipse cx="362" cy="191.01" fill="#84BE84" rx="3" ry="3" style="stroke: #038048; stroke-width: 1.0;"/><text fill="#000000" font-family="sans-serif" font-size="11" lengthAdjust="spacingAndGlyphs" textLength="234" x="371" y="195.4289">restaurantShouldBeClosed(Restaurant): boolean</text></a><!--MD5=[6ee7145bc6fc5e3c445e3d692c2bd556]
class RestaurantSim.Cook--><a href="Cook.html" target="_top" title="Cook.html" xlink:actuate="onRequest" xlink:href="Cook.html" xlink:show="new" xlink:title="Cook.html" xlink:type="simple"><rect codeLine="7" fill="#FEFECE" filter="url(#f1jqe2f4eipe0r)" height="131.0156" id="RestaurantSim.Cook" style="stroke: #A80036; stroke-width: 1.5;" width="300" x="2046" y="377.01"/><ellipse cx="2177.25" cy="393.01" fill="#ADD1B2" rx="11" ry="11" style="stroke: #A80036; stroke-width: 1.0;"/><path d="M2180.0156,388.885 Q2180.1719,388.6663 2180.3594,388.5569 Q2180.5469,388.4475 2180.7656,388.4475 Q2181.1406,388.4475 2181.375,388.7131 Q2181.6094,388.9631 2181.6094,389.5725 L2181.6094,391.0256 Q2181.6094,391.635 2181.375,391.9006 Q2181.1406,392.1663 2180.7656,392.1663 Q2180.4219,392.1663 2180.2188,391.9631 Q2180.0156,391.7756 2179.9063,391.26 Q2179.8594,390.9006 2179.6719,390.7131 Q2179.3438,390.3381 2178.7344,390.1194 Q2178.125,389.9006 2177.5,389.9006 Q2176.7344,389.9006 2176.0938,390.2288 Q2175.4688,390.5569 2174.9688,391.3069 Q2174.4844,392.0569 2174.4844,393.0881 L2174.4844,394.1819 Q2174.4844,395.4163 2175.375,396.2444 Q2176.2656,397.0569 2177.8594,397.0569 Q2178.7969,397.0569 2179.4531,396.8069 Q2179.8438,396.6506 2180.2656,396.2131 Q2180.5313,395.9475 2180.6719,395.8694 Q2180.8281,395.7913 2181.0313,395.7913 Q2181.3594,395.7913 2181.6094,396.0569 Q2181.875,396.3069 2181.875,396.6506 Q2181.875,396.9944 2181.5313,397.4006 Q2181.0313,397.9788 2180.2344,398.3069 Q2179.1563,398.76 2177.8594,398.76 Q2176.3438,398.76 2175.1406,398.135 Q2174.1563,397.635 2173.4688,396.5725 Q2172.7813,395.4944 2172.7813,394.2131 L2172.7813,393.0569 Q2172.7813,391.7288 2173.3906,390.5881 Q2174.0156,389.4319 2175.1094,388.8225 Q2176.2031,388.1975 2177.4375,388.1975 Q2178.1719,388.1975 2178.8125,388.3694 Q2179.4688,388.5256 2180.0156,388.885 Z "/><text fill="#000000" font-family="sans-serif" font-size="12" lengthAdjust="spacingAndGlyphs" textLength="29" x="2197.75" y="397.9202">Cook</text><line style="stroke: #A80036; stroke-width: 1.5;" x1="2047" x2="2345" y1="409.01" y2="409.01"/><line style="stroke: #A80036; stroke-width: 1.5;" x1="2047" x2="2345" y1="417.01" y2="417.01"/><ellipse cx="2057" cy="428.01" fill="#84BE84" rx="3" ry="3" style="stroke: #038048; stroke-width: 1.0;"/><text fill="#000000" font-family="sans-serif" font-size="11" lengthAdjust="spacingAndGlyphs" textLength="274" x="2066" y="432.4289">Cook(String, int, int, IOrderQualityDeterminer, Restaurant)</text><ellipse cx="2057" cy="441.8459" fill="#84BE84" rx="3" ry="3" style="stroke: #038048; stroke-width: 1.0;"/><text fill="#000000" font-family="sans-serif" font-size="11" lengthAdjust="spacingAndGlyphs" textLength="132" x="2066" y="446.2649">makeOrder(Order, int): void</text><ellipse cx="2057" cy="455.6819" fill="#84BE84" rx="3" ry="3" style="stroke: #038048; stroke-width: 1.0;"/><text fill="#000000" font-family="sans-serif" font-size="11" lengthAdjust="spacingAndGlyphs" textLength="85" x="2066" y="460.1008">isBusy(): boolean</text><ellipse cx="2057" cy="469.5178" fill="#84BE84" rx="3" ry="3" style="stroke: #038048; stroke-width: 1.0;"/><text fill="#000000" font-family="sans-serif" font-size="11" lengthAdjust="spacingAndGlyphs" textLength="84" x="2066" y="473.9368">getName(): String</text><ellipse cx="2057" cy="483.3538" fill="#84BE84" rx="3" ry="3" style="stroke: #038048; stroke-width: 1.0;"/><text fill="#000000" font-family="sans-serif" font-size="11" lengthAdjust="spacingAndGlyphs" textLength="159" x="2066" y="487.7727">shouldBeUnregistered(): boolean</text><ellipse cx="2057" cy="497.1897" fill="#84BE84" rx="3" ry="3" style="stroke: #038048; stroke-width: 1.0;"/><text fill="#000000" font-family="sans-serif" font-size="11" lengthAdjust="spacingAndGlyphs" textLength="84" x="2066" y="501.6086">getSkillLevel(): int</text></a><!--MD5=[8d8f0b87bf2274a133209b84d3477a87]
class RestaurantSim.CookBuilder--><a href="CookBuilder.html" target="_top" title="CookBuilder.html" xlink:actuate="onRequest" xlink:href="CookBuilder.html" xlink:show="new" xlink:title="CookBuilder.html" xlink:type="simple"><rect codeLine="16" fill="#FEFECE" filter="url(#f1jqe2f4eipe0r)" height="172.5234" id="RestaurantSim.CookBuilder" style="stroke: #A80036; stroke-width: 1.5;" width="346" x="2000" y="84.51"/><ellipse cx="2134.75" cy="100.51" fill="#ADD1B2" rx="11" ry="11" style="stroke: #A80036; stroke-width: 1.0;"/><path d="M2137.5156,96.385 Q2137.6719,96.1662 2137.8594,96.0569 Q2138.0469,95.9475 2138.2656,95.9475 Q2138.6406,95.9475 2138.875,96.2131 Q2139.1094,96.4631 2139.1094,97.0725 L2139.1094,98.5256 Q2139.1094,99.135 2138.875,99.4006 Q2138.6406,99.6662 2138.2656,99.6662 Q2137.9219,99.6662 2137.7188,99.4631 Q2137.5156,99.2756 2137.4063,98.76 Q2137.3594,98.4006 2137.1719,98.2131 Q2136.8438,97.8381 2136.2344,97.6194 Q2135.625,97.4006 2135,97.4006 Q2134.2344,97.4006 2133.5938,97.7287 Q2132.9688,98.0569 2132.4688,98.8069 Q2131.9844,99.5569 2131.9844,100.5881 L2131.9844,101.6819 Q2131.9844,102.9162 2132.875,103.7444 Q2133.7656,104.5569 2135.3594,104.5569 Q2136.2969,104.5569 2136.9531,104.3069 Q2137.3438,104.1506 2137.7656,103.7131 Q2138.0313,103.4475 2138.1719,103.3694 Q2138.3281,103.2912 2138.5313,103.2912 Q2138.8594,103.2912 2139.1094,103.5569 Q2139.375,103.8069 2139.375,104.1506 Q2139.375,104.4944 2139.0313,104.9006 Q2138.5313,105.4787 2137.7344,105.8069 Q2136.6563,106.26 2135.3594,106.26 Q2133.8438,106.26 2132.6406,105.635 Q2131.6563,105.135 2130.9688,104.0725 Q2130.2813,102.9944 2130.2813,101.7131 L2130.2813,100.5569 Q2130.2813,99.2287 2130.8906,98.0881 Q2131.5156,96.9319 2132.6094,96.3225 Q2133.7031,95.6975 2134.9375,95.6975 Q2135.6719,95.6975 2136.3125,95.8694 Q2136.9688,96.0256 2137.5156,96.385 Z "/><text fill="#000000" font-family="sans-serif" font-size="12" lengthAdjust="spacingAndGlyphs" textLength="68" x="2155.25" y="105.4202">CookBuilder</text><line style="stroke: #A80036; stroke-width: 1.5;" x1="2001" x2="2345" y1="116.51" y2="116.51"/><line style="stroke: #A80036; stroke-width: 1.5;" x1="2001" x2="2345" y1="124.51" y2="124.51"/><ellipse cx="2011" cy="135.51" fill="#84BE84" rx="3" ry="3" style="stroke: #038048; stroke-width: 1.0;"/><text fill="#000000" font-family="sans-serif" font-size="11" lengthAdjust="spacingAndGlyphs" textLength="117" x="2020" y="139.9289">buildCook(): CookBuilder</text><ellipse cx="2011" cy="149.3459" fill="#84BE84" rx="3" ry="3" style="stroke: #038048; stroke-width: 1.0;"/><text fill="#000000" font-family="sans-serif" font-size="11" lengthAdjust="spacingAndGlyphs" textLength="131" x="2020" y="153.7649">named(String): CookBuilder</text><ellipse cx="2011" cy="163.1819" fill="#84BE84" rx="3" ry="3" style="stroke: #038048; stroke-width: 1.0;"/><text fill="#000000" font-family="sans-serif" font-size="11" lengthAdjust="spacingAndGlyphs" textLength="270" x="2020" y="167.6008">namedRandomly(List&lt;String&gt;, List&lt;String&gt;): CookBuilder</text><ellipse cx="2011" cy="177.0178" fill="#84BE84" rx="3" ry="3" style="stroke: #038048; stroke-width: 1.0;"/><text fill="#000000" font-family="sans-serif" font-size="11" lengthAdjust="spacingAndGlyphs" textLength="132" x="2020" y="181.4368">withAgility(int): CookBuilder</text><ellipse cx="2011" cy="190.8538" fill="#84BE84" rx="3" ry="3" style="stroke: #038048; stroke-width: 1.0;"/><text fill="#000000" font-family="sans-serif" font-size="11" lengthAdjust="spacingAndGlyphs" textLength="188" x="2020" y="195.2727">withRandomAgility(int, int): CookBuilder</text><ellipse cx="2011" cy="204.6897" fill="#84BE84" rx="3" ry="3" style="stroke: #038048; stroke-width: 1.0;"/><text fill="#000000" font-family="sans-serif" font-size="11" lengthAdjust="spacingAndGlyphs" textLength="147" x="2020" y="209.1086">withSkillLevel(int): CookBuilder</text><ellipse cx="2011" cy="218.5256" fill="#84BE84" rx="3" ry="3" style="stroke: #038048; stroke-width: 1.0;"/><text fill="#000000" font-family="sans-serif" font-size="11" lengthAdjust="spacingAndGlyphs" textLength="203" x="2020" y="222.9446">withRandomSkillLevel(int, int): CookBuilder</text><ellipse cx="2011" cy="232.3616" fill="#84BE84" rx="3" ry="3" style="stroke: #038048; stroke-width: 1.0;"/><text fill="#000000" font-family="sans-serif" font-size="11" lengthAdjust="spacingAndGlyphs" textLength="320" x="2020" y="236.7805">withOrderQualityDeterminer(IOrderQualityDeterminer): CookBuilder</text><ellipse cx="2011" cy="246.1975" fill="#84BE84" rx="3" ry="3" style="stroke: #038048; stroke-width: 1.0;"/><text fill="#000000" font-family="sans-serif" font-size="11" lengthAdjust="spacingAndGlyphs" textLength="174" x="2020" y="250.6164">workingAt(Restaurant): CookBuilder</text></a><!--MD5=[785b8d361e25406001fe232cbf76f569]
class RestaurantSim.Customer--><a href="Customer.html" target="_top" title="Customer.html" xlink:actuate="onRequest" xlink:href="Customer.html" xlink:show="new" xlink:title="Customer.html" xlink:type="simple"><rect codeLine="28" fill="#FEFECE" filter="url(#f1jqe2f4eipe0r)" height="117.1797" id="RestaurantSim.Customer" style="stroke: #A80036; stroke-width: 1.5;" width="246" x="1032" y="384.01"/><ellipse cx="1123.25" cy="400.01" fill="#ADD1B2" rx="11" ry="11" style="stroke: #A80036; stroke-width: 1.0;"/><path d="M1126.0156,395.885 Q1126.1719,395.6663 1126.3594,395.5569 Q1126.5469,395.4475 1126.7656,395.4475 Q1127.1406,395.4475 1127.375,395.7131 Q1127.6094,395.9631 1127.6094,396.5725 L1127.6094,398.0256 Q1127.6094,398.635 1127.375,398.9006 Q1127.1406,399.1663 1126.7656,399.1663 Q1126.4219,399.1663 1126.2188,398.9631 Q1126.0156,398.7756 1125.9063,398.26 Q1125.8594,397.9006 1125.6719,397.7131 Q1125.3438,397.3381 1124.7344,397.1194 Q1124.125,396.9006 1123.5,396.9006 Q1122.7344,396.9006 1122.0938,397.2288 Q1121.4688,397.5569 1120.9688,398.3069 Q1120.4844,399.0569 1120.4844,400.0881 L1120.4844,401.1819 Q1120.4844,402.4163 1121.375,403.2444 Q1122.2656,404.0569 1123.8594,404.0569 Q1124.7969,404.0569 1125.4531,403.8069 Q1125.8438,403.6506 1126.2656,403.2131 Q1126.5313,402.9475 1126.6719,402.8694 Q1126.8281,402.7913 1127.0313,402.7913 Q1127.3594,402.7913 1127.6094,403.0569 Q1127.875,403.3069 1127.875,403.6506 Q1127.875,403.9944 1127.5313,404.4006 Q1127.0313,404.9788 1126.2344,405.3069 Q1125.1563,405.76 1123.8594,405.76 Q1122.3438,405.76 1121.1406,405.135 Q1120.1563,404.635 1119.4688,403.5725 Q1118.7813,402.4944 1118.7813,401.2131 L1118.7813,400.0569 Q1118.7813,398.7288 1119.3906,397.5881 Q1120.0156,396.4319 1121.1094,395.8225 Q1122.2031,395.1975 1123.4375,395.1975 Q1124.1719,395.1975 1124.8125,395.3694 Q1125.4688,395.5256 1126.0156,395.885 Z "/><text fill="#000000" font-family="sans-serif" font-size="12" lengthAdjust="spacingAndGlyphs" textLength="55" x="1143.75" y="404.9202">Customer</text><line style="stroke: #A80036; stroke-width: 1.5;" x1="1033" x2="1277" y1="416.01" y2="416.01"/><line style="stroke: #A80036; stroke-width: 1.5;" x1="1033" x2="1277" y1="424.01" y2="424.01"/><ellipse cx="1043" cy="435.01" fill="#84BE84" rx="3" ry="3" style="stroke: #038048; stroke-width: 1.0;"/><text fill="#000000" font-family="sans-serif" font-size="11" lengthAdjust="spacingAndGlyphs" textLength="220" x="1052" y="439.4289">Customer(String, int, IOrderRater, Restaurant)</text><ellipse cx="1043" cy="448.8459" fill="#84BE84" rx="3" ry="3" style="stroke: #038048; stroke-width: 1.0;"/><text fill="#000000" font-family="sans-serif" font-size="11" lengthAdjust="spacingAndGlyphs" textLength="178" x="1052" y="453.2649">rateRestaurant(PreparedOrder): void</text><ellipse cx="1043" cy="462.6819" fill="#84BE84" rx="3" ry="3" style="stroke: #038048; stroke-width: 1.0;"/><text fill="#000000" font-family="sans-serif" font-size="11" lengthAdjust="spacingAndGlyphs" textLength="159" x="1052" y="467.1008">shouldBeUnregistered(): boolean</text><ellipse cx="1043" cy="476.5178" fill="#84BE84" rx="3" ry="3" style="stroke: #038048; stroke-width: 1.0;"/><text fill="#000000" font-family="sans-serif" font-size="11" lengthAdjust="spacingAndGlyphs" textLength="144" x="1052" y="480.9368">interactWithRestaurant(): void</text><ellipse cx="1043" cy="490.3538" fill="#84BE84" rx="3" ry="3" style="stroke: #038048; stroke-width: 1.0;"/><text fill="#000000" font-family="sans-serif" font-size="11" lengthAdjust="spacingAndGlyphs" textLength="170" x="1052" y="494.7727">receiveOrder(PreparedOrder): void</text></a><!--MD5=[76b6cc4abc8d8468040a1caa7deb87b1]
class RestaurantSim.CustomerBuilder--><a href="CustomerBuilder.html" target="_top" title="CustomerBuilder.html" xlink:actuate="onRequest" xlink:href="CustomerBuilder.html" xlink:show="new" xlink:title="CustomerBuilder.html" xlink:type="simple"><rect codeLine="36" fill="#FEFECE" filter="url(#f1jqe2f4eipe0r)" height="131.0156" id="RestaurantSim.CustomerBuilder" style="stroke: #A80036; stroke-width: 1.5;" width="351" x="1358.5" y="105.51"/><ellipse cx="1482.75" cy="121.51" fill="#ADD1B2" rx="11" ry="11" style="stroke: #A80036; stroke-width: 1.0;"/><path d="M1485.5156,117.385 Q1485.6719,117.1662 1485.8594,117.0569 Q1486.0469,116.9475 1486.2656,116.9475 Q1486.6406,116.9475 1486.875,117.2131 Q1487.1094,117.4631 1487.1094,118.0725 L1487.1094,119.5256 Q1487.1094,120.135 1486.875,120.4006 Q1486.6406,120.6662 1486.2656,120.6662 Q1485.9219,120.6662 1485.7188,120.4631 Q1485.5156,120.2756 1485.4063,119.76 Q1485.3594,119.4006 1485.1719,119.2131 Q1484.8438,118.8381 1484.2344,118.6194 Q1483.625,118.4006 1483,118.4006 Q1482.2344,118.4006 1481.5938,118.7287 Q1480.9688,119.0569 1480.4688,119.8069 Q1479.9844,120.5569 1479.9844,121.5881 L1479.9844,122.6819 Q1479.9844,123.9162 1480.875,124.7444 Q1481.7656,125.5569 1483.3594,125.5569 Q1484.2969,125.5569 1484.9531,125.3069 Q1485.3438,125.1506 1485.7656,124.7131 Q1486.0313,124.4475 1486.1719,124.3694 Q1486.3281,124.2912 1486.5313,124.2912 Q1486.8594,124.2912 1487.1094,124.5569 Q1487.375,124.8069 1487.375,125.1506 Q1487.375,125.4944 1487.0313,125.9006 Q1486.5313,126.4787 1485.7344,126.8069 Q1484.6563,127.26 1483.3594,127.26 Q1481.8438,127.26 1480.6406,126.635 Q1479.6563,126.135 1478.9688,125.0725 Q1478.2813,123.9944 1478.2813,122.7131 L1478.2813,121.5569 Q1478.2813,120.2287 1478.8906,119.0881 Q1479.5156,117.9319 1480.6094,117.3225 Q1481.7031,116.6975 1482.9375,116.6975 Q1483.6719,116.6975 1484.3125,116.8694 Q1484.9688,117.0256 1485.5156,117.385 Z "/><text fill="#000000" font-family="sans-serif" font-size="12" lengthAdjust="spacingAndGlyphs" textLength="94" x="1503.25" y="126.4202">CustomerBuilder</text><line style="stroke: #A80036; stroke-width: 1.5;" x1="1359.5" x2="1708.5" y1="137.51" y2="137.51"/><line style="stroke: #A80036; stroke-width: 1.5;" x1="1359.5" x2="1708.5" y1="145.51" y2="145.51"/><ellipse cx="1369.5" cy="156.51" fill="#84BE84" rx="3" ry="3" style="stroke: #038048; stroke-width: 1.0;"/><text fill="#000000" font-family="sans-serif" font-size="11" lengthAdjust="spacingAndGlyphs" textLength="325" x="1378.5" y="160.9289">buildCustomerAssignedToRestaurant(Restaurant): CustomerBuilder</text><ellipse cx="1369.5" cy="170.3459" fill="#84BE84" rx="3" ry="3" style="stroke: #038048; stroke-width: 1.0;"/><text fill="#000000" font-family="sans-serif" font-size="11" lengthAdjust="spacingAndGlyphs" textLength="153" x="1378.5" y="174.7649">named(String): CustomerBuilder</text><ellipse cx="1369.5" cy="184.1819" fill="#84BE84" rx="3" ry="3" style="stroke: #038048; stroke-width: 1.0;"/><text fill="#000000" font-family="sans-serif" font-size="11" lengthAdjust="spacingAndGlyphs" textLength="166" x="1378.5" y="188.6008">withPatience(int): CustomerBuilder</text><ellipse cx="1369.5" cy="198.0178" fill="#84BE84" rx="3" ry="3" style="stroke: #038048; stroke-width: 1.0;"/><text fill="#000000" font-family="sans-serif" font-size="11" lengthAdjust="spacingAndGlyphs" textLength="292" x="1378.5" y="202.4368">namedRandomly(List&lt;String&gt;, List&lt;String&gt;): CustomerBuilder</text><ellipse cx="1369.5" cy="211.8538" fill="#84BE84" rx="3" ry="3" style="stroke: #038048; stroke-width: 1.0;"/><text fill="#000000" font-family="sans-serif" font-size="11" lengthAdjust="spacingAndGlyphs" textLength="222" x="1378.5" y="216.2727">withRandomPatience(int, int): CustomerBuilder</text><ellipse cx="1369.5" cy="225.6897" fill="#84BE84" rx="3" ry="3" style="stroke: #038048; stroke-width: 1.0;"/><text fill="#000000" font-family="sans-serif" font-size="11" lengthAdjust="spacingAndGlyphs" textLength="196" x="1378.5" y="230.1086">withRater(IOrderRater): CustomerBuilder</text></a><!--MD5=[e11a7fd2d646197688bdb0edbaf15b5a]
class RestaurantSim.Dish--><a href="Dish.html" target="_top" title="Dish.html" xlink:actuate="onRequest" xlink:href="Dish.html" xlink:show="new" xlink:title="Dish.html" xlink:type="simple"><rect codeLine="45" fill="#FEFECE" filter="url(#f1jqe2f4eipe0r)" height="89.5078" id="RestaurantSim.Dish" style="stroke: #A80036; stroke-width: 1.5;" width="165" x="2015.5" y="795.51"/><ellipse cx="2080.75" cy="811.51" fill="#ADD1B2" rx="11" ry="11" style="stroke: #A80036; stroke-width: 1.0;"/><path d="M2083.5156,807.385 Q2083.6719,807.1663 2083.8594,807.0569 Q2084.0469,806.9475 2084.2656,806.9475 Q2084.6406,806.9475 2084.875,807.2131 Q2085.1094,807.4631 2085.1094,808.0725 L2085.1094,809.5256 Q2085.1094,810.135 2084.875,810.4006 Q2084.6406,810.6663 2084.2656,810.6663 Q2083.9219,810.6663 2083.7188,810.4631 Q2083.5156,810.2756 2083.4063,809.76 Q2083.3594,809.4006 2083.1719,809.2131 Q2082.8438,808.8381 2082.2344,808.6194 Q2081.625,808.4006 2081,808.4006 Q2080.2344,808.4006 2079.5938,808.7288 Q2078.9688,809.0569 2078.4688,809.8069 Q2077.9844,810.5569 2077.9844,811.5881 L2077.9844,812.6819 Q2077.9844,813.9163 2078.875,814.7444 Q2079.7656,815.5569 2081.3594,815.5569 Q2082.2969,815.5569 2082.9531,815.3069 Q2083.3438,815.1506 2083.7656,814.7131 Q2084.0313,814.4475 2084.1719,814.3694 Q2084.3281,814.2913 2084.5313,814.2913 Q2084.8594,814.2913 2085.1094,814.5569 Q2085.375,814.8069 2085.375,815.1506 Q2085.375,815.4944 2085.0313,815.9006 Q2084.5313,816.4788 2083.7344,816.8069 Q2082.6563,817.26 2081.3594,817.26 Q2079.8438,817.26 2078.6406,816.635 Q2077.6563,816.135 2076.9688,815.0725 Q2076.2813,813.9944 2076.2813,812.7131 L2076.2813,811.5569 Q2076.2813,810.2288 2076.8906,809.0881 Q2077.5156,807.9319 2078.6094,807.3225 Q2079.7031,806.6975 2080.9375,806.6975 Q2081.6719,806.6975 2082.3125,806.8694 Q2082.9688,807.0256 2083.5156,807.385 Z "/><text fill="#000000" font-family="sans-serif" font-size="12" lengthAdjust="spacingAndGlyphs" textLength="26" x="2101.25" y="816.4202">Dish</text><line style="stroke: #A80036; stroke-width: 1.5;" x1="2016.5" x2="2179.5" y1="827.51" y2="827.51"/><line style="stroke: #A80036; stroke-width: 1.5;" x1="2016.5" x2="2179.5" y1="835.51" y2="835.51"/><ellipse cx="2026.5" cy="846.51" fill="#84BE84" rx="3" ry="3" style="stroke: #038048; stroke-width: 1.0;"/><text fill="#000000" font-family="sans-serif" font-size="11" lengthAdjust="spacingAndGlyphs" textLength="139" x="2035.5" y="850.9289">Dish(List&lt;Ingredient&gt;, String)</text><ellipse cx="2026.5" cy="860.3459" fill="#84BE84" rx="3" ry="3" style="stroke: #038048; stroke-width: 1.0;"/><text fill="#000000" font-family="sans-serif" font-size="11" lengthAdjust="spacingAndGlyphs" textLength="74" x="2035.5" y="864.7649">getPrice(): float</text><ellipse cx="2026.5" cy="874.1819" fill="#84BE84" rx="3" ry="3" style="stroke: #038048; stroke-width: 1.0;"/><text fill="#000000" font-family="sans-serif" font-size="11" lengthAdjust="spacingAndGlyphs" textLength="84" x="2035.5" y="878.6008">getName(): String</text></a><!--MD5=[a06d90718eec300de09f9257f0ae4e54]
class RestaurantSim.Ingredient--><a href="Ingredient.html" target="_top" title="Ingredient.html" xlink:actuate="onRequest" xlink:href="Ingredient.html" xlink:show="new" xlink:title="Ingredient.html" xlink:type="simple"><rect codeLine="51" fill="#FEFECE" filter="url(#f1jqe2f4eipe0r)" height="103.3438" id="RestaurantSim.Ingredient" style="stroke: #A80036; stroke-width: 1.5;" width="153" x="1867.5" y="963.51"/><ellipse cx="1912.25" cy="979.51" fill="#ADD1B2" rx="11" ry="11" style="stroke: #A80036; stroke-width: 1.0;"/><path d="M1915.0156,975.385 Q1915.1719,975.1663 1915.3594,975.0569 Q1915.5469,974.9475 1915.7656,974.9475 Q1916.1406,974.9475 1916.375,975.2131 Q1916.6094,975.4631 1916.6094,976.0725 L1916.6094,977.5256 Q1916.6094,978.135 1916.375,978.4006 Q1916.1406,978.6663 1915.7656,978.6663 Q1915.4219,978.6663 1915.2188,978.4631 Q1915.0156,978.2756 1914.9063,977.76 Q1914.8594,977.4006 1914.6719,977.2131 Q1914.3438,976.8381 1913.7344,976.6194 Q1913.125,976.4006 1912.5,976.4006 Q1911.7344,976.4006 1911.0938,976.7288 Q1910.4688,977.0569 1909.9688,977.8069 Q1909.4844,978.5569 1909.4844,979.5881 L1909.4844,980.6819 Q1909.4844,981.9163 1910.375,982.7444 Q1911.2656,983.5569 1912.8594,983.5569 Q1913.7969,983.5569 1914.4531,983.3069 Q1914.8438,983.1506 1915.2656,982.7131 Q1915.5313,982.4475 1915.6719,982.3694 Q1915.8281,982.2913 1916.0313,982.2913 Q1916.3594,982.2913 1916.6094,982.5569 Q1916.875,982.8069 1916.875,983.1506 Q1916.875,983.4944 1916.5313,983.9006 Q1916.0313,984.4788 1915.2344,984.8069 Q1914.1563,985.26 1912.8594,985.26 Q1911.3438,985.26 1910.1406,984.635 Q1909.1563,984.135 1908.4688,983.0725 Q1907.7813,981.9944 1907.7813,980.7131 L1907.7813,979.5569 Q1907.7813,978.2288 1908.3906,977.0881 Q1909.0156,975.9319 1910.1094,975.3225 Q1911.2031,974.6975 1912.4375,974.6975 Q1913.1719,974.6975 1913.8125,974.8694 Q1914.4688,975.0256 1915.0156,975.385 Z "/><text fill="#000000" font-family="sans-serif" font-size="12" lengthAdjust="spacingAndGlyphs" textLength="55" x="1932.75" y="984.4202">Ingredient</text><line style="stroke: #A80036; stroke-width: 1.5;" x1="1868.5" x2="2019.5" y1="995.51" y2="995.51"/><line style="stroke: #A80036; stroke-width: 1.5;" x1="1868.5" x2="2019.5" y1="1003.51" y2="1003.51"/><ellipse cx="1878.5" cy="1014.51" fill="#84BE84" rx="3" ry="3" style="stroke: #038048; stroke-width: 1.0;"/><text fill="#000000" font-family="sans-serif" font-size="11" lengthAdjust="spacingAndGlyphs" textLength="127" x="1887.5" y="1018.9289">Ingredient(String, float, int)</text><ellipse cx="1878.5" cy="1028.3459" fill="#84BE84" rx="3" ry="3" style="stroke: #038048; stroke-width: 1.0;"/><text fill="#000000" font-family="sans-serif" font-size="11" lengthAdjust="spacingAndGlyphs" textLength="74" x="1887.5" y="1032.7649">getPrice(): float</text><ellipse cx="1878.5" cy="1042.1819" fill="#84BE84" rx="3" ry="3" style="stroke: #038048; stroke-width: 1.0;"/><text fill="#000000" font-family="sans-serif" font-size="11" lengthAdjust="spacingAndGlyphs" textLength="84" x="1887.5" y="1046.6008">getName(): String</text><ellipse cx="1878.5" cy="1056.0178" fill="#84BE84" rx="3" ry="3" style="stroke: #038048; stroke-width: 1.0;"/><text fill="#000000" font-family="sans-serif" font-size="11" lengthAdjust="spacingAndGlyphs" textLength="115" x="1887.5" y="1060.4368">getTicksToPrepare(): int</text></a><!--MD5=[46ce4f16e98e9fb025d68f018cccb43d]
class RestaurantSim.Menu--><a href="Menu.html" target="_top" title="Menu.html" xlink:actuate="onRequest" xlink:href="Menu.html" xlink:show="new" xlink:title="Menu.html" xlink:type="simple"><rect codeLine="58" fill="#FEFECE" filter="url(#f1jqe2f4eipe0r)" height="89.5078" id="RestaurantSim.Menu" style="stroke: #A80036; stroke-width: 1.5;" width="265" x="1746.5" y="627.51"/><ellipse cx="1859.75" cy="643.51" fill="#ADD1B2" rx="11" ry="11" style="stroke: #A80036; stroke-width: 1.0;"/><path d="M1862.5156,639.385 Q1862.6719,639.1663 1862.8594,639.0569 Q1863.0469,638.9475 1863.2656,638.9475 Q1863.6406,638.9475 1863.875,639.2131 Q1864.1094,639.4631 1864.1094,640.0725 L1864.1094,641.5256 Q1864.1094,642.135 1863.875,642.4006 Q1863.6406,642.6663 1863.2656,642.6663 Q1862.9219,642.6663 1862.7188,642.4631 Q1862.5156,642.2756 1862.4063,641.76 Q1862.3594,641.4006 1862.1719,641.2131 Q1861.8438,640.8381 1861.2344,640.6194 Q1860.625,640.4006 1860,640.4006 Q1859.2344,640.4006 1858.5938,640.7288 Q1857.9688,641.0569 1857.4688,641.8069 Q1856.9844,642.5569 1856.9844,643.5881 L1856.9844,644.6819 Q1856.9844,645.9163 1857.875,646.7444 Q1858.7656,647.5569 1860.3594,647.5569 Q1861.2969,647.5569 1861.9531,647.3069 Q1862.3438,647.1506 1862.7656,646.7131 Q1863.0313,646.4475 1863.1719,646.3694 Q1863.3281,646.2913 1863.5313,646.2913 Q1863.8594,646.2913 1864.1094,646.5569 Q1864.375,646.8069 1864.375,647.1506 Q1864.375,647.4944 1864.0313,647.9006 Q1863.5313,648.4788 1862.7344,648.8069 Q1861.6563,649.26 1860.3594,649.26 Q1858.8438,649.26 1857.6406,648.635 Q1856.6563,648.135 1855.9688,647.0725 Q1855.2813,645.9944 1855.2813,644.7131 L1855.2813,643.5569 Q1855.2813,642.2288 1855.8906,641.0881 Q1856.5156,639.9319 1857.6094,639.3225 Q1858.7031,638.6975 1859.9375,638.6975 Q1860.6719,638.6975 1861.3125,638.8694 Q1861.9688,639.0256 1862.5156,639.385 Z "/><text fill="#000000" font-family="sans-serif" font-size="12" lengthAdjust="spacingAndGlyphs" textLength="30" x="1880.25" y="648.4202">Menu</text><line style="stroke: #A80036; stroke-width: 1.5;" x1="1747.5" x2="2010.5" y1="659.51" y2="659.51"/><line style="stroke: #A80036; stroke-width: 1.5;" x1="1747.5" x2="2010.5" y1="667.51" y2="667.51"/><ellipse cx="1757.5" cy="678.51" fill="#84BE84" rx="3" ry="3" style="stroke: #038048; stroke-width: 1.0;"/><text fill="#000000" font-family="sans-serif" font-size="11" lengthAdjust="spacingAndGlyphs" textLength="80" x="1766.5" y="682.9289">Menu(FoodData)</text><ellipse cx="1757.5" cy="692.3459" fill="#84BE84" rx="3" ry="3" style="stroke: #038048; stroke-width: 1.0;"/><text fill="#000000" font-family="sans-serif" font-size="11" lengthAdjust="spacingAndGlyphs" textLength="193" x="1766.5" y="696.7649">getAvailableDishes(): Map&lt;String, Dish&gt;</text><ellipse cx="1757.5" cy="706.1819" fill="#84BE84" rx="3" ry="3" style="stroke: #038048; stroke-width: 1.0;"/><text fill="#000000" font-family="sans-serif" font-size="11" lengthAdjust="spacingAndGlyphs" textLength="239" x="1766.5" y="710.6008">getAvailableIngredients(): Map&lt;String, Ingredient&gt;</text></a><!--MD5=[80b58388d8f8e51f140ca6ac63be3fb5]
class RestaurantSim.Order--><a href="Order.html" target="_top" title="Order.html" xlink:actuate="onRequest" xlink:href="Order.html" xlink:show="new" xlink:title="Order.html" xlink:type="simple"><rect codeLine="64" fill="#FEFECE" filter="url(#f1jqe2f4eipe0r)" height="75.6719" id="RestaurantSim.Order" style="stroke: #A80036; stroke-width: 1.5;" width="123" x="2046.5" y="634.51"/><ellipse cx="2088.5" cy="650.51" fill="#ADD1B2" rx="11" ry="11" style="stroke: #A80036; stroke-width: 1.0;"/><path d="M2091.2656,646.385 Q2091.4219,646.1663 2091.6094,646.0569 Q2091.7969,645.9475 2092.0156,645.9475 Q2092.3906,645.9475 2092.625,646.2131 Q2092.8594,646.4631 2092.8594,647.0725 L2092.8594,648.5256 Q2092.8594,649.135 2092.625,649.4006 Q2092.3906,649.6663 2092.0156,649.6663 Q2091.6719,649.6663 2091.4688,649.4631 Q2091.2656,649.2756 2091.1563,648.76 Q2091.1094,648.4006 2090.9219,648.2131 Q2090.5938,647.8381 2089.9844,647.6194 Q2089.375,647.4006 2088.75,647.4006 Q2087.9844,647.4006 2087.3438,647.7288 Q2086.7188,648.0569 2086.2188,648.8069 Q2085.7344,649.5569 2085.7344,650.5881 L2085.7344,651.6819 Q2085.7344,652.9163 2086.625,653.7444 Q2087.5156,654.5569 2089.1094,654.5569 Q2090.0469,654.5569 2090.7031,654.3069 Q2091.0938,654.1506 2091.5156,653.7131 Q2091.7813,653.4475 2091.9219,653.3694 Q2092.0781,653.2913 2092.2813,653.2913 Q2092.6094,653.2913 2092.8594,653.5569 Q2093.125,653.8069 2093.125,654.1506 Q2093.125,654.4944 2092.7813,654.9006 Q2092.2813,655.4788 2091.4844,655.8069 Q2090.4063,656.26 2089.1094,656.26 Q2087.5938,656.26 2086.3906,655.635 Q2085.4063,655.135 2084.7188,654.0725 Q2084.0313,652.9944 2084.0313,651.7131 L2084.0313,650.5569 Q2084.0313,649.2288 2084.6406,648.0881 Q2085.2656,646.9319 2086.3594,646.3225 Q2087.4531,645.6975 2088.6875,645.6975 Q2089.4219,645.6975 2090.0625,645.8694 Q2090.7188,646.0256 2091.2656,646.385 Z "/><text fill="#000000" font-family="sans-serif" font-size="12" lengthAdjust="spacingAndGlyphs" textLength="31" x="2108.5" y="655.4202">Order</text><line style="stroke: #A80036; stroke-width: 1.5;" x1="2047.5" x2="2168.5" y1="666.51" y2="666.51"/><line style="stroke: #A80036; stroke-width: 1.5;" x1="2047.5" x2="2168.5" y1="674.51" y2="674.51"/><ellipse cx="2057.5" cy="685.51" fill="#84BE84" rx="3" ry="3" style="stroke: #038048; stroke-width: 1.0;"/><text fill="#000000" font-family="sans-serif" font-size="11" lengthAdjust="spacingAndGlyphs" textLength="86" x="2066.5" y="689.9289">Order(List&lt;Dish&gt;)</text><ellipse cx="2057.5" cy="699.3459" fill="#84BE84" rx="3" ry="3" style="stroke: #038048; stroke-width: 1.0;"/><text fill="#000000" font-family="sans-serif" font-size="11" lengthAdjust="spacingAndGlyphs" textLength="97" x="2066.5" y="703.7649">getTotalPrice(): float</text></a><!--MD5=[fa08ca38d77dd0998c725ad1739cf608]
class RestaurantSim.OrderReceipt--><a href="OrderReceipt.html" target="_top" title="OrderReceipt.html" xlink:actuate="onRequest" xlink:href="OrderReceipt.html" xlink:show="new" xlink:title="OrderReceipt.html" xlink:type="simple"><rect codeLine="69" fill="#FEFECE" filter="url(#f1jqe2f4eipe0r)" height="75.6719" id="RestaurantSim.OrderReceipt" style="stroke: #A80036; stroke-width: 1.5;" width="109" x="1313.5" y="404.51"/><ellipse cx="1330.3" cy="420.51" fill="#ADD1B2" rx="11" ry="11" style="stroke: #A80036; stroke-width: 1.0;"/><path d="M1333.0656,416.385 Q1333.2219,416.1663 1333.4094,416.0569 Q1333.5969,415.9475 1333.8156,415.9475 Q1334.1906,415.9475 1334.425,416.2131 Q1334.6594,416.4631 1334.6594,417.0725 L1334.6594,418.5256 Q1334.6594,419.135 1334.425,419.4006 Q1334.1906,419.6663 1333.8156,419.6663 Q1333.4719,419.6663 1333.2688,419.4631 Q1333.0656,419.2756 1332.9563,418.76 Q1332.9094,418.4006 1332.7219,418.2131 Q1332.3938,417.8381 1331.7844,417.6194 Q1331.175,417.4006 1330.55,417.4006 Q1329.7844,417.4006 1329.1438,417.7288 Q1328.5188,418.0569 1328.0188,418.8069 Q1327.5344,419.5569 1327.5344,420.5881 L1327.5344,421.6819 Q1327.5344,422.9163 1328.425,423.7444 Q1329.3156,424.5569 1330.9094,424.5569 Q1331.8469,424.5569 1332.5031,424.3069 Q1332.8938,424.1506 1333.3156,423.7131 Q1333.5813,423.4475 1333.7219,423.3694 Q1333.8781,423.2913 1334.0813,423.2913 Q1334.4094,423.2913 1334.6594,423.5569 Q1334.925,423.8069 1334.925,424.1506 Q1334.925,424.4944 1334.5813,424.9006 Q1334.0813,425.4788 1333.2844,425.8069 Q1332.2063,426.26 1330.9094,426.26 Q1329.3938,426.26 1328.1906,425.635 Q1327.2063,425.135 1326.5188,424.0725 Q1325.8313,422.9944 1325.8313,421.7131 L1325.8313,420.5569 Q1325.8313,419.2288 1326.4406,418.0881 Q1327.0656,416.9319 1328.1594,416.3225 Q1329.2531,415.6975 1330.4875,415.6975 Q1331.2219,415.6975 1331.8625,415.8694 Q1332.5188,416.0256 1333.0656,416.385 Z "/><text fill="#000000" font-family="sans-serif" font-size="12" lengthAdjust="spacingAndGlyphs" textLength="73" x="1344.7" y="425.4202">OrderReceipt</text><line style="stroke: #A80036; stroke-width: 1.5;" x1="1314.5" x2="1421.5" y1="436.51" y2="436.51"/><line style="stroke: #A80036; stroke-width: 1.5;" x1="1314.5" x2="1421.5" y1="444.51" y2="444.51"/><ellipse cx="1324.5" cy="455.51" fill="#84BE84" rx="3" ry="3" style="stroke: #038048; stroke-width: 1.0;"/><text fill="#000000" font-family="sans-serif" font-size="11" lengthAdjust="spacingAndGlyphs" textLength="83" x="1333.5" y="459.9289">OrderReceipt(int)</text><ellipse cx="1324.5" cy="469.3459" fill="#84BE84" rx="3" ry="3" style="stroke: #038048; stroke-width: 1.0;"/><text fill="#000000" font-family="sans-serif" font-size="11" lengthAdjust="spacingAndGlyphs" textLength="77" x="1333.5" y="473.7649">getOrderID(): int</text></a><!--MD5=[66931b675c1d699a4c4ef195d55ce0cc]
class RestaurantSim.PreparedOrder--><a href="PreparedOrder.html" target="_top" title="PreparedOrder.html" xlink:actuate="onRequest" xlink:href="PreparedOrder.html" xlink:show="new" xlink:title="PreparedOrder.html" xlink:type="simple"><rect codeLine="74" fill="#FEFECE" filter="url(#f1jqe2f4eipe0r)" height="89.5078" id="RestaurantSim.PreparedOrder" style="stroke: #A80036; stroke-width: 1.5;" width="284" x="32" y="126.01"/><ellipse cx="128.75" cy="142.01" fill="#ADD1B2" rx="11" ry="11" style="stroke: #A80036; stroke-width: 1.0;"/><path d="M131.5156,137.885 Q131.6719,137.6663 131.8594,137.5569 Q132.0469,137.4475 132.2656,137.4475 Q132.6406,137.4475 132.875,137.7131 Q133.1094,137.9631 133.1094,138.5725 L133.1094,140.0256 Q133.1094,140.635 132.875,140.9006 Q132.6406,141.1663 132.2656,141.1663 Q131.9219,141.1663 131.7188,140.9631 Q131.5156,140.7756 131.4063,140.26 Q131.3594,139.9006 131.1719,139.7131 Q130.8438,139.3381 130.2344,139.1194 Q129.625,138.9006 129,138.9006 Q128.2344,138.9006 127.5938,139.2288 Q126.9688,139.5569 126.4688,140.3069 Q125.9844,141.0569 125.9844,142.0881 L125.9844,143.1819 Q125.9844,144.4163 126.875,145.2444 Q127.7656,146.0569 129.3594,146.0569 Q130.2969,146.0569 130.9531,145.8069 Q131.3438,145.6506 131.7656,145.2131 Q132.0313,144.9475 132.1719,144.8694 Q132.3281,144.7913 132.5313,144.7913 Q132.8594,144.7913 133.1094,145.0569 Q133.375,145.3069 133.375,145.6506 Q133.375,145.9944 133.0313,146.4006 Q132.5313,146.9788 131.7344,147.3069 Q130.6563,147.76 129.3594,147.76 Q127.8438,147.76 126.6406,147.135 Q125.6563,146.635 124.9688,145.5725 Q124.2813,144.4944 124.2813,143.2131 L124.2813,142.0569 Q124.2813,140.7288 124.8906,139.5881 Q125.5156,138.4319 126.6094,137.8225 Q127.7031,137.1975 128.9375,137.1975 Q129.6719,137.1975 130.3125,137.3694 Q130.9688,137.5256 131.5156,137.885 Z "/><text fill="#000000" font-family="sans-serif" font-size="12" lengthAdjust="spacingAndGlyphs" textLength="82" x="149.25" y="146.9202">PreparedOrder</text><line style="stroke: #A80036; stroke-width: 1.5;" x1="33" x2="315" y1="158.01" y2="158.01"/><line style="stroke: #A80036; stroke-width: 1.5;" x1="33" x2="315" y1="166.01" y2="166.01"/><ellipse cx="43" cy="177.01" fill="#84BE84" rx="3" ry="3" style="stroke: #038048; stroke-width: 1.0;"/><text fill="#000000" font-family="sans-serif" font-size="11" lengthAdjust="spacingAndGlyphs" textLength="258" x="52" y="181.4289">PreparedOrder(List&lt;Dish&gt;, int, PreparedOrderQuality)</text><ellipse cx="43" cy="190.8459" fill="#84BE84" rx="3" ry="3" style="stroke: #038048; stroke-width: 1.0;"/><text fill="#000000" font-family="sans-serif" font-size="11" lengthAdjust="spacingAndGlyphs" textLength="236" x="52" y="195.2649">PreparedOrder(Order, int, PreparedOrderQuality)</text><ellipse cx="43" cy="204.6819" fill="#84BE84" rx="3" ry="3" style="stroke: #038048; stroke-width: 1.0;"/><text fill="#000000" font-family="sans-serif" font-size="11" lengthAdjust="spacingAndGlyphs" textLength="49" x="52" y="209.1008">getID(): int</text></a><!--MD5=[f86cf63807d50ab04cba580e5a5807fb]
class RestaurantSim.PreparedOrderQuality--><a href="PreparedOrderQuality.html" target="_top" title="PreparedOrderQuality.html" xlink:actuate="onRequest" xlink:href="PreparedOrderQuality.html" xlink:show="new" xlink:title="PreparedOrderQuality.html" xlink:type="simple"><rect codeLine="80" fill="#FEFECE" filter="url(#f1jqe2f4eipe0r)" height="117.1797" id="RestaurantSim.PreparedOrderQuality" style="stroke: #A80036; stroke-width: 1.5;" width="151" x="98.5" y="384.01"/><ellipse cx="113.5" cy="400.01" fill="#EB937F" rx="11" ry="11" style="stroke: #A80036; stroke-width: 1.0;"/><path d="M112.3594,400.8069 L112.3594,403.3069 L116.6875,403.3069 L116.6875,402.385 Q116.6875,401.7756 116.9219,401.51 Q117.1719,401.2444 117.5469,401.2444 Q117.9219,401.2444 118.1563,401.51 Q118.3906,401.7756 118.3906,402.385 L118.3906,405.01 L110.3906,405.01 Q109.7656,405.01 109.5,404.7756 Q109.25,404.5413 109.25,404.1506 Q109.25,403.7756 109.5156,403.5413 Q109.7813,403.3069 110.3906,403.3069 L110.6563,403.3069 L110.6563,396.6506 L110.3906,396.6506 Q109.7656,396.6506 109.5,396.4163 Q109.25,396.1819 109.25,395.7913 Q109.25,395.4163 109.5,395.1819 Q109.7656,394.9475 110.3906,394.9475 L118.0156,394.9475 L118.0156,397.5413 Q118.0156,398.1506 117.7813,398.4163 Q117.5625,398.6663 117.1719,398.6663 Q116.7969,398.6663 116.5625,398.4163 Q116.3281,398.1506 116.3281,397.5413 L116.3281,396.6506 L112.3594,396.6506 L112.3594,399.1038 L113.8438,399.1038 Q113.8438,398.4475 113.9688,398.26 Q114.2344,397.8538 114.7031,397.8538 Q115.0781,397.8538 115.3125,398.1194 Q115.5469,398.3694 115.5469,398.9788 L115.5469,400.9475 Q115.5469,401.4944 115.4219,401.6819 Q115.1563,402.0725 114.7031,402.0725 Q114.2344,402.0725 113.9688,401.6663 Q113.8438,401.4788 113.8438,400.8069 L112.3594,400.8069 Z "/><text fill="#000000" font-family="sans-serif" font-size="12" lengthAdjust="spacingAndGlyphs" textLength="119" x="127.5" y="404.9202">PreparedOrderQuality</text><line style="stroke: #A80036; stroke-width: 1.5;" x1="99.5" x2="248.5" y1="416.01" y2="416.01"/><ellipse cx="109.5" cy="427.01" fill="none" rx="3" ry="3" style="stroke: #038048; stroke-width: 1.0;"/><text fill="#000000" font-family="sans-serif" font-size="11" lengthAdjust="spacingAndGlyphs" text-decoration="underline" textLength="36" x="118.5" y="431.4289">Inedible</text><ellipse cx="109.5" cy="440.8459" fill="none" rx="3" ry="3" style="stroke: #038048; stroke-width: 1.0;"/><text fill="#000000" font-family="sans-serif" font-size="11" lengthAdjust="spacingAndGlyphs" text-decoration="underline" textLength="19" x="118.5" y="445.2649">Bad</text><ellipse cx="109.5" cy="454.6819" fill="none" rx="3" ry="3" style="stroke: #038048; stroke-width: 1.0;"/><text fill="#000000" font-family="sans-serif" font-size="11" lengthAdjust="spacingAndGlyphs" text-decoration="underline" textLength="42" x="118.5" y="459.1008">Average</text><ellipse cx="109.5" cy="468.5178" fill="none" rx="3" ry="3" style="stroke: #038048; stroke-width: 1.0;"/><text fill="#000000" font-family="sans-serif" font-size="11" lengthAdjust="spacingAndGlyphs" text-decoration="underline" textLength="26" x="118.5" y="472.9368">Good</text><ellipse cx="109.5" cy="482.3538" fill="none" rx="3" ry="3" style="stroke: #038048; stroke-width: 1.0;"/><text fill="#000000" font-family="sans-serif" font-size="11" lengthAdjust="spacingAndGlyphs" text-decoration="underline" textLength="43" x="118.5" y="486.7727">Excellent</text><line style="stroke: #A80036; stroke-width: 1.5;" x1="99.5" x2="248.5" y1="493.1897" y2="493.1897"/></a><!--MD5=[738a5e5fe23e0e2c28c6198bad0c959d]
class RestaurantSim.Program--><a href="Program.html" target="_top" title="Program.html" xlink:actuate="onRequest" xlink:href="Program.html" xlink:show="new" xlink:title="Program.html" xlink:type="simple"><rect codeLine="88" fill="#FEFECE" filter="url(#f1jqe2f4eipe0r)" height="61.8359" id="RestaurantSim.Program" style="stroke: #A80036; stroke-width: 1.5;" width="116" x="861" y="140.01"/><ellipse cx="892.2" cy="156.01" fill="#ADD1B2" rx="11" ry="11" style="stroke: #A80036; stroke-width: 1.0;"/><path d="M894.9656,151.885 Q895.1219,151.6663 895.3094,151.5569 Q895.4969,151.4475 895.7156,151.4475 Q896.0906,151.4475 896.325,151.7131 Q896.5594,151.9631 896.5594,152.5725 L896.5594,154.0256 Q896.5594,154.635 896.325,154.9006 Q896.0906,155.1663 895.7156,155.1663 Q895.3719,155.1663 895.1688,154.9631 Q894.9656,154.7756 894.8563,154.26 Q894.8094,153.9006 894.6219,153.7131 Q894.2938,153.3381 893.6844,153.1194 Q893.075,152.9006 892.45,152.9006 Q891.6844,152.9006 891.0438,153.2288 Q890.4188,153.5569 889.9188,154.3069 Q889.4344,155.0569 889.4344,156.0881 L889.4344,157.1819 Q889.4344,158.4163 890.325,159.2444 Q891.2156,160.0569 892.8094,160.0569 Q893.7469,160.0569 894.4031,159.8069 Q894.7938,159.6506 895.2156,159.2131 Q895.4813,158.9475 895.6219,158.8694 Q895.7781,158.7913 895.9813,158.7913 Q896.3094,158.7913 896.5594,159.0569 Q896.825,159.3069 896.825,159.6506 Q896.825,159.9944 896.4813,160.4006 Q895.9813,160.9788 895.1844,161.3069 Q894.1063,161.76 892.8094,161.76 Q891.2938,161.76 890.0906,161.135 Q889.1063,160.635 888.4188,159.5725 Q887.7313,158.4944 887.7313,157.2131 L887.7313,156.0569 Q887.7313,154.7288 888.3406,153.5881 Q888.9656,152.4319 890.0594,151.8225 Q891.1531,151.1975 892.3875,151.1975 Q893.1219,151.1975 893.7625,151.3694 Q894.4188,151.5256 894.9656,151.885 Z "/><text fill="#000000" font-family="sans-serif" font-size="12" lengthAdjust="spacingAndGlyphs" textLength="48" x="909.8" y="160.9202">Program</text><line style="stroke: #A80036; stroke-width: 1.5;" x1="862" x2="976" y1="172.01" y2="172.01"/><line style="stroke: #A80036; stroke-width: 1.5;" x1="862" x2="976" y1="180.01" y2="180.01"/><ellipse cx="872" cy="191.01" fill="#84BE84" rx="3" ry="3" style="stroke: #038048; stroke-width: 1.0;"/><text fill="#000000" font-family="sans-serif" font-size="11" lengthAdjust="spacingAndGlyphs" text-decoration="underline" textLength="90" x="881" y="195.4289">main(String[]): void</text></a><!--MD5=[35199ba9f703d00fe82425741642934d]
class RestaurantSim.QualityBasedOrderRater--><a href="QualityBasedOrderRater.html" target="_top" title="QualityBasedOrderRater.html" xlink:actuate="onRequest" xlink:href="QualityBasedOrderRater.html" xlink:show="new" xlink:title="QualityBasedOrderRater.html" xlink:type="simple"><rect codeLine="92" fill="#FEFECE" filter="url(#f1jqe2f4eipe0r)" height="61.8359" id="RestaurantSim.QualityBasedOrderRater" style="stroke: #A80036; stroke-width: 1.5;" width="180" x="646" y="140.01"/><ellipse cx="667.3" cy="156.01" fill="#ADD1B2" rx="11" ry="11" style="stroke: #A80036; stroke-width: 1.0;"/><path d="M670.0656,151.885 Q670.2219,151.6663 670.4094,151.5569 Q670.5969,151.4475 670.8156,151.4475 Q671.1906,151.4475 671.425,151.7131 Q671.6594,151.9631 671.6594,152.5725 L671.6594,154.0256 Q671.6594,154.635 671.425,154.9006 Q671.1906,155.1663 670.8156,155.1663 Q670.4719,155.1663 670.2688,154.9631 Q670.0656,154.7756 669.9563,154.26 Q669.9094,153.9006 669.7219,153.7131 Q669.3938,153.3381 668.7844,153.1194 Q668.175,152.9006 667.55,152.9006 Q666.7844,152.9006 666.1438,153.2288 Q665.5188,153.5569 665.0188,154.3069 Q664.5344,155.0569 664.5344,156.0881 L664.5344,157.1819 Q664.5344,158.4163 665.425,159.2444 Q666.3156,160.0569 667.9094,160.0569 Q668.8469,160.0569 669.5031,159.8069 Q669.8938,159.6506 670.3156,159.2131 Q670.5813,158.9475 670.7219,158.8694 Q670.8781,158.7913 671.0813,158.7913 Q671.4094,158.7913 671.6594,159.0569 Q671.925,159.3069 671.925,159.6506 Q671.925,159.9944 671.5813,160.4006 Q671.0813,160.9788 670.2844,161.3069 Q669.2063,161.76 667.9094,161.76 Q666.3938,161.76 665.1906,161.135 Q664.2063,160.635 663.5188,159.5725 Q662.8313,158.4944 662.8313,157.2131 L662.8313,156.0569 Q662.8313,154.7288 663.4406,153.5881 Q664.0656,152.4319 665.1594,151.8225 Q666.2531,151.1975 667.4875,151.1975 Q668.2219,151.1975 668.8625,151.3694 Q669.5188,151.5256 670.0656,151.885 Z "/><text fill="#000000" font-family="sans-serif" font-size="12" lengthAdjust="spacingAndGlyphs" textLength="134" x="682.7" y="160.9202">QualityBasedOrderRater</text><line style="stroke: #A80036; stroke-width: 1.5;" x1="647" x2="825" y1="172.01" y2="172.01"/><line style="stroke: #A80036; stroke-width: 1.5;" x1="647" x2="825" y1="180.01" y2="180.01"/><ellipse cx="657" cy="191.01" fill="#84BE84" rx="3" ry="3" style="stroke: #038048; stroke-width: 1.0;"/><text fill="#000000" font-family="sans-serif" font-size="11" lengthAdjust="spacingAndGlyphs" textLength="154" x="666" y="195.4289">rateOrder(PreparedOrder): float</text></a><!--MD5=[7814d95fadc254f6dd4effa090efdb52]
class RestaurantSim.Restaurant--><a href="Restaurant.html" target="_top" title="Restaurant.html" xlink:actuate="onRequest" xlink:href="Restaurant.html" xlink:show="new" xlink:title="Restaurant.html" xlink:type="simple"><rect codeLine="96" fill="#FEFECE" filter="url(#f1jqe2f4eipe0r)" height="214.0313" id="RestaurantSim.Restaurant" style="stroke: #A80036; stroke-width: 1.5;" width="263" x="1747.5" y="335.51"/><ellipse cx="1844.25" cy="351.51" fill="#ADD1B2" rx="11" ry="11" style="stroke: #A80036; stroke-width: 1.0;"/><path d="M1847.0156,347.385 Q1847.1719,347.1663 1847.3594,347.0569 Q1847.5469,346.9475 1847.7656,346.9475 Q1848.1406,346.9475 1848.375,347.2131 Q1848.6094,347.4631 1848.6094,348.0725 L1848.6094,349.5256 Q1848.6094,350.135 1848.375,350.4006 Q1848.1406,350.6663 1847.7656,350.6663 Q1847.4219,350.6663 1847.2188,350.4631 Q1847.0156,350.2756 1846.9063,349.76 Q1846.8594,349.4006 1846.6719,349.2131 Q1846.3438,348.8381 1845.7344,348.6194 Q1845.125,348.4006 1844.5,348.4006 Q1843.7344,348.4006 1843.0938,348.7288 Q1842.4688,349.0569 1841.9688,349.8069 Q1841.4844,350.5569 1841.4844,351.5881 L1841.4844,352.6819 Q1841.4844,353.9163 1842.375,354.7444 Q1843.2656,355.5569 1844.8594,355.5569 Q1845.7969,355.5569 1846.4531,355.3069 Q1846.8438,355.1506 1847.2656,354.7131 Q1847.5313,354.4475 1847.6719,354.3694 Q1847.8281,354.2913 1848.0313,354.2913 Q1848.3594,354.2913 1848.6094,354.5569 Q1848.875,354.8069 1848.875,355.1506 Q1848.875,355.4944 1848.5313,355.9006 Q1848.0313,356.4788 1847.2344,356.8069 Q1846.1563,357.26 1844.8594,357.26 Q1843.3438,357.26 1842.1406,356.635 Q1841.1563,356.135 1840.4688,355.0725 Q1839.7813,353.9944 1839.7813,352.7131 L1839.7813,351.5569 Q1839.7813,350.2288 1840.3906,349.0881 Q1841.0156,347.9319 1842.1094,347.3225 Q1843.2031,346.6975 1844.4375,346.6975 Q1845.1719,346.6975 1845.8125,346.8694 Q1846.4688,347.0256 1847.0156,347.385 Z "/><text fill="#000000" font-family="sans-serif" font-size="12" lengthAdjust="spacingAndGlyphs" textLength="61" x="1864.75" y="356.4202">Restaurant</text><line style="stroke: #A80036; stroke-width: 1.5;" x1="1748.5" x2="2009.5" y1="367.51" y2="367.51"/><line style="stroke: #A80036; stroke-width: 1.5;" x1="1748.5" x2="2009.5" y1="375.51" y2="375.51"/><ellipse cx="1758.5" cy="386.51" fill="#84BE84" rx="3" ry="3" style="stroke: #038048; stroke-width: 1.0;"/><text fill="#000000" font-family="sans-serif" font-size="11" lengthAdjust="spacingAndGlyphs" textLength="87" x="1767.5" y="390.9289">Restaurant(Menu)</text><ellipse cx="1758.5" cy="400.3459" fill="#84BE84" rx="3" ry="3" style="stroke: #038048; stroke-width: 1.0;"/><text fill="#000000" font-family="sans-serif" font-size="11" lengthAdjust="spacingAndGlyphs" textLength="135" x="1767.5" y="404.7649">addCooks(List&lt;Cook&gt;): void</text><ellipse cx="1758.5" cy="414.1819" fill="#84BE84" rx="3" ry="3" style="stroke: #038048; stroke-width: 1.0;"/><text fill="#000000" font-family="sans-serif" font-size="11" lengthAdjust="spacingAndGlyphs" textLength="237" x="1767.5" y="418.6008">receiveOrderRequest(Order, float): OrderReceipt</text><ellipse cx="1758.5" cy="428.0178" fill="#84BE84" rx="3" ry="3" style="stroke: #038048; stroke-width: 1.0;"/><text fill="#000000" font-family="sans-serif" font-size="11" lengthAdjust="spacingAndGlyphs" textLength="207" x="1767.5" y="432.4368">addGuestToQueue(RestaurantGuest): void</text><ellipse cx="1758.5" cy="441.8538" fill="#84BE84" rx="3" ry="3" style="stroke: #038048; stroke-width: 1.0;"/><text fill="#000000" font-family="sans-serif" font-size="11" lengthAdjust="spacingAndGlyphs" textLength="237" x="1767.5" y="446.2727">removeGuestFromQueue(RestaurantGuest): void</text><ellipse cx="1758.5" cy="455.6897" fill="#84BE84" rx="3" ry="3" style="stroke: #038048; stroke-width: 1.0;"/><text fill="#000000" font-family="sans-serif" font-size="11" lengthAdjust="spacingAndGlyphs" textLength="97" x="1767.5" y="460.1086">giveRate(float): void</text><ellipse cx="1758.5" cy="469.5256" fill="#84BE84" rx="3" ry="3" style="stroke: #038048; stroke-width: 1.0;"/><text fill="#000000" font-family="sans-serif" font-size="11" lengthAdjust="spacingAndGlyphs" textLength="196" x="1767.5" y="473.9446">addPreparedOrder(PreparedOrder): void</text><ellipse cx="1758.5" cy="483.3616" fill="#84BE84" rx="3" ry="3" style="stroke: #038048; stroke-width: 1.0;"/><text fill="#000000" font-family="sans-serif" font-size="11" lengthAdjust="spacingAndGlyphs" textLength="91" x="1767.5" y="487.7805">close(Object): void</text><ellipse cx="1758.5" cy="497.1975" fill="#84BE84" rx="3" ry="3" style="stroke: #038048; stroke-width: 1.0;"/><text fill="#000000" font-family="sans-serif" font-size="11" lengthAdjust="spacingAndGlyphs" textLength="98" x="1767.5" y="501.6164">isOpened(): boolean</text><ellipse cx="1758.5" cy="511.0334" fill="#84BE84" rx="3" ry="3" style="stroke: #038048; stroke-width: 1.0;"/><text fill="#000000" font-family="sans-serif" font-size="11" lengthAdjust="spacingAndGlyphs" textLength="120" x="1767.5" y="515.4524">getRatesAverage(): float</text><ellipse cx="1758.5" cy="524.8694" fill="#84BE84" rx="3" ry="3" style="stroke: #038048; stroke-width: 1.0;"/><text fill="#000000" font-family="sans-serif" font-size="11" lengthAdjust="spacingAndGlyphs" textLength="117" x="1767.5" y="529.2883">getNumberOfRates(): int</text><ellipse cx="1758.5" cy="538.7053" fill="#84BE84" rx="3" ry="3" style="stroke: #038048; stroke-width: 1.0;"/><text fill="#000000" font-family="sans-serif" font-size="11" lengthAdjust="spacingAndGlyphs" textLength="159" x="1767.5" y="543.1243">shouldBeUnregistered(): boolean</text></a><!--MD5=[506f5ffe9279332088426043cb12d185]
class RestaurantSim.RestaurantGuest--><a href="RestaurantGuest.html" target="_top" title="RestaurantGuest.html" xlink:actuate="onRequest" xlink:href="RestaurantGuest.html" xlink:show="new" xlink:title="RestaurantGuest.html" xlink:type="simple"><rect codeLine="111" fill="#FEFECE" filter="url(#f1jqe2f4eipe0r)" height="172.5234" id="RestaurantSim.RestaurantGuest" style="stroke: #A80036; stroke-width: 1.5;" width="220" x="1745" y="84.51"/><ellipse cx="1804.75" cy="100.51" fill="#A9DCDF" rx="11" ry="11" style="stroke: #A80036; stroke-width: 1.0;"/><path d="M1806.9375,102.2756 L1802.7969,102.2756 L1802.375,103.3069 L1802.7969,103.3069 Q1803.4063,103.3069 1803.6719,103.5412 Q1803.9375,103.7756 1803.9375,104.1662 Q1803.9375,104.5412 1803.6719,104.7756 Q1803.4063,105.01 1802.7969,105.01 L1800.5,105.01 Q1799.8906,105.01 1799.6406,104.7756 Q1799.375,104.5412 1799.375,104.1506 Q1799.375,103.7756 1799.6563,103.5412 Q1799.9219,103.2912 1800.5469,103.3069 L1803.2188,96.6506 L1802.1094,96.6506 Q1801.5,96.6506 1801.2344,96.4162 Q1800.9688,96.1819 1800.9688,95.7912 Q1800.9688,95.4162 1801.2344,95.1819 Q1801.5,94.9475 1802.1094,94.9475 L1805.7813,94.9475 L1809.1719,103.3069 Q1809.7656,103.3069 1809.9531,103.4475 Q1810.3438,103.7131 1810.3438,104.1662 Q1810.3438,104.5412 1810.0781,104.7756 Q1809.8281,105.01 1809.2188,105.01 L1806.9219,105.01 Q1806.3125,105.01 1806.0469,104.7756 Q1805.7813,104.5412 1805.7813,104.1506 Q1805.7813,103.7756 1806.0469,103.5412 Q1806.3125,103.3069 1806.9219,103.3069 L1807.3438,103.3069 L1806.9375,102.2756 Z M1806.2188,100.5725 L1804.8594,97.1975 L1803.4844,100.5725 L1806.2188,100.5725 Z "/><text fill="#000000" font-family="sans-serif" font-size="12" font-style="italic" lengthAdjust="spacingAndGlyphs" textLength="92" x="1825.25" y="105.4202">RestaurantGuest</text><line style="stroke: #A80036; stroke-width: 1.5;" x1="1746" x2="1964" y1="116.51" y2="116.51"/><line style="stroke: #A80036; stroke-width: 1.5;" x1="1746" x2="1964" y1="124.51" y2="124.51"/><ellipse cx="1756" cy="135.51" fill="#84BE84" rx="3" ry="3" style="stroke: #038048; stroke-width: 1.0;"/><text fill="#000000" font-family="sans-serif" font-size="11" lengthAdjust="spacingAndGlyphs" textLength="194" x="1765" y="139.9289">RestaurantGuest(String, int, Restaurant)</text><ellipse cx="1756" cy="149.3459" fill="#84BE84" rx="3" ry="3" style="stroke: #038048; stroke-width: 1.0;"/><text fill="#000000" font-family="sans-serif" font-size="11" lengthAdjust="spacingAndGlyphs" textLength="84" x="1765" y="153.7649">getName(): String</text><ellipse cx="1756" cy="163.1819" fill="#84BE84" rx="3" ry="3" style="stroke: #038048; stroke-width: 1.0;"/><text fill="#000000" font-family="sans-serif" font-size="11" lengthAdjust="spacingAndGlyphs" textLength="104" x="1765" y="167.6008">setName(String): void</text><ellipse cx="1756" cy="177.0178" fill="#84BE84" rx="3" ry="3" style="stroke: #038048; stroke-width: 1.0;"/><text fill="#000000" font-family="sans-serif" font-size="11" lengthAdjust="spacingAndGlyphs" textLength="81" x="1765" y="181.4368">getPatience(): int</text><ellipse cx="1756" cy="190.8538" fill="#84BE84" rx="3" ry="3" style="stroke: #038048; stroke-width: 1.0;"/><text fill="#000000" font-family="sans-serif" font-size="11" lengthAdjust="spacingAndGlyphs" textLength="101" x="1765" y="195.2727">setPatience(int): void</text><ellipse cx="1756" cy="204.6897" fill="#84BE84" rx="3" ry="3" style="stroke: #038048; stroke-width: 1.0;"/><text fill="#000000" font-family="sans-serif" font-size="11" lengthAdjust="spacingAndGlyphs" textLength="155" x="1765" y="209.1086">isWaitingToBeServed(): boolean</text><ellipse cx="1756" cy="218.5256" fill="#84BE84" rx="3" ry="3" style="stroke: #038048; stroke-width: 1.0;"/><text fill="#000000" font-family="sans-serif" font-size="11" lengthAdjust="spacingAndGlyphs" textLength="182" x="1765" y="222.9446">setWaitingToBeServed(boolean): void</text><ellipse cx="1756" cy="232.3616" fill="#84BE84" rx="3" ry="3" style="stroke: #038048; stroke-width: 1.0;"/><text fill="#000000" font-family="sans-serif" font-size="11" font-style="italic" lengthAdjust="spacingAndGlyphs" textLength="148" x="1765" y="236.7805">interactWithRestaurant(): void</text><ellipse cx="1756" cy="246.1975" fill="#84BE84" rx="3" ry="3" style="stroke: #038048; stroke-width: 1.0;"/><text fill="#000000" font-family="sans-serif" font-size="11" font-style="italic" lengthAdjust="spacingAndGlyphs" textLength="173" x="1765" y="250.6164">receiveOrder(PreparedOrder): void</text></a><!--MD5=[b459818e2f6de0d8b62d1ef34cf623a1]
class RestaurantSim.Sanepid--><a href="Sanepid.html" target="_top" title="Sanepid.html" xlink:actuate="onRequest" xlink:href="Sanepid.html" xlink:show="new" xlink:title="Sanepid.html" xlink:type="simple"><rect codeLine="123" fill="#FEFECE" filter="url(#f1jqe2f4eipe0r)" height="103.3438" id="RestaurantSim.Sanepid" style="stroke: #A80036; stroke-width: 1.5;" width="254" x="1458" y="391.01"/><ellipse cx="1557.75" cy="407.01" fill="#ADD1B2" rx="11" ry="11" style="stroke: #A80036; stroke-width: 1.0;"/><path d="M1560.5156,402.885 Q1560.6719,402.6663 1560.8594,402.5569 Q1561.0469,402.4475 1561.2656,402.4475 Q1561.6406,402.4475 1561.875,402.7131 Q1562.1094,402.9631 1562.1094,403.5725 L1562.1094,405.0256 Q1562.1094,405.635 1561.875,405.9006 Q1561.6406,406.1663 1561.2656,406.1663 Q1560.9219,406.1663 1560.7188,405.9631 Q1560.5156,405.7756 1560.4063,405.26 Q1560.3594,404.9006 1560.1719,404.7131 Q1559.8438,404.3381 1559.2344,404.1194 Q1558.625,403.9006 1558,403.9006 Q1557.2344,403.9006 1556.5938,404.2288 Q1555.9688,404.5569 1555.4688,405.3069 Q1554.9844,406.0569 1554.9844,407.0881 L1554.9844,408.1819 Q1554.9844,409.4163 1555.875,410.2444 Q1556.7656,411.0569 1558.3594,411.0569 Q1559.2969,411.0569 1559.9531,410.8069 Q1560.3438,410.6506 1560.7656,410.2131 Q1561.0313,409.9475 1561.1719,409.8694 Q1561.3281,409.7913 1561.5313,409.7913 Q1561.8594,409.7913 1562.1094,410.0569 Q1562.375,410.3069 1562.375,410.6506 Q1562.375,410.9944 1562.0313,411.4006 Q1561.5313,411.9788 1560.7344,412.3069 Q1559.6563,412.76 1558.3594,412.76 Q1556.8438,412.76 1555.6406,412.135 Q1554.6563,411.635 1553.9688,410.5725 Q1553.2813,409.4944 1553.2813,408.2131 L1553.2813,407.0569 Q1553.2813,405.7288 1553.8906,404.5881 Q1554.5156,403.4319 1555.6094,402.8225 Q1556.7031,402.1975 1557.9375,402.1975 Q1558.6719,402.1975 1559.3125,402.3694 Q1559.9688,402.5256 1560.5156,402.885 Z "/><text fill="#000000" font-family="sans-serif" font-size="12" lengthAdjust="spacingAndGlyphs" textLength="46" x="1578.25" y="411.9202">Sanepid</text><line style="stroke: #A80036; stroke-width: 1.5;" x1="1459" x2="1711" y1="423.01" y2="423.01"/><line style="stroke: #A80036; stroke-width: 1.5;" x1="1459" x2="1711" y1="431.01" y2="431.01"/><ellipse cx="1469" cy="442.01" fill="#84BE84" rx="3" ry="3" style="stroke: #038048; stroke-width: 1.0;"/><text fill="#000000" font-family="sans-serif" font-size="11" lengthAdjust="spacingAndGlyphs" textLength="228" x="1478" y="446.4289">Sanepid(String, IEvaluationService, Restaurant)</text><ellipse cx="1469" cy="455.8459" fill="#84BE84" rx="3" ry="3" style="stroke: #038048; stroke-width: 1.0;"/><text fill="#000000" font-family="sans-serif" font-size="11" lengthAdjust="spacingAndGlyphs" textLength="144" x="1478" y="460.2649">interactWithRestaurant(): void</text><ellipse cx="1469" cy="469.6819" fill="#84BE84" rx="3" ry="3" style="stroke: #038048; stroke-width: 1.0;"/><text fill="#000000" font-family="sans-serif" font-size="11" lengthAdjust="spacingAndGlyphs" textLength="170" x="1478" y="474.1008">receiveOrder(PreparedOrder): void</text><ellipse cx="1469" cy="483.5178" fill="#84BE84" rx="3" ry="3" style="stroke: #038048; stroke-width: 1.0;"/><text fill="#000000" font-family="sans-serif" font-size="11" lengthAdjust="spacingAndGlyphs" textLength="159" x="1478" y="487.9368">shouldBeUnregistered(): boolean</text></a><!--MD5=[9f02568640df76511a09383bef0ccdd0]
class RestaurantSim.SkillBasedQualityDeterminer--><a href="SkillBasedQualityDeterminer.html" target="_top" title="SkillBasedQualityDeterminer.html" xlink:actuate="onRequest" xlink:href="SkillBasedQualityDeterminer.html" xlink:show="new" xlink:title="SkillBasedQualityDeterminer.html" xlink:type="simple"><rect codeLine="130" fill="#FEFECE" filter="url(#f1jqe2f4eipe0r)" height="61.8359" id="RestaurantSim.SkillBasedQualityDeterminer" style="stroke: #A80036; stroke-width: 1.5;" width="311" x="1012.5" y="140.01"/><ellipse cx="1084.75" cy="156.01" fill="#ADD1B2" rx="11" ry="11" style="stroke: #A80036; stroke-width: 1.0;"/><path d="M1087.5156,151.885 Q1087.6719,151.6663 1087.8594,151.5569 Q1088.0469,151.4475 1088.2656,151.4475 Q1088.6406,151.4475 1088.875,151.7131 Q1089.1094,151.9631 1089.1094,152.5725 L1089.1094,154.0256 Q1089.1094,154.635 1088.875,154.9006 Q1088.6406,155.1663 1088.2656,155.1663 Q1087.9219,155.1663 1087.7188,154.9631 Q1087.5156,154.7756 1087.4063,154.26 Q1087.3594,153.9006 1087.1719,153.7131 Q1086.8438,153.3381 1086.2344,153.1194 Q1085.625,152.9006 1085,152.9006 Q1084.2344,152.9006 1083.5938,153.2288 Q1082.9688,153.5569 1082.4688,154.3069 Q1081.9844,155.0569 1081.9844,156.0881 L1081.9844,157.1819 Q1081.9844,158.4163 1082.875,159.2444 Q1083.7656,160.0569 1085.3594,160.0569 Q1086.2969,160.0569 1086.9531,159.8069 Q1087.3438,159.6506 1087.7656,159.2131 Q1088.0313,158.9475 1088.1719,158.8694 Q1088.3281,158.7913 1088.5313,158.7913 Q1088.8594,158.7913 1089.1094,159.0569 Q1089.375,159.3069 1089.375,159.6506 Q1089.375,159.9944 1089.0313,160.4006 Q1088.5313,160.9788 1087.7344,161.3069 Q1086.6563,161.76 1085.3594,161.76 Q1083.8438,161.76 1082.6406,161.135 Q1081.6563,160.635 1080.9688,159.5725 Q1080.2813,158.4944 1080.2813,157.2131 L1080.2813,156.0569 Q1080.2813,154.7288 1080.8906,153.5881 Q1081.5156,152.4319 1082.6094,151.8225 Q1083.7031,151.1975 1084.9375,151.1975 Q1085.6719,151.1975 1086.3125,151.3694 Q1086.9688,151.5256 1087.5156,151.885 Z "/><text fill="#000000" font-family="sans-serif" font-size="12" lengthAdjust="spacingAndGlyphs" textLength="158" x="1105.25" y="160.9202">SkillBasedQualityDeterminer</text><line style="stroke: #A80036; stroke-width: 1.5;" x1="1013.5" x2="1322.5" y1="172.01" y2="172.01"/><line style="stroke: #A80036; stroke-width: 1.5;" x1="1013.5" x2="1322.5" y1="180.01" y2="180.01"/><ellipse cx="1023.5" cy="191.01" fill="#84BE84" rx="3" ry="3" style="stroke: #038048; stroke-width: 1.0;"/><text fill="#000000" font-family="sans-serif" font-size="11" lengthAdjust="spacingAndGlyphs" textLength="285" x="1032.5" y="195.4289">determineOrderQuality(Order, Cook): PreparedOrderQuality</text></a><!--MD5=[40d66937e74e4112c1988045a6a24487]
class RestaurantSim.SimulationSystem.IEvaluationService--><rect fill="#FEFECE" filter="url(#f1jqe2f4eipe0r)" height="48" id="RestaurantSim.SimulationSystem.IEvaluationService" style="stroke: #A80036; stroke-width: 1.5;" width="132" x="2402" y="147.01"/><ellipse cx="2417" cy="163.01" fill="#ADD1B2" rx="11" ry="11" style="stroke: #A80036; stroke-width: 1.0;"/><path d="M2419.7656,158.885 Q2419.9219,158.6663 2420.1094,158.5569 Q2420.2969,158.4475 2420.5156,158.4475 Q2420.8906,158.4475 2421.125,158.7131 Q2421.3594,158.9631 2421.3594,159.5725 L2421.3594,161.0256 Q2421.3594,161.635 2421.125,161.9006 Q2420.8906,162.1663 2420.5156,162.1663 Q2420.1719,162.1663 2419.9688,161.9631 Q2419.7656,161.7756 2419.6563,161.26 Q2419.6094,160.9006 2419.4219,160.7131 Q2419.0938,160.3381 2418.4844,160.1194 Q2417.875,159.9006 2417.25,159.9006 Q2416.4844,159.9006 2415.8438,160.2288 Q2415.2188,160.5569 2414.7188,161.3069 Q2414.2344,162.0569 2414.2344,163.0881 L2414.2344,164.1819 Q2414.2344,165.4163 2415.125,166.2444 Q2416.0156,167.0569 2417.6094,167.0569 Q2418.5469,167.0569 2419.2031,166.8069 Q2419.5938,166.6506 2420.0156,166.2131 Q2420.2813,165.9475 2420.4219,165.8694 Q2420.5781,165.7913 2420.7813,165.7913 Q2421.1094,165.7913 2421.3594,166.0569 Q2421.625,166.3069 2421.625,166.6506 Q2421.625,166.9944 2421.2813,167.4006 Q2420.7813,167.9788 2419.9844,168.3069 Q2418.9063,168.76 2417.6094,168.76 Q2416.0938,168.76 2414.8906,168.135 Q2413.9063,167.635 2413.2188,166.5725 Q2412.5313,165.4944 2412.5313,164.2131 L2412.5313,163.0569 Q2412.5313,161.7288 2413.1406,160.5881 Q2413.7656,159.4319 2414.8594,158.8225 Q2415.9531,158.1975 2417.1875,158.1975 Q2417.9219,158.1975 2418.5625,158.3694 Q2419.2188,158.5256 2419.7656,158.885 Z "/><text fill="#000000" font-family="sans-serif" font-size="12" lengthAdjust="spacingAndGlyphs" textLength="100" x="2431" y="167.9202">IEvaluationService</text><line style="stroke: #A80036; stroke-width: 1.5;" x1="2403" x2="2533" y1="179.01" y2="179.01"/><line style="stroke: #A80036; stroke-width: 1.5;" x1="2403" x2="2533" y1="187.01" y2="187.01"/><!--MD5=[a39922f3f2d1cc3aed2dd395f1f2b9cc]
class RestaurantSim.SimulationSystem.ITickableActionObject--><rect fill="#FEFECE" filter="url(#f1jqe2f4eipe0r)" height="48" id="RestaurantSim.SimulationSystem.ITickableActionObject" style="stroke: #A80036; stroke-width: 1.5;" width="149" x="3047.5" y="147.01"/><ellipse cx="3062.5" cy="163.01" fill="#ADD1B2" rx="11" ry="11" style="stroke: #A80036; stroke-width: 1.0;"/><path d="M3065.2656,158.885 Q3065.4219,158.6663 3065.6094,158.5569 Q3065.7969,158.4475 3066.0156,158.4475 Q3066.3906,158.4475 3066.625,158.7131 Q3066.8594,158.9631 3066.8594,159.5725 L3066.8594,161.0256 Q3066.8594,161.635 3066.625,161.9006 Q3066.3906,162.1663 3066.0156,162.1663 Q3065.6719,162.1663 3065.4688,161.9631 Q3065.2656,161.7756 3065.1563,161.26 Q3065.1094,160.9006 3064.9219,160.7131 Q3064.5938,160.3381 3063.9844,160.1194 Q3063.375,159.9006 3062.75,159.9006 Q3061.9844,159.9006 3061.3438,160.2288 Q3060.7188,160.5569 3060.2188,161.3069 Q3059.7344,162.0569 3059.7344,163.0881 L3059.7344,164.1819 Q3059.7344,165.4163 3060.625,166.2444 Q3061.5156,167.0569 3063.1094,167.0569 Q3064.0469,167.0569 3064.7031,166.8069 Q3065.0938,166.6506 3065.5156,166.2131 Q3065.7813,165.9475 3065.9219,165.8694 Q3066.0781,165.7913 3066.2813,165.7913 Q3066.6094,165.7913 3066.8594,166.0569 Q3067.125,166.3069 3067.125,166.6506 Q3067.125,166.9944 3066.7813,167.4006 Q3066.2813,167.9788 3065.4844,168.3069 Q3064.4063,168.76 3063.1094,168.76 Q3061.5938,168.76 3060.3906,168.135 Q3059.4063,167.635 3058.7188,166.5725 Q3058.0313,165.4944 3058.0313,164.2131 L3058.0313,163.0569 Q3058.0313,161.7288 3058.6406,160.5881 Q3059.2656,159.4319 3060.3594,158.8225 Q3061.4531,158.1975 3062.6875,158.1975 Q3063.4219,158.1975 3064.0625,158.3694 Q3064.7188,158.5256 3065.2656,158.885 Z "/><text fill="#000000" font-family="sans-serif" font-size="12" lengthAdjust="spacingAndGlyphs" textLength="117" x="3076.5" y="167.9202">ITickableActionObject</text><line style="stroke: #A80036; stroke-width: 1.5;" x1="3048.5" x2="3195.5" y1="179.01" y2="179.01"/><line style="stroke: #A80036; stroke-width: 1.5;" x1="3048.5" x2="3195.5" y1="187.01" y2="187.01"/><!--MD5=[82e2c7a7f4a7c2ecd4affbc8c26a1d62]
class RestaurantSim.SimulationSystem.TickableAction--><rect fill="#FEFECE" filter="url(#f1jqe2f4eipe0r)" height="48" id="RestaurantSim.SimulationSystem.TickableAction" style="stroke: #A80036; stroke-width: 1.5;" width="111" x="2901.5" y="147.01"/><ellipse cx="2916.5" cy="163.01" fill="#ADD1B2" rx="11" ry="11" style="stroke: #A80036; stroke-width: 1.0;"/><path d="M2919.2656,158.885 Q2919.4219,158.6663 2919.6094,158.5569 Q2919.7969,158.4475 2920.0156,158.4475 Q2920.3906,158.4475 2920.625,158.7131 Q2920.8594,158.9631 2920.8594,159.5725 L2920.8594,161.0256 Q2920.8594,161.635 2920.625,161.9006 Q2920.3906,162.1663 2920.0156,162.1663 Q2919.6719,162.1663 2919.4688,161.9631 Q2919.2656,161.7756 2919.1563,161.26 Q2919.1094,160.9006 2918.9219,160.7131 Q2918.5938,160.3381 2917.9844,160.1194 Q2917.375,159.9006 2916.75,159.9006 Q2915.9844,159.9006 2915.3438,160.2288 Q2914.7188,160.5569 2914.2188,161.3069 Q2913.7344,162.0569 2913.7344,163.0881 L2913.7344,164.1819 Q2913.7344,165.4163 2914.625,166.2444 Q2915.5156,167.0569 2917.1094,167.0569 Q2918.0469,167.0569 2918.7031,166.8069 Q2919.0938,166.6506 2919.5156,166.2131 Q2919.7813,165.9475 2919.9219,165.8694 Q2920.0781,165.7913 2920.2813,165.7913 Q2920.6094,165.7913 2920.8594,166.0569 Q2921.125,166.3069 2921.125,166.6506 Q2921.125,166.9944 2920.7813,167.4006 Q2920.2813,167.9788 2919.4844,168.3069 Q2918.4063,168.76 2917.1094,168.76 Q2915.5938,168.76 2914.3906,168.135 Q2913.4063,167.635 2912.7188,166.5725 Q2912.0313,165.4944 2912.0313,164.2131 L2912.0313,163.0569 Q2912.0313,161.7288 2912.6406,160.5881 Q2913.2656,159.4319 2914.3594,158.8225 Q2915.4531,158.1975 2916.6875,158.1975 Q2917.4219,158.1975 2918.0625,158.3694 Q2918.7188,158.5256 2919.2656,158.885 Z "/><text fill="#000000" font-family="sans-serif" font-size="12" lengthAdjust="spacingAndGlyphs" textLength="79" x="2930.5" y="167.9202">TickableAction</text><line style="stroke: #A80036; stroke-width: 1.5;" x1="2902.5" x2="3011.5" y1="179.01" y2="179.01"/><line style="stroke: #A80036; stroke-width: 1.5;" x1="2902.5" x2="3011.5" y1="187.01" y2="187.01"/><!--MD5=[1fefd24bee28d859e0543c6c7ce5e8dc]
class RestaurantSim.SimulationSystem.IOrderRater--><rect fill="#FEFECE" filter="url(#f1jqe2f4eipe0r)" height="48" id="RestaurantSim.SimulationSystem.IOrderRater" style="stroke: #A80036; stroke-width: 1.5;" width="96" x="2770" y="147.01"/><ellipse cx="2785" cy="163.01" fill="#ADD1B2" rx="11" ry="11" style="stroke: #A80036; stroke-width: 1.0;"/><path d="M2787.7656,158.885 Q2787.9219,158.6663 2788.1094,158.5569 Q2788.2969,158.4475 2788.5156,158.4475 Q2788.8906,158.4475 2789.125,158.7131 Q2789.3594,158.9631 2789.3594,159.5725 L2789.3594,161.0256 Q2789.3594,161.635 2789.125,161.9006 Q2788.8906,162.1663 2788.5156,162.1663 Q2788.1719,162.1663 2787.9688,161.9631 Q2787.7656,161.7756 2787.6563,161.26 Q2787.6094,160.9006 2787.4219,160.7131 Q2787.0938,160.3381 2786.4844,160.1194 Q2785.875,159.9006 2785.25,159.9006 Q2784.4844,159.9006 2783.8438,160.2288 Q2783.2188,160.5569 2782.7188,161.3069 Q2782.2344,162.0569 2782.2344,163.0881 L2782.2344,164.1819 Q2782.2344,165.4163 2783.125,166.2444 Q2784.0156,167.0569 2785.6094,167.0569 Q2786.5469,167.0569 2787.2031,166.8069 Q2787.5938,166.6506 2788.0156,166.2131 Q2788.2813,165.9475 2788.4219,165.8694 Q2788.5781,165.7913 2788.7813,165.7913 Q2789.1094,165.7913 2789.3594,166.0569 Q2789.625,166.3069 2789.625,166.6506 Q2789.625,166.9944 2789.2813,167.4006 Q2788.7813,167.9788 2787.9844,168.3069 Q2786.9063,168.76 2785.6094,168.76 Q2784.0938,168.76 2782.8906,168.135 Q2781.9063,167.635 2781.2188,166.5725 Q2780.5313,165.4944 2780.5313,164.2131 L2780.5313,163.0569 Q2780.5313,161.7288 2781.1406,160.5881 Q2781.7656,159.4319 2782.8594,158.8225 Q2783.9531,158.1975 2785.1875,158.1975 Q2785.9219,158.1975 2786.5625,158.3694 Q2787.2188,158.5256 2787.7656,158.885 Z "/><text fill="#000000" font-family="sans-serif" font-size="12" lengthAdjust="spacingAndGlyphs" textLength="64" x="2799" y="167.9202">IOrderRater</text><line style="stroke: #A80036; stroke-width: 1.5;" x1="2771" x2="2865" y1="179.01" y2="179.01"/><line style="stroke: #A80036; stroke-width: 1.5;" x1="2771" x2="2865" y1="187.01" y2="187.01"/><!--MD5=[1bc529189f128eb66ad2884d682f977e]
class RestaurantSim.SimulationSystem.IOrderQualityDeterminer--><rect fill="#FEFECE" filter="url(#f1jqe2f4eipe0r)" height="48" id="RestaurantSim.SimulationSystem.IOrderQualityDeterminer" style="stroke: #A80036; stroke-width: 1.5;" width="165" x="2569.5" y="147.01"/><ellipse cx="2584.5" cy="163.01" fill="#ADD1B2" rx="11" ry="11" style="stroke: #A80036; stroke-width: 1.0;"/><path d="M2587.2656,158.885 Q2587.4219,158.6663 2587.6094,158.5569 Q2587.7969,158.4475 2588.0156,158.4475 Q2588.3906,158.4475 2588.625,158.7131 Q2588.8594,158.9631 2588.8594,159.5725 L2588.8594,161.0256 Q2588.8594,161.635 2588.625,161.9006 Q2588.3906,162.1663 2588.0156,162.1663 Q2587.6719,162.1663 2587.4688,161.9631 Q2587.2656,161.7756 2587.1563,161.26 Q2587.1094,160.9006 2586.9219,160.7131 Q2586.5938,160.3381 2585.9844,160.1194 Q2585.375,159.9006 2584.75,159.9006 Q2583.9844,159.9006 2583.3438,160.2288 Q2582.7188,160.5569 2582.2188,161.3069 Q2581.7344,162.0569 2581.7344,163.0881 L2581.7344,164.1819 Q2581.7344,165.4163 2582.625,166.2444 Q2583.5156,167.0569 2585.1094,167.0569 Q2586.0469,167.0569 2586.7031,166.8069 Q2587.0938,166.6506 2587.5156,166.2131 Q2587.7813,165.9475 2587.9219,165.8694 Q2588.0781,165.7913 2588.2813,165.7913 Q2588.6094,165.7913 2588.8594,166.0569 Q2589.125,166.3069 2589.125,166.6506 Q2589.125,166.9944 2588.7813,167.4006 Q2588.2813,167.9788 2587.4844,168.3069 Q2586.4063,168.76 2585.1094,168.76 Q2583.5938,168.76 2582.3906,168.135 Q2581.4063,167.635 2580.7188,166.5725 Q2580.0313,165.4944 2580.0313,164.2131 L2580.0313,163.0569 Q2580.0313,161.7288 2580.6406,160.5881 Q2581.2656,159.4319 2582.3594,158.8225 Q2583.4531,158.1975 2584.6875,158.1975 Q2585.4219,158.1975 2586.0625,158.3694 Q2586.7188,158.5256 2587.2656,158.885 Z "/><text fill="#000000" font-family="sans-serif" font-size="12" lengthAdjust="spacingAndGlyphs" textLength="133" x="2598.5" y="167.9202">IOrderQualityDeterminer</text><line style="stroke: #A80036; stroke-width: 1.5;" x1="2570.5" x2="2733.5" y1="179.01" y2="179.01"/><line style="stroke: #A80036; stroke-width: 1.5;" x1="2570.5" x2="2733.5" y1="187.01" y2="187.01"/><!--MD5=[4ad9e292a5dc9cdab65232f65c281c9d]
reverse link RestaurantSim.SimulationSystem.IEvaluationService to RestaurantSim.AverageRateBasedEvaluationService--><path codeLine="134" d="M2447.84,129 C2427.61,92.67 2392.55,43.29 2344.5,25.51 C2300.24,9.14 689.76,9.14 645.5,25.51 C585.07,47.87 532.73,104.11 504.14,139.76 " fill="none" id="RestaurantSim.SimulationSystem.IEvaluationService-backto-RestaurantSim.AverageRateBasedEvaluationService" style="stroke: #A80036; stroke-width: 1.0; stroke-dasharray: 7.0,7.0;"/><polygon fill="none" points="2454.1,125.85,2457.19,146.81,2441.7,132.35,2454.1,125.85" style="stroke: #A80036; stroke-width: 1.0;"/><!--MD5=[1335020fd4ef5ba23ad8041a8d43ff42]
reverse link RestaurantSim.SimulationSystem.ITickableActionObject to RestaurantSim.Cook--><path codeLine="135" d="M3125.52,215.22 C3125.41,244.78 3119.89,282.61 3096,305.51 C2991.26,405.9 2573.73,432.25 2346.02,439.12 " fill="none" id="RestaurantSim.SimulationSystem.ITickableActionObject-backto-RestaurantSim.Cook" style="stroke: #A80036; stroke-width: 1.0; stroke-dasharray: 7.0,7.0;"/><polygon fill="none" points="3118.52,215.3,3124.8,195.06,3132.51,214.8,3118.52,215.3" style="stroke: #A80036; stroke-width: 1.0;"/><!--MD5=[7623747deb4016504d8a606a0bd8b124]
link RestaurantSim.Cook to RestaurantSim.SimulationSystem.TickableAction--><path codeLine="136" d="M2346.07,427.87 C2524.38,409.02 2808.3,369.85 2892,305.51 C2925.91,279.45 2943.17,231.1 2951.11,200.29 " fill="none" id="RestaurantSim.Cook-to-RestaurantSim.SimulationSystem.TickableAction" style="stroke: #A80036; stroke-width: 1.0;"/><polygon fill="#A80036" points="2952.4,195.13,2946.3366,202.8911,2951.1873,199.9807,2954.0977,204.8314,2952.4,195.13" style="stroke: #A80036; stroke-width: 1.0;"/><text fill="#000000" font-family="sans-serif" font-size="13" lengthAdjust="spacingAndGlyphs" textLength="89" x="2910" y="302.0051">tickableActions</text><text fill="#000000" font-family="sans-serif" font-size="13" lengthAdjust="spacingAndGlyphs" textLength="5" x="2945.6694" y="216.4972">*</text><!--MD5=[1ea489e597f3335aa625e8a3530c12c1]
link RestaurantSim.CookBuilder to RestaurantSim.Cook--><path codeLine="137" d="M2180.31,257.65 C2183.44,294.38 2187.06,336.74 2190.03,371.54 " fill="none" id="RestaurantSim.CookBuilder-to-RestaurantSim.Cook" style="stroke: #A80036; stroke-width: 1.0;"/><polygon fill="#A80036" points="2190.46,376.62,2193.6745,367.3105,2190.0318,371.6384,2185.7039,367.9956,2190.46,376.62" style="stroke: #A80036; stroke-width: 1.0;"/><text fill="#000000" font-family="sans-serif" font-size="13" lengthAdjust="spacingAndGlyphs" textLength="54" x="2184" y="302.0051">builtCook</text><!--MD5=[6e52f7f03de53a388969a953545516b6]
reverse link RestaurantSim.RestaurantGuest to RestaurantSim.Customer--><path codeLine="138" d="M1725.93,256.77 C1624.43,291.59 1589.66,269.38 1492,287.51 C1469.96,291.6 1316.26,325.91 1296,335.51 C1269.43,348.1 1242.96,366.15 1220.25,383.8 " fill="none" id="RestaurantSim.RestaurantGuest-backto-RestaurantSim.Customer" style="stroke: #A80036; stroke-width: 1.0;"/><polygon fill="none" points="1723.78,250.11,1744.97,249.86,1728.55,263.26,1723.78,250.11" style="stroke: #A80036; stroke-width: 1.0;"/><!--MD5=[e4b82dbf8c1836ec132cb850cc4ae3f3]
link RestaurantSim.Customer to RestaurantSim.SimulationSystem.TickableAction--><path codeLine="139" d="M1214.69,383.83 C1238.16,364.8 1266.53,345.87 1296,335.51 C1395.73,300.44 2141.52,312.65 2247,305.51 C2324.13,300.29 2342.97,294.01 2420,287.51 C2522.96,278.83 2791.61,303.78 2884,257.51 C2909.15,244.91 2929.11,219.41 2941.77,199.52 " fill="none" id="RestaurantSim.Customer-to-RestaurantSim.SimulationSystem.TickableAction" style="stroke: #A80036; stroke-width: 1.0;"/><polygon fill="#A80036" points="2944.51,195.11,2936.3564,200.6343,2941.8664,199.354,2943.1468,204.8641,2944.51,195.11" style="stroke: #A80036; stroke-width: 1.0;"/><text fill="#000000" font-family="sans-serif" font-size="13" lengthAdjust="spacingAndGlyphs" textLength="89" x="2421" y="302.0051">tickableActions</text><text fill="#000000" font-family="sans-serif" font-size="13" lengthAdjust="spacingAndGlyphs" textLength="5" x="2935.8562" y="216.4723">*</text><!--MD5=[1ece5e5aa59b9c2fd02158309decea46]
link RestaurantSim.CustomerBuilder to RestaurantSim.Customer--><path codeLine="140" d="M1400.82,236.54 C1372.97,251.95 1344.37,269.27 1319,287.51 C1281.06,314.79 1242.77,350.21 1212.73,380.2 " fill="none" id="RestaurantSim.CustomerBuilder-to-RestaurantSim.Customer" style="stroke: #A80036; stroke-width: 1.0;"/><polygon fill="#A80036" points="1209.11,383.83,1218.3024,380.2945,1212.6455,380.2945,1212.6455,374.6376,1209.11,383.83" style="stroke: #A80036; stroke-width: 1.0;"/><text fill="#000000" font-family="sans-serif" font-size="13" lengthAdjust="spacingAndGlyphs" textLength="80" x="1320" y="302.0051">builtCustomer</text><!--MD5=[26dc3cf86aee4e1210db592a0ea722cc]
link RestaurantSim.Dish to RestaurantSim.Ingredient--><path codeLine="141" d="M2058.34,885.93 C2038.29,908.39 2013.79,935.84 1992.61,959.56 " fill="none" id="RestaurantSim.Dish-to-RestaurantSim.Ingredient" style="stroke: #A80036; stroke-width: 1.0;"/><polygon fill="#A80036" points="1989.24,963.33,1998.2176,959.2799,1992.5698,959.6001,1992.2497,953.9523,1989.24,963.33" style="stroke: #A80036; stroke-width: 1.0;"/><text fill="#000000" font-family="sans-serif" font-size="13" lengthAdjust="spacingAndGlyphs" textLength="63" x="2031" y="930.0051">ingredients</text><text fill="#000000" font-family="sans-serif" font-size="13" lengthAdjust="spacingAndGlyphs" textLength="5" x="1989.9832" y="952.8061">*</text><!--MD5=[044c8ae2d4276af4868f17101f6bee01]
link RestaurantSim.Menu to RestaurantSim.Dish--><path codeLine="142" d="M1937.11,717.56 C1967.43,740.54 2004.55,768.67 2035.49,792.13 " fill="none" id="RestaurantSim.Menu-to-RestaurantSim.Dish" style="stroke: #A80036; stroke-width: 1.0;"/><polygon fill="#A80036" points="2039.62,795.26,2034.8741,786.63,2035.6389,792.2349,2030.034,792.9998,2039.62,795.26" style="stroke: #A80036; stroke-width: 1.0;"/><text fill="#000000" font-family="sans-serif" font-size="13" lengthAdjust="spacingAndGlyphs" textLength="69" x="1996" y="762.0051">randomDish</text><!--MD5=[d64d489a18d9fbe80c219c047521ab0f]
link RestaurantSim.Menu to RestaurantSim.Ingredient--><path codeLine="143" d="M1879.35,717.87 C1880.49,761.13 1884.4,828.53 1897,885.51 C1902.44,910.09 1911.42,936.33 1920.09,958.66 " fill="none" id="RestaurantSim.Menu-to-RestaurantSim.Ingredient" style="stroke: #A80036; stroke-width: 1.0;"/><polygon fill="#A80036" points="1921.94,963.36,1922.4002,953.5219,1920.125,958.7011,1914.9459,956.4259,1921.94,963.36" style="stroke: #A80036; stroke-width: 1.0;"/><text fill="#000000" font-family="sans-serif" font-size="13" lengthAdjust="spacingAndGlyphs" textLength="99" x="1898" y="846.0051">randomIngredient</text><!--MD5=[567efe78816e89e8dddfc5da7c5f4eb1]
link RestaurantSim.Order to RestaurantSim.Dish--><path codeLine="144" d="M2105.76,710.76 C2104.34,734.24 2102.5,764.83 2100.96,790.29 " fill="none" id="RestaurantSim.Order-to-RestaurantSim.Dish" style="stroke: #A80036; stroke-width: 1.0;"/><polygon fill="#A80036" points="2100.66,795.31,2105.1933,786.5665,2100.9603,790.319,2097.2078,786.086,2100.66,795.31" style="stroke: #A80036; stroke-width: 1.0;"/><text fill="#000000" font-family="sans-serif" font-size="13" lengthAdjust="spacingAndGlyphs" textLength="38" x="2104" y="762.0051">dishes</text><text fill="#000000" font-family="sans-serif" font-size="13" lengthAdjust="spacingAndGlyphs" textLength="5" x="2095.6845" y="784.7235">*</text><!--MD5=[df9a3e56b066dc4f93c6add61c26fe23]
link RestaurantSim.PreparedOrder to RestaurantSim.PreparedOrderQuality--><path codeLine="145" d="M174,216.21 C174,260.39 174,328.73 174,378.57 " fill="none" id="RestaurantSim.PreparedOrder-to-RestaurantSim.PreparedOrderQuality" style="stroke: #A80036; stroke-width: 1.0;"/><polygon fill="#A80036" points="174,383.63,178,374.63,174,378.63,170,374.63,174,383.63" style="stroke: #A80036; stroke-width: 1.0;"/><text fill="#000000" font-family="sans-serif" font-size="13" lengthAdjust="spacingAndGlyphs" textLength="38" x="175" y="302.0051">quality</text><!--MD5=[9f361ee264e7f4c3a47741e1e71d21eb]
reverse link RestaurantSim.SimulationSystem.IOrderRater to RestaurantSim.QualityBasedOrderRater--><path codeLine="146" d="M2808.77,127.31 C2798.15,90.37 2776.48,41.04 2734.5,25.51 C2685.68,7.45 909.32,7.45 860.5,25.51 C807.34,45.18 769.76,103.19 750.6,139.74 " fill="none" id="RestaurantSim.SimulationSystem.IOrderRater-backto-RestaurantSim.QualityBasedOrderRater" style="stroke: #A80036; stroke-width: 1.0; stroke-dasharray: 7.0,7.0;"/><polygon fill="none" points="2815.57,125.67,2813.7,146.77,2802,129.11,2815.57,125.67" style="stroke: #A80036; stroke-width: 1.0;"/><!--MD5=[d774add5571a2f62ceecd5e6e49ea8ba]
reverse link RestaurantSim.SimulationSystem.ITickableActionObject to RestaurantSim.Restaurant--><path codeLine="147" d="M3100.01,212.76 C3080.46,244.37 3048.7,285.99 3008,305.51 C2909.88,352.58 2132.2,300.98 2029,335.51 C2022.8,337.58 2016.63,340.01 2010.53,342.71 " fill="none" id="RestaurantSim.SimulationSystem.ITickableActionObject-backto-RestaurantSim.Restaurant" style="stroke: #A80036; stroke-width: 1.0; stroke-dasharray: 7.0,7.0;"/><polygon fill="none" points="3094.19,208.84,3110.32,195.1,3106.28,215.9,3094.19,208.84" style="stroke: #A80036; stroke-width: 1.0;"/><!--MD5=[7d773dab9ce1c2f7104b34f01289e6fb]
link RestaurantSim.Restaurant to RestaurantSim.Menu--><path codeLine="148" d="M1879,549.83 C1879,575.2 1879,601.07 1879,622.4 " fill="none" id="RestaurantSim.Restaurant-to-RestaurantSim.Menu" style="stroke: #A80036; stroke-width: 1.0;"/><polygon fill="#A80036" points="1879,627.44,1883,618.44,1879,622.44,1875,618.44,1879,627.44" style="stroke: #A80036; stroke-width: 1.0;"/><text fill="#000000" font-family="sans-serif" font-size="13" lengthAdjust="spacingAndGlyphs" textLength="32" x="1880" y="594.0051">menu</text><!--MD5=[997a31b494a0ec4730538306566fd7d1]
link RestaurantSim.Restaurant to RestaurantSim.SimulationSystem.TickableAction--><path codeLine="149" d="M2010.56,342.8 C2016.66,340.08 2022.81,337.62 2029,335.51 C2175.29,285.54 2571.57,331.25 2724,305.51 C2733.15,303.96 2876.23,262.58 2884,257.51 C2906.95,242.55 2926.68,218.28 2939.82,199.42 " fill="none" id="RestaurantSim.Restaurant-to-RestaurantSim.SimulationSystem.TickableAction" style="stroke: #A80036; stroke-width: 1.0;"/><polygon fill="#A80036" points="2942.69,195.24,2934.3034,200.4038,2939.864,199.3648,2940.9031,204.9254,2942.69,195.24" style="stroke: #A80036; stroke-width: 1.0;"/><text fill="#000000" font-family="sans-serif" font-size="13" lengthAdjust="spacingAndGlyphs" textLength="89" x="2787" y="302.0051">tickableActions</text><text fill="#000000" font-family="sans-serif" font-size="13" lengthAdjust="spacingAndGlyphs" textLength="5" x="2939.8113" y="216.634">*</text><!--MD5=[a54995a8bee7450996a4d5be20333e82]
reverse link RestaurantSim.SimulationSystem.ITickableActionObject to RestaurantSim.RestaurantGuest--><path codeLine="150" d="M3105.56,128.41 C3088.65,91.84 3058.26,42.44 3012.5,25.51 C2959.77,6 2053.23,6 2000.5,25.51 C1968.84,37.22 1940.73,60.11 1917.86,84.34 " fill="none" id="RestaurantSim.SimulationSystem.ITickableActionObject-backto-RestaurantSim.RestaurantGuest" style="stroke: #A80036; stroke-width: 1.0; stroke-dasharray: 7.0,7.0;"/><polygon fill="none" points="3112.03,125.73,3113.49,146.87,3099.16,131.25,3112.03,125.73" style="stroke: #A80036; stroke-width: 1.0;"/><!--MD5=[5f0af260994d6ba78f4bd17db71a4f66]
link RestaurantSim.RestaurantGuest to RestaurantSim.OrderReceipt--><path codeLine="151" d="M1744.91,248.65 C1738.95,251.82 1732.96,254.8 1727,257.51 C1607.11,312.14 1548.46,259.28 1441,335.51 C1418.12,351.74 1400.12,377.55 1387.72,399.64 " fill="none" id="RestaurantSim.RestaurantGuest-to-RestaurantSim.OrderReceipt" style="stroke: #A80036; stroke-width: 1.0;"/><polygon fill="#A80036" points="1385.16,404.29,1393.0126,398.3455,1387.5773,399.9132,1386.0096,394.4779,1385.16,404.29" style="stroke: #A80036; stroke-width: 1.0;"/><text fill="#000000" font-family="sans-serif" font-size="13" lengthAdjust="spacingAndGlyphs" textLength="73" x="1590" y="302.0051">orderReceipt</text><!--MD5=[dfa08663220b1f6f7b588b16307faf6c]
link RestaurantSim.RestaurantGuest to RestaurantSim.Restaurant--><path codeLine="152" d="M1862.63,257.65 C1864.68,280.67 1866.92,305.91 1869.08,330.11 " fill="none" id="RestaurantSim.RestaurantGuest-to-RestaurantSim.Restaurant" style="stroke: #A80036; stroke-width: 1.0;"/><polygon fill="#A80036" points="1869.54,335.26,1872.728,325.9414,1869.0976,330.2796,1864.7594,326.6492,1869.54,335.26" style="stroke: #A80036; stroke-width: 1.0;"/><text fill="#000000" font-family="sans-serif" font-size="13" lengthAdjust="spacingAndGlyphs" textLength="96" x="1867" y="302.0051">targetRestaurant</text><!--MD5=[998731bd2c7163389ff099c4385021f5]
reverse link RestaurantSim.RestaurantGuest to RestaurantSim.Sanepid--><path codeLine="153" d="M1754.82,272.01 C1714.37,312.38 1669.44,357.23 1635.96,390.64 " fill="none" id="RestaurantSim.RestaurantGuest-backto-RestaurantSim.Sanepid" style="stroke: #A80036; stroke-width: 1.0;"/><polygon fill="none" points="1750.1,266.83,1769.2,257.65,1759.99,276.74,1750.1,266.83" style="stroke: #A80036; stroke-width: 1.0;"/><!--MD5=[51fb570f4d945048b44f2c70b3438f08]
link RestaurantSim.Sanepid to RestaurantSim.SimulationSystem.TickableAction--><path codeLine="154" d="M1638.02,390.9 C1663.71,369.68 1696.28,347.24 1730,335.51 C1812.86,306.7 2431.74,314.54 2519,305.51 C2566.53,300.59 2577.69,294.26 2625,287.51 C2739.72,271.14 2781.74,312.02 2884,257.51 C2908.66,244.37 2928.57,219.18 2941.33,199.54 " fill="none" id="RestaurantSim.Sanepid-to-RestaurantSim.SimulationSystem.TickableAction" style="stroke: #A80036; stroke-width: 1.0;"/><polygon fill="#A80036" points="2944.1,195.18,2935.8899,200.6201,2941.4128,199.3965,2942.6364,204.9195,2944.1,195.18" style="stroke: #A80036; stroke-width: 1.0;"/><text fill="#000000" font-family="sans-serif" font-size="13" lengthAdjust="spacingAndGlyphs" textLength="89" x="2626" y="302.0051">tickableActions</text><text fill="#000000" font-family="sans-serif" font-size="13" lengthAdjust="spacingAndGlyphs" textLength="5" x="2916.385" y="216.7851">*</text><!--MD5=[c8069414806f4d7824cd5155c5ba8682]
reverse link RestaurantSim.SimulationSystem.IOrderQualityDeterminer to RestaurantSim.SkillBasedQualityDeterminer--><path codeLine="155" d="M2633.49,128.88 C2614.69,92.43 2581.61,42.94 2534.5,25.51 C2503.86,14.18 1389.44,15.04 1358.5,25.51 C1291.88,48.04 1230.2,104.24 1195.97,139.83 " fill="none" id="RestaurantSim.SimulationSystem.IOrderQualityDeterminer-backto-RestaurantSim.SkillBasedQualityDeterminer" style="stroke: #A80036; stroke-width: 1.0; stroke-dasharray: 7.0,7.0;"/><polygon fill="none" points="2639.85,125.95,2642.25,147,2627.25,132.04,2639.85,125.95" style="stroke: #A80036; stroke-width: 1.0;"/><text fill="#888888" font-family="sans-serif" font-size="10" lengthAdjust="spacingAndGlyphs" textLength="190" x="1513.5" y="1098.8909">UMLDoclet 2.0.12, PlantUML 1.2020.16</text><!--MD5=[029b6ac4017718f69cc7408dbaea33f2]
@startuml
    namespace RestaurantSim {

        class AverageRateBasedEvaluationService [[AverageRateBasedEvaluationService.html]] {
            +restaurantShouldBeClosed(Restaurant): boolean
        }

        class Cook [[Cook.html]] {
            +Cook(String, int, int, IOrderQualityDeterminer, Restaurant)
            +makeOrder(Order, int): void
            +isBusy(): boolean
            +getName(): String
            +shouldBeUnregistered(): boolean
            +getSkillLevel(): int
        }

        class CookBuilder [[CookBuilder.html]] {
            +buildCook(): CookBuilder
            +named(String): CookBuilder
            +namedRandomly(List<String>, List<String>): CookBuilder
            +withAgility(int): CookBuilder
            +withRandomAgility(int, int): CookBuilder
            +withSkillLevel(int): CookBuilder
            +withRandomSkillLevel(int, int): CookBuilder
            +withOrderQualityDeterminer(IOrderQualityDeterminer): CookBuilder
            +workingAt(Restaurant): CookBuilder
        }

        class Customer [[Customer.html]] {
            +Customer(String, int, IOrderRater, Restaurant)
            +rateRestaurant(PreparedOrder): void
            +shouldBeUnregistered(): boolean
            +interactWithRestaurant(): void
            +receiveOrder(PreparedOrder): void
        }

        class CustomerBuilder [[CustomerBuilder.html]] {
            +buildCustomerAssignedToRestaurant(Restaurant): CustomerBuilder
            +named(String): CustomerBuilder
            +withPatience(int): CustomerBuilder
            +namedRandomly(List<String>, List<String>): CustomerBuilder
            +withRandomPatience(int, int): CustomerBuilder
            +withRater(IOrderRater): CustomerBuilder
        }

        class Dish [[Dish.html]] {
            +Dish(List<Ingredient>, String)
            +getPrice(): float
            +getName(): String
        }

        class Ingredient [[Ingredient.html]] {
            +Ingredient(String, float, int)
            +getPrice(): float
            +getName(): String
            +getTicksToPrepare(): int
        }

        class Menu [[Menu.html]] {
            +Menu(FoodData)
            +getAvailableDishes(): Map<String, Dish>
            +getAvailableIngredients(): Map<String, Ingredient>
        }

        class Order [[Order.html]] {
            +Order(List<Dish>)
            +getTotalPrice(): float
        }

        class OrderReceipt [[OrderReceipt.html]] {
            +OrderReceipt(int)
            +getOrderID(): int
        }

        class PreparedOrder [[PreparedOrder.html]] {
            +PreparedOrder(List<Dish>, int, PreparedOrderQuality)
            +PreparedOrder(Order, int, PreparedOrderQuality)
            +getID(): int
        }

        enum PreparedOrderQuality [[PreparedOrderQuality.html]] {
            {static} +Inedible
            {static} +Bad
            {static} +Average
            {static} +Good
            {static} +Excellent
        }

        class Program [[Program.html]] {
            {static} +main(String[]): void
        }

        class QualityBasedOrderRater [[QualityBasedOrderRater.html]] {
            +rateOrder(PreparedOrder): float
        }

        class Restaurant [[Restaurant.html]] {
            +Restaurant(Menu)
            +addCooks(List<Cook>): void
            +receiveOrderRequest(Order, float): OrderReceipt
            +addGuestToQueue(RestaurantGuest): void
            +removeGuestFromQueue(RestaurantGuest): void
            +giveRate(float): void
            +addPreparedOrder(PreparedOrder): void
            +close(Object): void
            +isOpened(): boolean
            +getRatesAverage(): float
            +getNumberOfRates(): int
            +shouldBeUnregistered(): boolean
        }

        abstract class RestaurantGuest [[RestaurantGuest.html]] {
            +RestaurantGuest(String, int, Restaurant)
            +getName(): String
            +setName(String): void
            +getPatience(): int
            +setPatience(int): void
            +isWaitingToBeServed(): boolean
            +setWaitingToBeServed(boolean): void
            {abstract} +interactWithRestaurant(): void
            {abstract} +receiveOrder(PreparedOrder): void
        }

        class Sanepid [[Sanepid.html]] {
            +Sanepid(String, IEvaluationService, Restaurant)
            +interactWithRestaurant(): void
            +receiveOrder(PreparedOrder): void
            +shouldBeUnregistered(): boolean
        }

        class SkillBasedQualityDeterminer [[SkillBasedQualityDeterminer.html]] {
            +determineOrderQuality(Order, Cook): PreparedOrderQuality
        }

        RestaurantSim.SimulationSystem.IEvaluationService <|.. AverageRateBasedEvaluationService
        RestaurantSim.SimulationSystem.ITickableActionObject <|.. Cook
        Cook - -> "*" RestaurantSim.SimulationSystem.TickableAction: tickableActions
        CookBuilder - -> Cook: builtCook
        RestaurantGuest <|- - Customer
        Customer - -> "*" RestaurantSim.SimulationSystem.TickableAction: tickableActions
        CustomerBuilder - -> Customer: builtCustomer
        Dish - -> "*" Ingredient: ingredients
        Menu - -> Dish: randomDish
        Menu - -> Ingredient: randomIngredient
        Order - -> "*" Dish: dishes
        PreparedOrder - -> PreparedOrderQuality: quality
        RestaurantSim.SimulationSystem.IOrderRater <|.. QualityBasedOrderRater
        RestaurantSim.SimulationSystem.ITickableActionObject <|.. Restaurant
        Restaurant - -> Menu: menu
        Restaurant - -> "*" RestaurantSim.SimulationSystem.TickableAction: tickableActions
        RestaurantSim.SimulationSystem.ITickableActionObject <|.. RestaurantGuest
        RestaurantGuest - -> OrderReceipt: orderReceipt
        RestaurantGuest - -> Restaurant: targetRestaurant
        RestaurantGuest <|- - Sanepid
        Sanepid - -> "*" RestaurantSim.SimulationSystem.TickableAction: tickableActions
        RestaurantSim.SimulationSystem.IOrderQualityDeterminer <|.. SkillBasedQualityDeterminer
    }

    center footer UMLDoclet 2.0.12, PlantUML 1.2020.16
@enduml

PlantUML version 1.2020.16(Sun Aug 23 22:20:43 CEST 2020)
(APACHE source distribution)
Java Runtime: OpenJDK Runtime Environment
JVM: OpenJDK 64-Bit Server VM
Default Encoding: Cp1250
Language: pl
Country: PL
--></g></svg>