<?xml version="1.0" encoding="UTF-8" standalone="no"?><svg xmlns="http://www.w3.org/2000/svg" xmlns:xlink="http://www.w3.org/1999/xlink" contentScriptType="application/ecmascript" contentStyleType="text/css" height="227px" preserveAspectRatio="none" style="width:214px;height:227px;" version="1.1" viewBox="0 0 214 227" width="214px" zoomAndPan="magnify"><defs><filter height="300%" id="fa7zslhj4iro2" width="300%" x="-1" y="-1"><feGaussianBlur result="blurOut" stdDeviation="2.0"/><feColorMatrix in="blurOut" result="blurOut2" type="matrix" values="0 0 0 0 0 0 0 0 0 0 0 0 0 0 0 0 0 0 .4 0"/><feOffset dx="4.0" dy="4.0" in="blurOut2" result="blurOut3"/><feBlend in="SourceGraphic" in2="blurOut3" mode="normal"/></filter></defs><g><!--MD5=[35199ba9f703d00fe82425741642934d]
class RestaurantSim.QualityBasedOrderRater--><a href="QualityBasedOrderRater.html" target="_top" title="QualityBasedOrderRater.html" xlink:actuate="onRequest" xlink:href="QualityBasedOrderRater.html" xlink:show="new" xlink:title="QualityBasedOrderRater.html" xlink:type="simple"><rect codeLine="5" fill="#FEFECE" filter="url(#fa7zslhj4iro2)" height="62.0234" id="RestaurantSim.QualityBasedOrderRater" style="stroke: #A80036; stroke-width: 1.5;" width="188" x="7" y="129"/><ellipse cx="22" cy="149.0938" fill="#ADD1B2" rx="11" ry="11" style="stroke: #A80036; stroke-width: 1.0;"/><path d="M24.7656,144.9688 Q24.9219,144.75 25.1094,144.6406 Q25.2969,144.5313 25.5156,144.5313 Q25.8906,144.5313 26.125,144.7969 Q26.3594,145.0469 26.3594,145.6563 L26.3594,147.1094 Q26.3594,147.7188 26.125,147.9844 Q25.8906,148.25 25.5156,148.25 Q25.1719,148.25 24.9688,148.0469 Q24.7656,147.8594 24.6563,147.3438 Q24.6094,146.9844 24.4219,146.7969 Q24.0938,146.4219 23.4844,146.2031 Q22.875,145.9844 22.25,145.9844 Q21.4844,145.9844 20.8438,146.3125 Q20.2188,146.6406 19.7188,147.3906 Q19.2344,148.1406 19.2344,149.1719 L19.2344,150.2656 Q19.2344,151.5 20.125,152.3281 Q21.0156,153.1406 22.6094,153.1406 Q23.5469,153.1406 24.2031,152.8906 Q24.5938,152.7344 25.0156,152.2969 Q25.2813,152.0313 25.4219,151.9531 Q25.5781,151.875 25.7813,151.875 Q26.1094,151.875 26.3594,152.1406 Q26.625,152.3906 26.625,152.7344 Q26.625,153.0781 26.2813,153.4844 Q25.7813,154.0625 24.9844,154.3906 Q23.9063,154.8438 22.6094,154.8438 Q21.0938,154.8438 19.8906,154.2188 Q18.9063,153.7188 18.2188,152.6563 Q17.5313,151.5781 17.5313,150.2969 L17.5313,149.1406 Q17.5313,147.8125 18.1406,146.6719 Q18.7656,145.5156 19.8594,144.9063 Q20.9531,144.2813 22.1875,144.2813 Q22.9219,144.2813 23.5625,144.4531 Q24.2188,144.6094 24.7656,144.9688 Z "/><text fill="#000000" font-family="sans-serif" font-size="14" lengthAdjust="spacingAndGlyphs" textLength="156" x="36" y="148.5332">QualityBasedOrderRater</text><text fill="#000000" font-family="sans-serif" font-size="10" lengthAdjust="spacingAndGlyphs" textLength="69" x="79.5" y="161.9902">RestaurantSim</text><line style="stroke: #A80036; stroke-width: 1.5;" x1="8" x2="194" y1="169.1875" y2="169.1875"/><ellipse cx="18" cy="180.1875" fill="#84BE84" rx="3" ry="3" style="stroke: #038048; stroke-width: 1.0;"/><text fill="#000000" font-family="sans-serif" font-size="11" lengthAdjust="spacingAndGlyphs" textLength="154" x="27" y="184.6064">rateOrder(PreparedOrder): float</text></a><!--MD5=[1fefd24bee28d859e0543c6c7ce5e8dc]
class RestaurantSim.SimulationSystem.IOrderRater--><a href="SimulationSystem\IOrderRater.html" target="_top" title="SimulationSystem\IOrderRater.html" xlink:actuate="onRequest" xlink:href="SimulationSystem\IOrderRater.html" xlink:show="new" xlink:title="SimulationSystem\IOrderRater.html" xlink:type="simple"><rect codeLine="9" fill="#FEFECE" filter="url(#fa7zslhj4iro2)" height="62.0234" id="RestaurantSim.SimulationSystem.IOrderRater" style="stroke: #A80036; stroke-width: 1.5;" width="186" x="8" y="7"/><ellipse cx="23" cy="27.0938" fill="#B4A7E5" rx="11" ry="11" style="stroke: #A80036; stroke-width: 1.0;"/><path d="M23.9531,23.7344 L23.9531,30.3906 L25.6719,30.3906 Q26.2813,30.3906 26.5469,30.625 Q26.8125,30.8594 26.8125,31.25 Q26.8125,31.625 26.5469,31.8594 Q26.2813,32.0938 25.6719,32.0938 L20.5313,32.0938 Q19.9219,32.0938 19.6563,31.8594 Q19.3906,31.625 19.3906,31.2344 Q19.3906,30.8594 19.6563,30.625 Q19.9219,30.3906 20.5313,30.3906 L22.25,30.3906 L22.25,23.7344 L20.5313,23.7344 Q19.9219,23.7344 19.6563,23.5 Q19.3906,23.2656 19.3906,22.875 Q19.3906,22.5 19.6563,22.2656 Q19.9219,22.0313 20.5313,22.0313 L25.6719,22.0313 Q26.2813,22.0313 26.5469,22.2656 Q26.8125,22.5 26.8125,22.875 Q26.8125,23.2656 26.5469,23.5 Q26.2813,23.7344 25.6719,23.7344 L23.9531,23.7344 Z "/><text fill="#000000" font-family="sans-serif" font-size="14" font-style="italic" lengthAdjust="spacingAndGlyphs" textLength="76" x="76" y="26.5332">IOrderRater</text><text fill="#000000" font-family="sans-serif" font-size="10" font-style="italic" lengthAdjust="spacingAndGlyphs" textLength="154" x="37" y="39.9902">RestaurantSim.SimulationSystem</text><line style="stroke: #A80036; stroke-width: 1.5;" x1="9" x2="193" y1="47.1875" y2="47.1875"/><ellipse cx="19" cy="58.1875" fill="#84BE84" rx="3" ry="3" style="stroke: #038048; stroke-width: 1.0;"/><text fill="#000000" font-family="sans-serif" font-size="11" font-style="italic" lengthAdjust="spacingAndGlyphs" textLength="157" x="28" y="62.6064">rateOrder(PreparedOrder): float</text></a><!--MD5=[9f361ee264e7f4c3a47741e1e71d21eb]
reverse link RestaurantSim.SimulationSystem.IOrderRater to RestaurantSim.QualityBasedOrderRater--><path codeLine="13" d="M101,89.37 C101,102.75 101,116.79 101,128.73 " fill="none" id="RestaurantSim.SimulationSystem.IOrderRater-backto-RestaurantSim.QualityBasedOrderRater" style="stroke: #A80036; stroke-width: 1.0; stroke-dasharray: 7.0,7.0;"/><polygon fill="none" points="94,89.28,101,69.28,108,89.28,94,89.28" style="stroke: #A80036; stroke-width: 1.0;"/><text fill="#888888" font-family="sans-serif" font-size="10" lengthAdjust="spacingAndGlyphs" textLength="190" x="3" y="214.4043">UMLDoclet 2.0.12, PlantUML 1.2020.16</text><!--MD5=[66f9a23702d52e381007216e86ebbd6e]
@startuml
    set namespaceSeparator none
    hide empty fields
    hide empty methods

    class "<size:14>QualityBasedOrderRater\n<size:10>RestaurantSim" as RestaurantSim.QualityBasedOrderRater [[QualityBasedOrderRater.html]] {
        +rateOrder(PreparedOrder): float
    }

    interface "<size:14>IOrderRater\n<size:10>RestaurantSim.SimulationSystem" as RestaurantSim.SimulationSystem.IOrderRater [[SimulationSystem\IOrderRater.html]] {
        {abstract} +rateOrder(PreparedOrder): float
    }

    RestaurantSim.SimulationSystem.IOrderRater <|.. RestaurantSim.QualityBasedOrderRater

    center footer UMLDoclet 2.0.12, PlantUML 1.2020.16
@enduml

PlantUML version 1.2020.16(Sun Aug 23 22:20:43 CEST 2020)
(APACHE source distribution)
Java Runtime: OpenJDK Runtime Environment
JVM: OpenJDK 64-Bit Server VM
Default Encoding: Cp1250
Language: pl
Country: PL
--></g></svg>