<?xml version="1.0" encoding="UTF-8" standalone="no"?><svg xmlns="http://www.w3.org/2000/svg" xmlns:xlink="http://www.w3.org/1999/xlink" contentScriptType="application/ecmascript" contentStyleType="text/css" height="421px" preserveAspectRatio="none" style="width:289px;height:421px;" version="1.1" viewBox="0 0 289 421" width="289px" zoomAndPan="magnify"><defs><filter height="300%" id="f1eyjqq3xkrf8k" width="300%" x="-1" y="-1"><feGaussianBlur result="blurOut" stdDeviation="2.0"/><feColorMatrix in="blurOut" result="blurOut2" type="matrix" values="0 0 0 0 0 0 0 0 0 0 0 0 0 0 0 0 0 0 .4 0"/><feOffset dx="4.0" dy="4.0" in="blurOut2" result="blurOut3"/><feBlend in="SourceGraphic" in2="blurOut3" mode="normal"/></filter></defs><g><!--MD5=[7814d95fadc254f6dd4effa090efdb52]
class RestaurantSim.Restaurant--><a href="Restaurant.html" target="_top" title="Restaurant.html" xlink:actuate="onRequest" xlink:href="Restaurant.html" xlink:show="new" xlink:title="Restaurant.html" xlink:type="simple"><rect codeLine="5" fill="#FEFECE" filter="url(#f1eyjqq3xkrf8k)" height="241.8906" id="RestaurantSim.Restaurant" style="stroke: #A80036; stroke-width: 1.5;" width="263" x="7" y="143"/><ellipse cx="99.25" cy="163.0938" fill="#ADD1B2" rx="11" ry="11" style="stroke: #A80036; stroke-width: 1.0;"/><path d="M102.0156,158.9688 Q102.1719,158.75 102.3594,158.6406 Q102.5469,158.5313 102.7656,158.5313 Q103.1406,158.5313 103.375,158.7969 Q103.6094,159.0469 103.6094,159.6563 L103.6094,161.1094 Q103.6094,161.7188 103.375,161.9844 Q103.1406,162.25 102.7656,162.25 Q102.4219,162.25 102.2188,162.0469 Q102.0156,161.8594 101.9063,161.3438 Q101.8594,160.9844 101.6719,160.7969 Q101.3438,160.4219 100.7344,160.2031 Q100.125,159.9844 99.5,159.9844 Q98.7344,159.9844 98.0938,160.3125 Q97.4688,160.6406 96.9688,161.3906 Q96.4844,162.1406 96.4844,163.1719 L96.4844,164.2656 Q96.4844,165.5 97.375,166.3281 Q98.2656,167.1406 99.8594,167.1406 Q100.7969,167.1406 101.4531,166.8906 Q101.8438,166.7344 102.2656,166.2969 Q102.5313,166.0313 102.6719,165.9531 Q102.8281,165.875 103.0313,165.875 Q103.3594,165.875 103.6094,166.1406 Q103.875,166.3906 103.875,166.7344 Q103.875,167.0781 103.5313,167.4844 Q103.0313,168.0625 102.2344,168.3906 Q101.1563,168.8438 99.8594,168.8438 Q98.3438,168.8438 97.1406,168.2188 Q96.1563,167.7188 95.4688,166.6563 Q94.7813,165.5781 94.7813,164.2969 L94.7813,163.1406 Q94.7813,161.8125 95.3906,160.6719 Q96.0156,159.5156 97.1094,158.9063 Q98.2031,158.2813 99.4375,158.2813 Q100.1719,158.2813 100.8125,158.4531 Q101.4688,158.6094 102.0156,158.9688 Z "/><text fill="#000000" font-family="sans-serif" font-size="14" lengthAdjust="spacingAndGlyphs" textLength="70" x="119.75" y="162.5332">Restaurant</text><text fill="#000000" font-family="sans-serif" font-size="10" lengthAdjust="spacingAndGlyphs" textLength="69" x="120.25" y="175.9902">RestaurantSim</text><line style="stroke: #A80036; stroke-width: 1.5;" x1="8" x2="269" y1="183.1875" y2="183.1875"/><ellipse cx="18" cy="194.1875" fill="#84BE84" rx="3" ry="3" style="stroke: #038048; stroke-width: 1.0;"/><text fill="#000000" font-family="sans-serif" font-size="11" lengthAdjust="spacingAndGlyphs" textLength="87" x="27" y="198.6064">Restaurant(Menu)</text><ellipse cx="18" cy="208.0234" fill="#84BE84" rx="3" ry="3" style="stroke: #038048; stroke-width: 1.0;"/><text fill="#000000" font-family="sans-serif" font-size="11" lengthAdjust="spacingAndGlyphs" textLength="135" x="27" y="212.4424">addCooks(List&lt;Cook&gt;): void</text><ellipse cx="18" cy="221.8594" fill="#84BE84" rx="3" ry="3" style="stroke: #038048; stroke-width: 1.0;"/><text fill="#000000" font-family="sans-serif" font-size="11" lengthAdjust="spacingAndGlyphs" textLength="237" x="27" y="226.2783">receiveOrderRequest(Order, float): OrderReceipt</text><ellipse cx="18" cy="235.6953" fill="#84BE84" rx="3" ry="3" style="stroke: #038048; stroke-width: 1.0;"/><text fill="#000000" font-family="sans-serif" font-size="11" lengthAdjust="spacingAndGlyphs" textLength="81" x="27" y="240.1143">getMenu(): Menu</text><ellipse cx="18" cy="249.5313" fill="#84BE84" rx="3" ry="3" style="stroke: #038048; stroke-width: 1.0;"/><text fill="#000000" font-family="sans-serif" font-size="11" lengthAdjust="spacingAndGlyphs" textLength="207" x="27" y="253.9502">addGuestToQueue(RestaurantGuest): void</text><ellipse cx="18" cy="263.3672" fill="#84BE84" rx="3" ry="3" style="stroke: #038048; stroke-width: 1.0;"/><text fill="#000000" font-family="sans-serif" font-size="11" lengthAdjust="spacingAndGlyphs" textLength="237" x="27" y="267.7861">removeGuestFromQueue(RestaurantGuest): void</text><ellipse cx="18" cy="277.2031" fill="#84BE84" rx="3" ry="3" style="stroke: #038048; stroke-width: 1.0;"/><text fill="#000000" font-family="sans-serif" font-size="11" lengthAdjust="spacingAndGlyphs" textLength="97" x="27" y="281.6221">giveRate(float): void</text><ellipse cx="18" cy="291.0391" fill="#84BE84" rx="3" ry="3" style="stroke: #038048; stroke-width: 1.0;"/><text fill="#000000" font-family="sans-serif" font-size="11" lengthAdjust="spacingAndGlyphs" textLength="196" x="27" y="295.458">addPreparedOrder(PreparedOrder): void</text><ellipse cx="18" cy="304.875" fill="#84BE84" rx="3" ry="3" style="stroke: #038048; stroke-width: 1.0;"/><text fill="#000000" font-family="sans-serif" font-size="11" lengthAdjust="spacingAndGlyphs" textLength="91" x="27" y="309.2939">close(Object): void</text><ellipse cx="18" cy="318.7109" fill="#84BE84" rx="3" ry="3" style="stroke: #038048; stroke-width: 1.0;"/><text fill="#000000" font-family="sans-serif" font-size="11" lengthAdjust="spacingAndGlyphs" textLength="98" x="27" y="323.1299">isOpened(): boolean</text><ellipse cx="18" cy="332.5469" fill="#84BE84" rx="3" ry="3" style="stroke: #038048; stroke-width: 1.0;"/><text fill="#000000" font-family="sans-serif" font-size="11" lengthAdjust="spacingAndGlyphs" textLength="120" x="27" y="336.9658">getRatesAverage(): float</text><ellipse cx="18" cy="346.3828" fill="#84BE84" rx="3" ry="3" style="stroke: #038048; stroke-width: 1.0;"/><text fill="#000000" font-family="sans-serif" font-size="11" lengthAdjust="spacingAndGlyphs" textLength="117" x="27" y="350.8018">getNumberOfRates(): int</text><ellipse cx="18" cy="360.2188" fill="#84BE84" rx="3" ry="3" style="stroke: #038048; stroke-width: 1.0;"/><text fill="#000000" font-family="sans-serif" font-size="11" lengthAdjust="spacingAndGlyphs" textLength="204" x="27" y="364.6377">getTickableActions(): List&lt;TickableAction&gt;</text><ellipse cx="18" cy="374.0547" fill="#84BE84" rx="3" ry="3" style="stroke: #038048; stroke-width: 1.0;"/><text fill="#000000" font-family="sans-serif" font-size="11" lengthAdjust="spacingAndGlyphs" textLength="159" x="27" y="378.4736">shouldBeUnregistered(): boolean</text></a><!--MD5=[a39922f3f2d1cc3aed2dd395f1f2b9cc]
class RestaurantSim.SimulationSystem.ITickableActionObject--><a href="SimulationSystem\ITickableActionObject.html" target="_top" title="SimulationSystem\ITickableActionObject.html" xlink:actuate="onRequest" xlink:href="SimulationSystem\ITickableActionObject.html" xlink:show="new" xlink:title="SimulationSystem\ITickableActionObject.html" xlink:type="simple"><rect codeLine="22" fill="#FEFECE" filter="url(#f1eyjqq3xkrf8k)" height="75.8594" id="RestaurantSim.SimulationSystem.ITickableActionObject" style="stroke: #A80036; stroke-width: 1.5;" width="241" x="18" y="7"/><ellipse cx="57.75" cy="27.0938" fill="#B4A7E5" rx="11" ry="11" style="stroke: #A80036; stroke-width: 1.0;"/><path d="M58.7031,23.7344 L58.7031,30.3906 L60.4219,30.3906 Q61.0313,30.3906 61.2969,30.625 Q61.5625,30.8594 61.5625,31.25 Q61.5625,31.625 61.2969,31.8594 Q61.0313,32.0938 60.4219,32.0938 L55.2813,32.0938 Q54.6719,32.0938 54.4063,31.8594 Q54.1406,31.625 54.1406,31.2344 Q54.1406,30.8594 54.4063,30.625 Q54.6719,30.3906 55.2813,30.3906 L57,30.3906 L57,23.7344 L55.2813,23.7344 Q54.6719,23.7344 54.4063,23.5 Q54.1406,23.2656 54.1406,22.875 Q54.1406,22.5 54.4063,22.2656 Q54.6719,22.0313 55.2813,22.0313 L60.4219,22.0313 Q61.0313,22.0313 61.2969,22.2656 Q61.5625,22.5 61.5625,22.875 Q61.5625,23.2656 61.2969,23.5 Q61.0313,23.7344 60.4219,23.7344 L58.7031,23.7344 Z "/><text fill="#000000" font-family="sans-serif" font-size="14" font-style="italic" lengthAdjust="spacingAndGlyphs" textLength="138" x="85.25" y="26.5332">ITickableActionObject</text><text fill="#000000" font-family="sans-serif" font-size="10" font-style="italic" lengthAdjust="spacingAndGlyphs" textLength="154" x="77.25" y="39.9902">RestaurantSim.SimulationSystem</text><line style="stroke: #A80036; stroke-width: 1.5;" x1="19" x2="258" y1="47.1875" y2="47.1875"/><ellipse cx="29" cy="58.1875" fill="#84BE84" rx="3" ry="3" style="stroke: #038048; stroke-width: 1.0;"/><text fill="#000000" font-family="sans-serif" font-size="11" font-style="italic" lengthAdjust="spacingAndGlyphs" textLength="215" x="38" y="62.6064">getTickableActions(): List&lt;TickableAction&gt;</text><ellipse cx="29" cy="72.0234" fill="#84BE84" rx="3" ry="3" style="stroke: #038048; stroke-width: 1.0;"/><text fill="#000000" font-family="sans-serif" font-size="11" font-style="italic" lengthAdjust="spacingAndGlyphs" textLength="163" x="38" y="76.4424">shouldBeUnregistered(): boolean</text></a><!--MD5=[d774add5571a2f62ceecd5e6e49ea8ba]
reverse link RestaurantSim.SimulationSystem.ITickableActionObject to RestaurantSim.Restaurant--><path codeLine="27" d="M138.5,103.34 C138.5,115.61 138.5,129.01 138.5,142.66 " fill="none" id="RestaurantSim.SimulationSystem.ITickableActionObject-backto-RestaurantSim.Restaurant" style="stroke: #A80036; stroke-width: 1.0; stroke-dasharray: 7.0,7.0;"/><polygon fill="none" points="131.5,103.3,138.5,83.3,145.5,103.3,131.5,103.3" style="stroke: #A80036; stroke-width: 1.0;"/><text fill="#888888" font-family="sans-serif" font-size="10" lengthAdjust="spacingAndGlyphs" textLength="190" x="40.5" y="408.2715">UMLDoclet 2.0.12, PlantUML 1.2020.16</text><!--MD5=[05fe0699d6d041ea7f4491dd9333de9a]
@startuml
    set namespaceSeparator none
    hide empty fields
    hide empty methods

    class "<size:14>Restaurant\n<size:10>RestaurantSim" as RestaurantSim.Restaurant [[Restaurant.html]] {
        +Restaurant(Menu)
        +addCooks(List<Cook>): void
        +receiveOrderRequest(Order, float): OrderReceipt
        +getMenu(): Menu
        +addGuestToQueue(RestaurantGuest): void
        +removeGuestFromQueue(RestaurantGuest): void
        +giveRate(float): void
        +addPreparedOrder(PreparedOrder): void
        +close(Object): void
        +isOpened(): boolean
        +getRatesAverage(): float
        +getNumberOfRates(): int
        +getTickableActions(): List<TickableAction>
        +shouldBeUnregistered(): boolean
    }

    interface "<size:14>ITickableActionObject\n<size:10>RestaurantSim.SimulationSystem" as RestaurantSim.SimulationSystem.ITickableActionObject [[SimulationSystem\ITickableActionObject.html]] {
        {abstract} +getTickableActions(): List<TickableAction>
        {abstract} +shouldBeUnregistered(): boolean
    }

    RestaurantSim.SimulationSystem.ITickableActionObject <|.. RestaurantSim.Restaurant

    center footer UMLDoclet 2.0.12, PlantUML 1.2020.16
@enduml

PlantUML version 1.2020.16(Sun Aug 23 22:20:43 CEST 2020)
(APACHE source distribution)
Java Runtime: OpenJDK Runtime Environment
JVM: OpenJDK 64-Bit Server VM
Default Encoding: Cp1250
Language: pl
Country: PL
--></g></svg>