<?xml version="1.0" encoding="UTF-8" standalone="no"?><svg xmlns="http://www.w3.org/2000/svg" xmlns:xlink="http://www.w3.org/1999/xlink" contentScriptType="application/ecmascript" contentStyleType="text/css" height="394px" preserveAspectRatio="none" style="width:267px;height:394px;" version="1.1" viewBox="0 0 267 394" width="267px" zoomAndPan="magnify"><defs><filter height="300%" id="f1bwqjgeiy74bg" width="300%" x="-1" y="-1"><feGaussianBlur result="blurOut" stdDeviation="2.0"/><feColorMatrix in="blurOut" result="blurOut2" type="matrix" values="0 0 0 0 0 0 0 0 0 0 0 0 0 0 0 0 0 0 .4 0"/><feOffset dx="4.0" dy="4.0" in="blurOut2" result="blurOut3"/><feBlend in="SourceGraphic" in2="blurOut3" mode="normal"/></filter></defs><g><!--MD5=[506f5ffe9279332088426043cb12d185]
class RestaurantSim.RestaurantGuest--><a href="RestaurantGuest.html" target="_top" title="RestaurantGuest.html" xlink:actuate="onRequest" xlink:href="RestaurantGuest.html" xlink:show="new" xlink:title="RestaurantGuest.html" xlink:type="simple"><rect codeLine="5" fill="#FEFECE" filter="url(#f1bwqjgeiy74bg)" height="214.2188" id="RestaurantSim.RestaurantGuest" style="stroke: #A80036; stroke-width: 1.5;" width="220" x="17.5" y="143"/><ellipse cx="69.25" cy="163.0938" fill="#A9DCDF" rx="11" ry="11" style="stroke: #A80036; stroke-width: 1.0;"/><path d="M71.4375,164.8594 L67.2969,164.8594 L66.875,165.8906 L67.2969,165.8906 Q67.9063,165.8906 68.1719,166.125 Q68.4375,166.3594 68.4375,166.75 Q68.4375,167.125 68.1719,167.3594 Q67.9063,167.5938 67.2969,167.5938 L65,167.5938 Q64.3906,167.5938 64.1406,167.3594 Q63.875,167.125 63.875,166.7344 Q63.875,166.3594 64.1563,166.125 Q64.4219,165.875 65.0469,165.8906 L67.7188,159.2344 L66.6094,159.2344 Q66,159.2344 65.7344,159 Q65.4688,158.7656 65.4688,158.375 Q65.4688,158 65.7344,157.7656 Q66,157.5313 66.6094,157.5313 L70.2813,157.5313 L73.6719,165.8906 Q74.2656,165.8906 74.4531,166.0313 Q74.8438,166.2969 74.8438,166.75 Q74.8438,167.125 74.5781,167.3594 Q74.3281,167.5938 73.7188,167.5938 L71.4219,167.5938 Q70.8125,167.5938 70.5469,167.3594 Q70.2813,167.125 70.2813,166.7344 Q70.2813,166.3594 70.5469,166.125 Q70.8125,165.8906 71.4219,165.8906 L71.8438,165.8906 L71.4375,164.8594 Z M70.7188,163.1563 L69.3594,159.7813 L67.9844,163.1563 L70.7188,163.1563 Z "/><text fill="#000000" font-family="sans-serif" font-size="14" font-style="italic" lengthAdjust="spacingAndGlyphs" textLength="108" x="89.75" y="162.5332">RestaurantGuest</text><text fill="#000000" font-family="sans-serif" font-size="10" font-style="italic" lengthAdjust="spacingAndGlyphs" textLength="68" x="109.75" y="175.9902">RestaurantSim</text><line style="stroke: #A80036; stroke-width: 1.5;" x1="18.5" x2="236.5" y1="183.1875" y2="183.1875"/><ellipse cx="28.5" cy="194.1875" fill="#84BE84" rx="3" ry="3" style="stroke: #038048; stroke-width: 1.0;"/><text fill="#000000" font-family="sans-serif" font-size="11" lengthAdjust="spacingAndGlyphs" textLength="194" x="37.5" y="198.6064">RestaurantGuest(String, int, Restaurant)</text><ellipse cx="28.5" cy="208.0234" fill="#84BE84" rx="3" ry="3" style="stroke: #038048; stroke-width: 1.0;"/><text fill="#000000" font-family="sans-serif" font-size="11" lengthAdjust="spacingAndGlyphs" textLength="84" x="37.5" y="212.4424">getName(): String</text><ellipse cx="28.5" cy="221.8594" fill="#84BE84" rx="3" ry="3" style="stroke: #038048; stroke-width: 1.0;"/><text fill="#000000" font-family="sans-serif" font-size="11" lengthAdjust="spacingAndGlyphs" textLength="104" x="37.5" y="226.2783">setName(String): void</text><ellipse cx="28.5" cy="235.6953" fill="#84BE84" rx="3" ry="3" style="stroke: #038048; stroke-width: 1.0;"/><text fill="#000000" font-family="sans-serif" font-size="11" lengthAdjust="spacingAndGlyphs" textLength="81" x="37.5" y="240.1143">getPatience(): int</text><ellipse cx="28.5" cy="249.5313" fill="#84BE84" rx="3" ry="3" style="stroke: #038048; stroke-width: 1.0;"/><text fill="#000000" font-family="sans-serif" font-size="11" lengthAdjust="spacingAndGlyphs" textLength="101" x="37.5" y="253.9502">setPatience(int): void</text><ellipse cx="28.5" cy="263.3672" fill="#84BE84" rx="3" ry="3" style="stroke: #038048; stroke-width: 1.0;"/><text fill="#000000" font-family="sans-serif" font-size="11" lengthAdjust="spacingAndGlyphs" textLength="155" x="37.5" y="267.7861">isWaitingToBeServed(): boolean</text><ellipse cx="28.5" cy="277.2031" fill="#84BE84" rx="3" ry="3" style="stroke: #038048; stroke-width: 1.0;"/><text fill="#000000" font-family="sans-serif" font-size="11" lengthAdjust="spacingAndGlyphs" textLength="177" x="37.5" y="281.6221">setOrderReceipt(OrderReceipt): void</text><ellipse cx="28.5" cy="291.0391" fill="#84BE84" rx="3" ry="3" style="stroke: #038048; stroke-width: 1.0;"/><text fill="#000000" font-family="sans-serif" font-size="11" lengthAdjust="spacingAndGlyphs" textLength="182" x="37.5" y="295.458">setWaitingToBeServed(boolean): void</text><ellipse cx="28.5" cy="304.875" fill="#84BE84" rx="3" ry="3" style="stroke: #038048; stroke-width: 1.0;"/><text fill="#000000" font-family="sans-serif" font-size="11" lengthAdjust="spacingAndGlyphs" textLength="157" x="37.5" y="309.2939">getOrderReceipt(): OrderReceipt</text><ellipse cx="28.5" cy="318.7109" fill="#84BE84" rx="3" ry="3" style="stroke: #038048; stroke-width: 1.0;"/><text fill="#000000" font-family="sans-serif" font-size="11" font-style="italic" lengthAdjust="spacingAndGlyphs" textLength="148" x="37.5" y="323.1299">interactWithRestaurant(): void</text><ellipse cx="28.5" cy="332.5469" fill="#84BE84" rx="3" ry="3" style="stroke: #038048; stroke-width: 1.0;"/><text fill="#000000" font-family="sans-serif" font-size="11" font-style="italic" lengthAdjust="spacingAndGlyphs" textLength="173" x="37.5" y="336.9658">receiveOrder(PreparedOrder): void</text><ellipse cx="28.5" cy="346.3828" fill="#84BE84" rx="3" ry="3" style="stroke: #038048; stroke-width: 1.0;"/><text fill="#000000" font-family="sans-serif" font-size="11" lengthAdjust="spacingAndGlyphs" textLength="166" x="37.5" y="350.8018">getTargetRestaurant(): Restaurant</text></a><!--MD5=[a39922f3f2d1cc3aed2dd395f1f2b9cc]
class RestaurantSim.SimulationSystem.ITickableActionObject--><a href="SimulationSystem\ITickableActionObject.html" target="_top" title="SimulationSystem\ITickableActionObject.html" xlink:actuate="onRequest" xlink:href="SimulationSystem\ITickableActionObject.html" xlink:show="new" xlink:title="SimulationSystem\ITickableActionObject.html" xlink:type="simple"><rect codeLine="20" fill="#FEFECE" filter="url(#f1bwqjgeiy74bg)" height="75.8594" id="RestaurantSim.SimulationSystem.ITickableActionObject" style="stroke: #A80036; stroke-width: 1.5;" width="241" x="7" y="7"/><ellipse cx="46.75" cy="27.0938" fill="#B4A7E5" rx="11" ry="11" style="stroke: #A80036; stroke-width: 1.0;"/><path d="M47.7031,23.7344 L47.7031,30.3906 L49.4219,30.3906 Q50.0313,30.3906 50.2969,30.625 Q50.5625,30.8594 50.5625,31.25 Q50.5625,31.625 50.2969,31.8594 Q50.0313,32.0938 49.4219,32.0938 L44.2813,32.0938 Q43.6719,32.0938 43.4063,31.8594 Q43.1406,31.625 43.1406,31.2344 Q43.1406,30.8594 43.4063,30.625 Q43.6719,30.3906 44.2813,30.3906 L46,30.3906 L46,23.7344 L44.2813,23.7344 Q43.6719,23.7344 43.4063,23.5 Q43.1406,23.2656 43.1406,22.875 Q43.1406,22.5 43.4063,22.2656 Q43.6719,22.0313 44.2813,22.0313 L49.4219,22.0313 Q50.0313,22.0313 50.2969,22.2656 Q50.5625,22.5 50.5625,22.875 Q50.5625,23.2656 50.2969,23.5 Q50.0313,23.7344 49.4219,23.7344 L47.7031,23.7344 Z "/><text fill="#000000" font-family="sans-serif" font-size="14" font-style="italic" lengthAdjust="spacingAndGlyphs" textLength="138" x="74.25" y="26.5332">ITickableActionObject</text><text fill="#000000" font-family="sans-serif" font-size="10" font-style="italic" lengthAdjust="spacingAndGlyphs" textLength="154" x="66.25" y="39.9902">RestaurantSim.SimulationSystem</text><line style="stroke: #A80036; stroke-width: 1.5;" x1="8" x2="247" y1="47.1875" y2="47.1875"/><ellipse cx="18" cy="58.1875" fill="#84BE84" rx="3" ry="3" style="stroke: #038048; stroke-width: 1.0;"/><text fill="#000000" font-family="sans-serif" font-size="11" font-style="italic" lengthAdjust="spacingAndGlyphs" textLength="215" x="27" y="62.6064">getTickableActions(): List&lt;TickableAction&gt;</text><ellipse cx="18" cy="72.0234" fill="#84BE84" rx="3" ry="3" style="stroke: #038048; stroke-width: 1.0;"/><text fill="#000000" font-family="sans-serif" font-size="11" font-style="italic" lengthAdjust="spacingAndGlyphs" textLength="163" x="27" y="76.4424">shouldBeUnregistered(): boolean</text></a><!--MD5=[a54995a8bee7450996a4d5be20333e82]
reverse link RestaurantSim.SimulationSystem.ITickableActionObject to RestaurantSim.RestaurantGuest--><path codeLine="25" d="M127.5,103.49 C127.5,115.87 127.5,129.33 127.5,142.9 " fill="none" id="RestaurantSim.SimulationSystem.ITickableActionObject-backto-RestaurantSim.RestaurantGuest" style="stroke: #A80036; stroke-width: 1.0; stroke-dasharray: 7.0,7.0;"/><polygon fill="none" points="120.5,103.23,127.5,83.23,134.5,103.23,120.5,103.23" style="stroke: #A80036; stroke-width: 1.0;"/><text fill="#888888" font-family="sans-serif" font-size="10" lengthAdjust="spacingAndGlyphs" textLength="190" x="29.5" y="380.5996">UMLDoclet 2.0.12, PlantUML 1.2020.16</text><!--MD5=[c05c11b7f741ca3e3559227b95107b51]
@startuml
    set namespaceSeparator none
    hide empty fields
    hide empty methods

    abstract class "<size:14>RestaurantGuest\n<size:10>RestaurantSim" as RestaurantSim.RestaurantGuest [[RestaurantGuest.html]] {
        +RestaurantGuest(String, int, Restaurant)
        +getName(): String
        +setName(String): void
        +getPatience(): int
        +setPatience(int): void
        +isWaitingToBeServed(): boolean
        +setOrderReceipt(OrderReceipt): void
        +setWaitingToBeServed(boolean): void
        +getOrderReceipt(): OrderReceipt
        {abstract} +interactWithRestaurant(): void
        {abstract} +receiveOrder(PreparedOrder): void
        +getTargetRestaurant(): Restaurant
    }

    interface "<size:14>ITickableActionObject\n<size:10>RestaurantSim.SimulationSystem" as RestaurantSim.SimulationSystem.ITickableActionObject [[SimulationSystem\ITickableActionObject.html]] {
        {abstract} +getTickableActions(): List<TickableAction>
        {abstract} +shouldBeUnregistered(): boolean
    }

    RestaurantSim.SimulationSystem.ITickableActionObject <|.. RestaurantSim.RestaurantGuest

    center footer UMLDoclet 2.0.12, PlantUML 1.2020.16
@enduml

PlantUML version 1.2020.16(Sun Aug 23 22:20:43 CEST 2020)
(APACHE source distribution)
Java Runtime: OpenJDK Runtime Environment
JVM: OpenJDK 64-Bit Server VM
Default Encoding: Cp1250
Language: pl
Country: PL
--></g></svg>