<?xml version="1.0" encoding="UTF-8" standalone="no"?><svg xmlns="http://www.w3.org/2000/svg" xmlns:xlink="http://www.w3.org/1999/xlink" contentScriptType="application/ecmascript" contentStyleType="text/css" height="297px" preserveAspectRatio="none" style="width:280px;height:297px;" version="1.1" viewBox="0 0 280 297" width="280px" zoomAndPan="magnify"><defs><filter height="300%" id="f1a1b5rlx4gxpa" width="300%" x="-1" y="-1"><feGaussianBlur result="blurOut" stdDeviation="2.0"/><feColorMatrix in="blurOut" result="blurOut2" type="matrix" values="0 0 0 0 0 0 0 0 0 0 0 0 0 0 0 0 0 0 .4 0"/><feOffset dx="4.0" dy="4.0" in="blurOut2" result="blurOut3"/><feBlend in="SourceGraphic" in2="blurOut3" mode="normal"/></filter></defs><g><!--MD5=[b459818e2f6de0d8b62d1ef34cf623a1]
class RestaurantSim.Sanepid--><a href="Sanepid.html" target="_top" title="Sanepid.html" xlink:actuate="onRequest" xlink:href="Sanepid.html" xlink:show="new" xlink:title="Sanepid.html" xlink:type="simple"><rect codeLine="5" fill="#FEFECE" filter="url(#f1a1b5rlx4gxpa)" height="117.3672" id="RestaurantSim.Sanepid" style="stroke: #A80036; stroke-width: 1.5;" width="254" x="7" y="143"/><ellipse cx="95.25" cy="163.0938" fill="#ADD1B2" rx="11" ry="11" style="stroke: #A80036; stroke-width: 1.0;"/><path d="M98.0156,158.9688 Q98.1719,158.75 98.3594,158.6406 Q98.5469,158.5313 98.7656,158.5313 Q99.1406,158.5313 99.375,158.7969 Q99.6094,159.0469 99.6094,159.6563 L99.6094,161.1094 Q99.6094,161.7188 99.375,161.9844 Q99.1406,162.25 98.7656,162.25 Q98.4219,162.25 98.2188,162.0469 Q98.0156,161.8594 97.9063,161.3438 Q97.8594,160.9844 97.6719,160.7969 Q97.3438,160.4219 96.7344,160.2031 Q96.125,159.9844 95.5,159.9844 Q94.7344,159.9844 94.0938,160.3125 Q93.4688,160.6406 92.9688,161.3906 Q92.4844,162.1406 92.4844,163.1719 L92.4844,164.2656 Q92.4844,165.5 93.375,166.3281 Q94.2656,167.1406 95.8594,167.1406 Q96.7969,167.1406 97.4531,166.8906 Q97.8438,166.7344 98.2656,166.2969 Q98.5313,166.0313 98.6719,165.9531 Q98.8281,165.875 99.0313,165.875 Q99.3594,165.875 99.6094,166.1406 Q99.875,166.3906 99.875,166.7344 Q99.875,167.0781 99.5313,167.4844 Q99.0313,168.0625 98.2344,168.3906 Q97.1563,168.8438 95.8594,168.8438 Q94.3438,168.8438 93.1406,168.2188 Q92.1563,167.7188 91.4688,166.6563 Q90.7813,165.5781 90.7813,164.2969 L90.7813,163.1406 Q90.7813,161.8125 91.3906,160.6719 Q92.0156,159.5156 93.1094,158.9063 Q94.2031,158.2813 95.4375,158.2813 Q96.1719,158.2813 96.8125,158.4531 Q97.4688,158.6094 98.0156,158.9688 Z "/><text fill="#000000" font-family="sans-serif" font-size="14" lengthAdjust="spacingAndGlyphs" textLength="52" x="124.25" y="162.5332">Sanepid</text><text fill="#000000" font-family="sans-serif" font-size="10" lengthAdjust="spacingAndGlyphs" textLength="69" x="115.75" y="175.9902">RestaurantSim</text><line style="stroke: #A80036; stroke-width: 1.5;" x1="8" x2="260" y1="183.1875" y2="183.1875"/><ellipse cx="18" cy="194.1875" fill="#84BE84" rx="3" ry="3" style="stroke: #038048; stroke-width: 1.0;"/><text fill="#000000" font-family="sans-serif" font-size="11" lengthAdjust="spacingAndGlyphs" textLength="228" x="27" y="198.6064">Sanepid(String, IEvaluationService, Restaurant)</text><ellipse cx="18" cy="208.0234" fill="#84BE84" rx="3" ry="3" style="stroke: #038048; stroke-width: 1.0;"/><text fill="#000000" font-family="sans-serif" font-size="11" lengthAdjust="spacingAndGlyphs" textLength="144" x="27" y="212.4424">interactWithRestaurant(): void</text><ellipse cx="18" cy="221.8594" fill="#84BE84" rx="3" ry="3" style="stroke: #038048; stroke-width: 1.0;"/><text fill="#000000" font-family="sans-serif" font-size="11" lengthAdjust="spacingAndGlyphs" textLength="170" x="27" y="226.2783">receiveOrder(PreparedOrder): void</text><ellipse cx="18" cy="235.6953" fill="#84BE84" rx="3" ry="3" style="stroke: #038048; stroke-width: 1.0;"/><text fill="#000000" font-family="sans-serif" font-size="11" lengthAdjust="spacingAndGlyphs" textLength="204" x="27" y="240.1143">getTickableActions(): List&lt;TickableAction&gt;</text><ellipse cx="18" cy="249.5313" fill="#84BE84" rx="3" ry="3" style="stroke: #038048; stroke-width: 1.0;"/><text fill="#000000" font-family="sans-serif" font-size="11" lengthAdjust="spacingAndGlyphs" textLength="159" x="27" y="253.9502">shouldBeUnregistered(): boolean</text></a><!--MD5=[506f5ffe9279332088426043cb12d185]
class RestaurantSim.RestaurantGuest--><a href="RestaurantGuest.html" target="_top" title="RestaurantGuest.html" xlink:actuate="onRequest" xlink:href="RestaurantGuest.html" xlink:show="new" xlink:title="RestaurantGuest.html" xlink:type="simple"><rect codeLine="13" fill="#FEFECE" filter="url(#f1a1b5rlx4gxpa)" height="75.8594" id="RestaurantSim.RestaurantGuest" style="stroke: #A80036; stroke-width: 1.5;" width="199" x="34.5" y="7"/><ellipse cx="76.05" cy="27.0938" fill="#A9DCDF" rx="11" ry="11" style="stroke: #A80036; stroke-width: 1.0;"/><path d="M78.2375,28.8594 L74.0969,28.8594 L73.675,29.8906 L74.0969,29.8906 Q74.7063,29.8906 74.9719,30.125 Q75.2375,30.3594 75.2375,30.75 Q75.2375,31.125 74.9719,31.3594 Q74.7063,31.5938 74.0969,31.5938 L71.8,31.5938 Q71.1906,31.5938 70.9406,31.3594 Q70.675,31.125 70.675,30.7344 Q70.675,30.3594 70.9563,30.125 Q71.2219,29.875 71.8469,29.8906 L74.5188,23.2344 L73.4094,23.2344 Q72.8,23.2344 72.5344,23 Q72.2688,22.7656 72.2688,22.375 Q72.2688,22 72.5344,21.7656 Q72.8,21.5313 73.4094,21.5313 L77.0813,21.5313 L80.4719,29.8906 Q81.0656,29.8906 81.2531,30.0313 Q81.6438,30.2969 81.6438,30.75 Q81.6438,31.125 81.3781,31.3594 Q81.1281,31.5938 80.5188,31.5938 L78.2219,31.5938 Q77.6125,31.5938 77.3469,31.3594 Q77.0813,31.125 77.0813,30.7344 Q77.0813,30.3594 77.3469,30.125 Q77.6125,29.8906 78.2219,29.8906 L78.6438,29.8906 L78.2375,28.8594 Z M77.5188,27.1563 L76.1594,23.7813 L74.7844,27.1563 L77.5188,27.1563 Z "/><text fill="#000000" font-family="sans-serif" font-size="14" font-style="italic" lengthAdjust="spacingAndGlyphs" textLength="108" x="95.95" y="26.5332">RestaurantGuest</text><text fill="#000000" font-family="sans-serif" font-size="10" font-style="italic" lengthAdjust="spacingAndGlyphs" textLength="68" x="115.95" y="39.9902">RestaurantSim</text><line style="stroke: #A80036; stroke-width: 1.5;" x1="35.5" x2="232.5" y1="47.1875" y2="47.1875"/><ellipse cx="45.5" cy="58.1875" fill="#84BE84" rx="3" ry="3" style="stroke: #038048; stroke-width: 1.0;"/><text fill="#000000" font-family="sans-serif" font-size="11" font-style="italic" lengthAdjust="spacingAndGlyphs" textLength="148" x="54.5" y="62.6064">interactWithRestaurant(): void</text><ellipse cx="45.5" cy="72.0234" fill="#84BE84" rx="3" ry="3" style="stroke: #038048; stroke-width: 1.0;"/><text fill="#000000" font-family="sans-serif" font-size="11" font-style="italic" lengthAdjust="spacingAndGlyphs" textLength="173" x="54.5" y="76.4424">receiveOrder(PreparedOrder): void</text></a><!--MD5=[998731bd2c7163389ff099c4385021f5]
reverse link RestaurantSim.RestaurantGuest to RestaurantSim.Sanepid--><path codeLine="18" d="M134,103.16 C134,116.16 134,129.97 134,142.97 " fill="none" id="RestaurantSim.RestaurantGuest-backto-RestaurantSim.Sanepid" style="stroke: #A80036; stroke-width: 1.0;"/><polygon fill="none" points="127,103.01,134,83.01,141,103.01,127,103.01" style="stroke: #A80036; stroke-width: 1.0;"/><text fill="#888888" font-family="sans-serif" font-size="10" lengthAdjust="spacingAndGlyphs" textLength="190" x="36" y="283.748">UMLDoclet 2.0.12, PlantUML 1.2020.16</text><!--MD5=[d5ed727fc97b4e383dbc13e5cd9c52cf]
@startuml
    set namespaceSeparator none
    hide empty fields
    hide empty methods

    class "<size:14>Sanepid\n<size:10>RestaurantSim" as RestaurantSim.Sanepid [[Sanepid.html]] {
        +Sanepid(String, IEvaluationService, Restaurant)
        +interactWithRestaurant(): void
        +receiveOrder(PreparedOrder): void
        +getTickableActions(): List<TickableAction>
        +shouldBeUnregistered(): boolean
    }

    abstract class "<size:14>RestaurantGuest\n<size:10>RestaurantSim" as RestaurantSim.RestaurantGuest [[RestaurantGuest.html]] {
        {abstract} +interactWithRestaurant(): void
        {abstract} +receiveOrder(PreparedOrder): void
    }

    RestaurantSim.RestaurantGuest <|- - RestaurantSim.Sanepid

    center footer UMLDoclet 2.0.12, PlantUML 1.2020.16
@enduml

PlantUML version 1.2020.16(Sun Aug 23 22:20:43 CEST 2020)
(APACHE source distribution)
Java Runtime: OpenJDK Runtime Environment
JVM: OpenJDK 64-Bit Server VM
Default Encoding: Cp1250
Language: pl
Country: PL
--></g></svg>