<?xml version="1.0" encoding="UTF-8" standalone="no"?><svg xmlns="http://www.w3.org/2000/svg" xmlns:xlink="http://www.w3.org/1999/xlink" contentScriptType="application/ecmascript" contentStyleType="text/css" height="227px" preserveAspectRatio="none" style="width:349px;height:227px;" version="1.1" viewBox="0 0 349 227" width="349px" zoomAndPan="magnify"><defs><filter height="300%" id="f2rowr50z1jlu" width="300%" x="-1" y="-1"><feGaussianBlur result="blurOut" stdDeviation="2.0"/><feColorMatrix in="blurOut" result="blurOut2" type="matrix" values="0 0 0 0 0 0 0 0 0 0 0 0 0 0 0 0 0 0 .4 0"/><feOffset dx="4.0" dy="4.0" in="blurOut2" result="blurOut3"/><feBlend in="SourceGraphic" in2="blurOut3" mode="normal"/></filter></defs><g><!--MD5=[9f02568640df76511a09383bef0ccdd0]
class RestaurantSim.SkillBasedQualityDeterminer--><a href="SkillBasedQualityDeterminer.html" target="_top" title="SkillBasedQualityDeterminer.html" xlink:actuate="onRequest" xlink:href="SkillBasedQualityDeterminer.html" xlink:show="new" xlink:title="SkillBasedQualityDeterminer.html" xlink:type="simple"><rect codeLine="5" fill="#FEFECE" filter="url(#f2rowr50z1jlu)" height="62.0234" id="RestaurantSim.SkillBasedQualityDeterminer" style="stroke: #A80036; stroke-width: 1.5;" width="311" x="13" y="129"/><ellipse cx="74.75" cy="149.0938" fill="#ADD1B2" rx="11" ry="11" style="stroke: #A80036; stroke-width: 1.0;"/><path d="M77.5156,144.9688 Q77.6719,144.75 77.8594,144.6406 Q78.0469,144.5313 78.2656,144.5313 Q78.6406,144.5313 78.875,144.7969 Q79.1094,145.0469 79.1094,145.6563 L79.1094,147.1094 Q79.1094,147.7188 78.875,147.9844 Q78.6406,148.25 78.2656,148.25 Q77.9219,148.25 77.7188,148.0469 Q77.5156,147.8594 77.4063,147.3438 Q77.3594,146.9844 77.1719,146.7969 Q76.8438,146.4219 76.2344,146.2031 Q75.625,145.9844 75,145.9844 Q74.2344,145.9844 73.5938,146.3125 Q72.9688,146.6406 72.4688,147.3906 Q71.9844,148.1406 71.9844,149.1719 L71.9844,150.2656 Q71.9844,151.5 72.875,152.3281 Q73.7656,153.1406 75.3594,153.1406 Q76.2969,153.1406 76.9531,152.8906 Q77.3438,152.7344 77.7656,152.2969 Q78.0313,152.0313 78.1719,151.9531 Q78.3281,151.875 78.5313,151.875 Q78.8594,151.875 79.1094,152.1406 Q79.375,152.3906 79.375,152.7344 Q79.375,153.0781 79.0313,153.4844 Q78.5313,154.0625 77.7344,154.3906 Q76.6563,154.8438 75.3594,154.8438 Q73.8438,154.8438 72.6406,154.2188 Q71.6563,153.7188 70.9688,152.6563 Q70.2813,151.5781 70.2813,150.2969 L70.2813,149.1406 Q70.2813,147.8125 70.8906,146.6719 Q71.5156,145.5156 72.6094,144.9063 Q73.7031,144.2813 74.9375,144.2813 Q75.6719,144.2813 76.3125,144.4531 Q76.9688,144.6094 77.5156,144.9688 Z "/><text fill="#000000" font-family="sans-serif" font-size="14" lengthAdjust="spacingAndGlyphs" textLength="179" x="95.25" y="148.5332">SkillBasedQualityDeterminer</text><text fill="#000000" font-family="sans-serif" font-size="10" lengthAdjust="spacingAndGlyphs" textLength="69" x="150.25" y="161.9902">RestaurantSim</text><line style="stroke: #A80036; stroke-width: 1.5;" x1="14" x2="323" y1="169.1875" y2="169.1875"/><ellipse cx="24" cy="180.1875" fill="#84BE84" rx="3" ry="3" style="stroke: #038048; stroke-width: 1.0;"/><text fill="#000000" font-family="sans-serif" font-size="11" lengthAdjust="spacingAndGlyphs" textLength="285" x="33" y="184.6064">determineOrderQuality(Order, Cook): PreparedOrderQuality</text></a><!--MD5=[1bc529189f128eb66ad2884d682f977e]
class RestaurantSim.SimulationSystem.IOrderQualityDeterminer--><a href="SimulationSystem\IOrderQualityDeterminer.html" target="_top" title="SimulationSystem\IOrderQualityDeterminer.html" xlink:actuate="onRequest" xlink:href="SimulationSystem\IOrderQualityDeterminer.html" xlink:show="new" xlink:title="SimulationSystem\IOrderQualityDeterminer.html" xlink:type="simple"><rect codeLine="9" fill="#FEFECE" filter="url(#f2rowr50z1jlu)" height="62.0234" id="RestaurantSim.SimulationSystem.IOrderQualityDeterminer" style="stroke: #A80036; stroke-width: 1.5;" width="323" x="7" y="7"/><ellipse cx="86.75" cy="27.0938" fill="#B4A7E5" rx="11" ry="11" style="stroke: #A80036; stroke-width: 1.0;"/><path d="M87.7031,23.7344 L87.7031,30.3906 L89.4219,30.3906 Q90.0313,30.3906 90.2969,30.625 Q90.5625,30.8594 90.5625,31.25 Q90.5625,31.625 90.2969,31.8594 Q90.0313,32.0938 89.4219,32.0938 L84.2813,32.0938 Q83.6719,32.0938 83.4063,31.8594 Q83.1406,31.625 83.1406,31.2344 Q83.1406,30.8594 83.4063,30.625 Q83.6719,30.3906 84.2813,30.3906 L86,30.3906 L86,23.7344 L84.2813,23.7344 Q83.6719,23.7344 83.4063,23.5 Q83.1406,23.2656 83.1406,22.875 Q83.1406,22.5 83.4063,22.2656 Q83.6719,22.0313 84.2813,22.0313 L89.4219,22.0313 Q90.0313,22.0313 90.2969,22.2656 Q90.5625,22.5 90.5625,22.875 Q90.5625,23.2656 90.2969,23.5 Q90.0313,23.7344 89.4219,23.7344 L87.7031,23.7344 Z "/><text fill="#000000" font-family="sans-serif" font-size="14" font-style="italic" lengthAdjust="spacingAndGlyphs" textLength="155" x="107.25" y="26.5332">IOrderQualityDeterminer</text><text fill="#000000" font-family="sans-serif" font-size="10" font-style="italic" lengthAdjust="spacingAndGlyphs" textLength="154" x="107.75" y="39.9902">RestaurantSim.SimulationSystem</text><line style="stroke: #A80036; stroke-width: 1.5;" x1="8" x2="329" y1="47.1875" y2="47.1875"/><ellipse cx="18" cy="58.1875" fill="#84BE84" rx="3" ry="3" style="stroke: #038048; stroke-width: 1.0;"/><text fill="#000000" font-family="sans-serif" font-size="11" font-style="italic" lengthAdjust="spacingAndGlyphs" textLength="297" x="27" y="62.6064">determineOrderQuality(Order, Cook): PreparedOrderQuality</text></a><!--MD5=[c8069414806f4d7824cd5155c5ba8682]
reverse link RestaurantSim.SimulationSystem.IOrderQualityDeterminer to RestaurantSim.SkillBasedQualityDeterminer--><path codeLine="13" d="M168.5,89.37 C168.5,102.75 168.5,116.79 168.5,128.73 " fill="none" id="RestaurantSim.SimulationSystem.IOrderQualityDeterminer-backto-RestaurantSim.SkillBasedQualityDeterminer" style="stroke: #A80036; stroke-width: 1.0; stroke-dasharray: 7.0,7.0;"/><polygon fill="none" points="161.5,89.28,168.5,69.28,175.5,89.28,161.5,89.28" style="stroke: #A80036; stroke-width: 1.0;"/><text fill="#888888" font-family="sans-serif" font-size="10" lengthAdjust="spacingAndGlyphs" textLength="190" x="70.5" y="214.4043">UMLDoclet 2.0.12, PlantUML 1.2020.16</text><!--MD5=[5d3587add0eb82ea96364d7642f76a07]
@startuml
    set namespaceSeparator none
    hide empty fields
    hide empty methods

    class "<size:14>SkillBasedQualityDeterminer\n<size:10>RestaurantSim" as RestaurantSim.SkillBasedQualityDeterminer [[SkillBasedQualityDeterminer.html]] {
        +determineOrderQuality(Order, Cook): PreparedOrderQuality
    }

    interface "<size:14>IOrderQualityDeterminer\n<size:10>RestaurantSim.SimulationSystem" as RestaurantSim.SimulationSystem.IOrderQualityDeterminer [[SimulationSystem\IOrderQualityDeterminer.html]] {
        {abstract} +determineOrderQuality(Order, Cook): PreparedOrderQuality
    }

    RestaurantSim.SimulationSystem.IOrderQualityDeterminer <|.. RestaurantSim.SkillBasedQualityDeterminer

    center footer UMLDoclet 2.0.12, PlantUML 1.2020.16
@enduml

PlantUML version 1.2020.16(Sun Aug 23 22:20:43 CEST 2020)
(APACHE source distribution)
Java Runtime: OpenJDK Runtime Environment
JVM: OpenJDK 64-Bit Server VM
Default Encoding: Cp1250
Language: pl
Country: PL
--></g></svg>